%TF.GenerationSoftware,KiCad,Pcbnew,7.0.10*%
%TF.CreationDate,2024-02-21T10:43:39-05:00*%
%TF.ProjectId,Light_Sensor,4c696768-745f-4536-956e-736f722e6b69,rev?*%
%TF.SameCoordinates,Original*%
%TF.FileFunction,Legend,Top*%
%TF.FilePolarity,Positive*%
%FSLAX46Y46*%
G04 Gerber Fmt 4.6, Leading zero omitted, Abs format (unit mm)*
G04 Created by KiCad (PCBNEW 7.0.10) date 2024-02-21 10:43:39*
%MOMM*%
%LPD*%
G01*
G04 APERTURE LIST*
%ADD10C,0.150000*%
%ADD11C,0.120000*%
G04 APERTURE END LIST*
D10*
X150314819Y-82018094D02*
X149314819Y-82018094D01*
X149314819Y-82018094D02*
X149314819Y-81779999D01*
X149314819Y-81779999D02*
X149362438Y-81637142D01*
X149362438Y-81637142D02*
X149457676Y-81541904D01*
X149457676Y-81541904D02*
X149552914Y-81494285D01*
X149552914Y-81494285D02*
X149743390Y-81446666D01*
X149743390Y-81446666D02*
X149886247Y-81446666D01*
X149886247Y-81446666D02*
X150076723Y-81494285D01*
X150076723Y-81494285D02*
X150171961Y-81541904D01*
X150171961Y-81541904D02*
X150267200Y-81637142D01*
X150267200Y-81637142D02*
X150314819Y-81779999D01*
X150314819Y-81779999D02*
X150314819Y-82018094D01*
X150314819Y-80494285D02*
X150314819Y-81065713D01*
X150314819Y-80779999D02*
X149314819Y-80779999D01*
X149314819Y-80779999D02*
X149457676Y-80875237D01*
X149457676Y-80875237D02*
X149552914Y-80970475D01*
X149552914Y-80970475D02*
X149600533Y-81065713D01*
X148829104Y-82158094D02*
X148829104Y-81681904D01*
X149114819Y-82253332D02*
X148114819Y-81919999D01*
X148114819Y-81919999D02*
X149114819Y-81586666D01*
X146774819Y-84153333D02*
X147489104Y-84153333D01*
X147489104Y-84153333D02*
X147631961Y-84200952D01*
X147631961Y-84200952D02*
X147727200Y-84296190D01*
X147727200Y-84296190D02*
X147774819Y-84439047D01*
X147774819Y-84439047D02*
X147774819Y-84534285D01*
X146870057Y-83724761D02*
X146822438Y-83677142D01*
X146822438Y-83677142D02*
X146774819Y-83581904D01*
X146774819Y-83581904D02*
X146774819Y-83343809D01*
X146774819Y-83343809D02*
X146822438Y-83248571D01*
X146822438Y-83248571D02*
X146870057Y-83200952D01*
X146870057Y-83200952D02*
X146965295Y-83153333D01*
X146965295Y-83153333D02*
X147060533Y-83153333D01*
X147060533Y-83153333D02*
X147203390Y-83200952D01*
X147203390Y-83200952D02*
X147774819Y-83772380D01*
X147774819Y-83772380D02*
X147774819Y-83153333D01*
X151964819Y-89066666D02*
X151488628Y-89399999D01*
X151964819Y-89638094D02*
X150964819Y-89638094D01*
X150964819Y-89638094D02*
X150964819Y-89257142D01*
X150964819Y-89257142D02*
X151012438Y-89161904D01*
X151012438Y-89161904D02*
X151060057Y-89114285D01*
X151060057Y-89114285D02*
X151155295Y-89066666D01*
X151155295Y-89066666D02*
X151298152Y-89066666D01*
X151298152Y-89066666D02*
X151393390Y-89114285D01*
X151393390Y-89114285D02*
X151441009Y-89161904D01*
X151441009Y-89161904D02*
X151488628Y-89257142D01*
X151488628Y-89257142D02*
X151488628Y-89638094D01*
X151964819Y-88114285D02*
X151964819Y-88685713D01*
X151964819Y-88399999D02*
X150964819Y-88399999D01*
X150964819Y-88399999D02*
X151107676Y-88495237D01*
X151107676Y-88495237D02*
X151202914Y-88590475D01*
X151202914Y-88590475D02*
X151250533Y-88685713D01*
D11*
%TO.C,D1*%
X149860000Y-80660000D02*
X149860000Y-82320000D01*
X151780000Y-78740000D02*
G75*
G03*
X147940000Y-78740000I-1920000J0D01*
G01*
X147940000Y-78740000D02*
G75*
G03*
X151780000Y-78740000I1920000J0D01*
G01*
%TO.C,J2*%
X144890000Y-91770000D02*
X147390000Y-91770000D01*
X147390000Y-91770000D02*
X147390000Y-89270000D01*
X143070000Y-91470000D02*
X147090000Y-91470000D01*
X144780000Y-91470000D02*
X144780000Y-90970000D01*
X145590000Y-91470000D02*
X145590000Y-90470000D01*
X147090000Y-91470000D02*
X147090000Y-81250000D01*
X143570000Y-90970000D02*
X143570000Y-81750000D01*
X144780000Y-90970000D02*
X143570000Y-90970000D01*
X145590000Y-90470000D02*
X147090000Y-90470000D01*
X145590000Y-82250000D02*
X147090000Y-82250000D01*
X143570000Y-81750000D02*
X144780000Y-81750000D01*
X144780000Y-81750000D02*
X144780000Y-81250000D01*
X143070000Y-81250000D02*
X143070000Y-91470000D01*
X145590000Y-81250000D02*
X145590000Y-82250000D01*
X147090000Y-81250000D02*
X143070000Y-81250000D01*
%TO.C,R1*%
X150595000Y-88672936D02*
X150595000Y-89127064D01*
X149125000Y-88672936D02*
X149125000Y-89127064D01*
%TD*%
M02*
