%TF.GenerationSoftware,KiCad,Pcbnew,7.0.10*%
%TF.CreationDate,2024-02-21T10:43:29-05:00*%
%TF.ProjectId,Light_Sensor,4c696768-745f-4536-956e-736f722e6b69,rev?*%
%TF.SameCoordinates,Original*%
%TF.FileFunction,Drillmap*%
%TF.FilePolarity,Positive*%
%FSLAX45Y45*%
G04 Gerber Fmt 4.5, Leading zero omitted, Abs format (unit mm)*
G04 Created by KiCad (PCBNEW 7.0.10) date 2024-02-21 10:43:29*
%MOMM*%
%LPD*%
G01*
G04 APERTURE LIST*
%ADD10C,0.100000*%
%ADD11C,0.200000*%
%ADD12C,0.270000*%
G04 APERTURE END LIST*
D10*
X14224000Y-6858000D02*
X15240000Y-6858000D01*
X15240000Y-9906000D01*
X14224000Y-9906000D01*
X14224000Y-6858000D01*
D11*
D12*
X14597000Y-7231000D02*
X14867000Y-7501000D01*
X14867000Y-7231000D02*
X14597000Y-7501000D01*
X14597000Y-9517000D02*
X14867000Y-9787000D01*
X14867000Y-9517000D02*
X14597000Y-9787000D01*
D11*
X14479777Y-10222484D02*
X14479777Y-10022484D01*
X14479777Y-10022484D02*
X14527396Y-10022484D01*
X14527396Y-10022484D02*
X14555967Y-10032008D01*
X14555967Y-10032008D02*
X14575015Y-10051055D01*
X14575015Y-10051055D02*
X14584539Y-10070103D01*
X14584539Y-10070103D02*
X14594062Y-10108198D01*
X14594062Y-10108198D02*
X14594062Y-10136770D01*
X14594062Y-10136770D02*
X14584539Y-10174865D01*
X14584539Y-10174865D02*
X14575015Y-10193912D01*
X14575015Y-10193912D02*
X14555967Y-10212960D01*
X14555967Y-10212960D02*
X14527396Y-10222484D01*
X14527396Y-10222484D02*
X14479777Y-10222484D01*
X14679777Y-10222484D02*
X14679777Y-10089150D01*
X14679777Y-10127246D02*
X14689301Y-10108198D01*
X14689301Y-10108198D02*
X14698824Y-10098674D01*
X14698824Y-10098674D02*
X14717872Y-10089150D01*
X14717872Y-10089150D02*
X14736920Y-10089150D01*
X14803586Y-10222484D02*
X14803586Y-10089150D01*
X14803586Y-10022484D02*
X14794062Y-10032008D01*
X14794062Y-10032008D02*
X14803586Y-10041531D01*
X14803586Y-10041531D02*
X14813110Y-10032008D01*
X14813110Y-10032008D02*
X14803586Y-10022484D01*
X14803586Y-10022484D02*
X14803586Y-10041531D01*
X14927396Y-10222484D02*
X14908348Y-10212960D01*
X14908348Y-10212960D02*
X14898824Y-10193912D01*
X14898824Y-10193912D02*
X14898824Y-10022484D01*
X15032158Y-10222484D02*
X15013110Y-10212960D01*
X15013110Y-10212960D02*
X15003586Y-10193912D01*
X15003586Y-10193912D02*
X15003586Y-10022484D01*
X15260729Y-10222484D02*
X15260729Y-10022484D01*
X15260729Y-10022484D02*
X15327396Y-10165341D01*
X15327396Y-10165341D02*
X15394062Y-10022484D01*
X15394062Y-10022484D02*
X15394062Y-10222484D01*
X15575015Y-10222484D02*
X15575015Y-10117722D01*
X15575015Y-10117722D02*
X15565491Y-10098674D01*
X15565491Y-10098674D02*
X15546443Y-10089150D01*
X15546443Y-10089150D02*
X15508348Y-10089150D01*
X15508348Y-10089150D02*
X15489301Y-10098674D01*
X15575015Y-10212960D02*
X15555967Y-10222484D01*
X15555967Y-10222484D02*
X15508348Y-10222484D01*
X15508348Y-10222484D02*
X15489301Y-10212960D01*
X15489301Y-10212960D02*
X15479777Y-10193912D01*
X15479777Y-10193912D02*
X15479777Y-10174865D01*
X15479777Y-10174865D02*
X15489301Y-10155817D01*
X15489301Y-10155817D02*
X15508348Y-10146293D01*
X15508348Y-10146293D02*
X15555967Y-10146293D01*
X15555967Y-10146293D02*
X15575015Y-10136770D01*
X15670253Y-10089150D02*
X15670253Y-10289150D01*
X15670253Y-10098674D02*
X15689301Y-10089150D01*
X15689301Y-10089150D02*
X15727396Y-10089150D01*
X15727396Y-10089150D02*
X15746443Y-10098674D01*
X15746443Y-10098674D02*
X15755967Y-10108198D01*
X15755967Y-10108198D02*
X15765491Y-10127246D01*
X15765491Y-10127246D02*
X15765491Y-10184389D01*
X15765491Y-10184389D02*
X15755967Y-10203436D01*
X15755967Y-10203436D02*
X15746443Y-10212960D01*
X15746443Y-10212960D02*
X15727396Y-10222484D01*
X15727396Y-10222484D02*
X15689301Y-10222484D01*
X15689301Y-10222484D02*
X15670253Y-10212960D01*
X15851205Y-10203436D02*
X15860729Y-10212960D01*
X15860729Y-10212960D02*
X15851205Y-10222484D01*
X15851205Y-10222484D02*
X15841682Y-10212960D01*
X15841682Y-10212960D02*
X15851205Y-10203436D01*
X15851205Y-10203436D02*
X15851205Y-10222484D01*
X15851205Y-10098674D02*
X15860729Y-10108198D01*
X15860729Y-10108198D02*
X15851205Y-10117722D01*
X15851205Y-10117722D02*
X15841682Y-10108198D01*
X15841682Y-10108198D02*
X15851205Y-10098674D01*
X15851205Y-10098674D02*
X15851205Y-10117722D01*
X14019000Y-10451000D02*
X14219000Y-10651000D01*
X14219000Y-10451000D02*
X14019000Y-10651000D01*
X14470253Y-10461531D02*
X14479777Y-10452008D01*
X14479777Y-10452008D02*
X14498824Y-10442484D01*
X14498824Y-10442484D02*
X14546443Y-10442484D01*
X14546443Y-10442484D02*
X14565491Y-10452008D01*
X14565491Y-10452008D02*
X14575015Y-10461531D01*
X14575015Y-10461531D02*
X14584539Y-10480579D01*
X14584539Y-10480579D02*
X14584539Y-10499627D01*
X14584539Y-10499627D02*
X14575015Y-10528198D01*
X14575015Y-10528198D02*
X14460729Y-10642484D01*
X14460729Y-10642484D02*
X14584539Y-10642484D01*
X14670253Y-10623436D02*
X14679777Y-10632960D01*
X14679777Y-10632960D02*
X14670253Y-10642484D01*
X14670253Y-10642484D02*
X14660729Y-10632960D01*
X14660729Y-10632960D02*
X14670253Y-10623436D01*
X14670253Y-10623436D02*
X14670253Y-10642484D01*
X14746443Y-10442484D02*
X14879777Y-10442484D01*
X14879777Y-10442484D02*
X14794062Y-10642484D01*
X14994062Y-10442484D02*
X15013110Y-10442484D01*
X15013110Y-10442484D02*
X15032158Y-10452008D01*
X15032158Y-10452008D02*
X15041682Y-10461531D01*
X15041682Y-10461531D02*
X15051205Y-10480579D01*
X15051205Y-10480579D02*
X15060729Y-10518674D01*
X15060729Y-10518674D02*
X15060729Y-10566293D01*
X15060729Y-10566293D02*
X15051205Y-10604389D01*
X15051205Y-10604389D02*
X15041682Y-10623436D01*
X15041682Y-10623436D02*
X15032158Y-10632960D01*
X15032158Y-10632960D02*
X15013110Y-10642484D01*
X15013110Y-10642484D02*
X14994062Y-10642484D01*
X14994062Y-10642484D02*
X14975015Y-10632960D01*
X14975015Y-10632960D02*
X14965491Y-10623436D01*
X14965491Y-10623436D02*
X14955967Y-10604389D01*
X14955967Y-10604389D02*
X14946443Y-10566293D01*
X14946443Y-10566293D02*
X14946443Y-10518674D01*
X14946443Y-10518674D02*
X14955967Y-10480579D01*
X14955967Y-10480579D02*
X14965491Y-10461531D01*
X14965491Y-10461531D02*
X14975015Y-10452008D01*
X14975015Y-10452008D02*
X14994062Y-10442484D01*
X15184539Y-10442484D02*
X15203586Y-10442484D01*
X15203586Y-10442484D02*
X15222634Y-10452008D01*
X15222634Y-10452008D02*
X15232158Y-10461531D01*
X15232158Y-10461531D02*
X15241682Y-10480579D01*
X15241682Y-10480579D02*
X15251205Y-10518674D01*
X15251205Y-10518674D02*
X15251205Y-10566293D01*
X15251205Y-10566293D02*
X15241682Y-10604389D01*
X15241682Y-10604389D02*
X15232158Y-10623436D01*
X15232158Y-10623436D02*
X15222634Y-10632960D01*
X15222634Y-10632960D02*
X15203586Y-10642484D01*
X15203586Y-10642484D02*
X15184539Y-10642484D01*
X15184539Y-10642484D02*
X15165491Y-10632960D01*
X15165491Y-10632960D02*
X15155967Y-10623436D01*
X15155967Y-10623436D02*
X15146443Y-10604389D01*
X15146443Y-10604389D02*
X15136920Y-10566293D01*
X15136920Y-10566293D02*
X15136920Y-10518674D01*
X15136920Y-10518674D02*
X15146443Y-10480579D01*
X15146443Y-10480579D02*
X15155967Y-10461531D01*
X15155967Y-10461531D02*
X15165491Y-10452008D01*
X15165491Y-10452008D02*
X15184539Y-10442484D01*
X15336920Y-10642484D02*
X15336920Y-10509150D01*
X15336920Y-10528198D02*
X15346443Y-10518674D01*
X15346443Y-10518674D02*
X15365491Y-10509150D01*
X15365491Y-10509150D02*
X15394063Y-10509150D01*
X15394063Y-10509150D02*
X15413110Y-10518674D01*
X15413110Y-10518674D02*
X15422634Y-10537722D01*
X15422634Y-10537722D02*
X15422634Y-10642484D01*
X15422634Y-10537722D02*
X15432158Y-10518674D01*
X15432158Y-10518674D02*
X15451205Y-10509150D01*
X15451205Y-10509150D02*
X15479777Y-10509150D01*
X15479777Y-10509150D02*
X15498824Y-10518674D01*
X15498824Y-10518674D02*
X15508348Y-10537722D01*
X15508348Y-10537722D02*
X15508348Y-10642484D01*
X15603586Y-10642484D02*
X15603586Y-10509150D01*
X15603586Y-10528198D02*
X15613110Y-10518674D01*
X15613110Y-10518674D02*
X15632158Y-10509150D01*
X15632158Y-10509150D02*
X15660729Y-10509150D01*
X15660729Y-10509150D02*
X15679777Y-10518674D01*
X15679777Y-10518674D02*
X15689301Y-10537722D01*
X15689301Y-10537722D02*
X15689301Y-10642484D01*
X15689301Y-10537722D02*
X15698824Y-10518674D01*
X15698824Y-10518674D02*
X15717872Y-10509150D01*
X15717872Y-10509150D02*
X15746443Y-10509150D01*
X15746443Y-10509150D02*
X15765491Y-10518674D01*
X15765491Y-10518674D02*
X15775015Y-10537722D01*
X15775015Y-10537722D02*
X15775015Y-10642484D01*
X16165491Y-10432960D02*
X15994063Y-10690103D01*
X16422634Y-10442484D02*
X16441682Y-10442484D01*
X16441682Y-10442484D02*
X16460729Y-10452008D01*
X16460729Y-10452008D02*
X16470253Y-10461531D01*
X16470253Y-10461531D02*
X16479777Y-10480579D01*
X16479777Y-10480579D02*
X16489301Y-10518674D01*
X16489301Y-10518674D02*
X16489301Y-10566293D01*
X16489301Y-10566293D02*
X16479777Y-10604389D01*
X16479777Y-10604389D02*
X16470253Y-10623436D01*
X16470253Y-10623436D02*
X16460729Y-10632960D01*
X16460729Y-10632960D02*
X16441682Y-10642484D01*
X16441682Y-10642484D02*
X16422634Y-10642484D01*
X16422634Y-10642484D02*
X16403586Y-10632960D01*
X16403586Y-10632960D02*
X16394063Y-10623436D01*
X16394063Y-10623436D02*
X16384539Y-10604389D01*
X16384539Y-10604389D02*
X16375015Y-10566293D01*
X16375015Y-10566293D02*
X16375015Y-10518674D01*
X16375015Y-10518674D02*
X16384539Y-10480579D01*
X16384539Y-10480579D02*
X16394063Y-10461531D01*
X16394063Y-10461531D02*
X16403586Y-10452008D01*
X16403586Y-10452008D02*
X16422634Y-10442484D01*
X16575015Y-10623436D02*
X16584539Y-10632960D01*
X16584539Y-10632960D02*
X16575015Y-10642484D01*
X16575015Y-10642484D02*
X16565491Y-10632960D01*
X16565491Y-10632960D02*
X16575015Y-10623436D01*
X16575015Y-10623436D02*
X16575015Y-10642484D01*
X16775015Y-10642484D02*
X16660729Y-10642484D01*
X16717872Y-10642484D02*
X16717872Y-10442484D01*
X16717872Y-10442484D02*
X16698825Y-10471055D01*
X16698825Y-10471055D02*
X16679777Y-10490103D01*
X16679777Y-10490103D02*
X16660729Y-10499627D01*
X16898825Y-10442484D02*
X16917872Y-10442484D01*
X16917872Y-10442484D02*
X16936920Y-10452008D01*
X16936920Y-10452008D02*
X16946444Y-10461531D01*
X16946444Y-10461531D02*
X16955968Y-10480579D01*
X16955968Y-10480579D02*
X16965491Y-10518674D01*
X16965491Y-10518674D02*
X16965491Y-10566293D01*
X16965491Y-10566293D02*
X16955968Y-10604389D01*
X16955968Y-10604389D02*
X16946444Y-10623436D01*
X16946444Y-10623436D02*
X16936920Y-10632960D01*
X16936920Y-10632960D02*
X16917872Y-10642484D01*
X16917872Y-10642484D02*
X16898825Y-10642484D01*
X16898825Y-10642484D02*
X16879777Y-10632960D01*
X16879777Y-10632960D02*
X16870253Y-10623436D01*
X16870253Y-10623436D02*
X16860729Y-10604389D01*
X16860729Y-10604389D02*
X16851206Y-10566293D01*
X16851206Y-10566293D02*
X16851206Y-10518674D01*
X16851206Y-10518674D02*
X16860729Y-10480579D01*
X16860729Y-10480579D02*
X16870253Y-10461531D01*
X16870253Y-10461531D02*
X16879777Y-10452008D01*
X16879777Y-10452008D02*
X16898825Y-10442484D01*
X17136920Y-10442484D02*
X17098825Y-10442484D01*
X17098825Y-10442484D02*
X17079777Y-10452008D01*
X17079777Y-10452008D02*
X17070253Y-10461531D01*
X17070253Y-10461531D02*
X17051206Y-10490103D01*
X17051206Y-10490103D02*
X17041682Y-10528198D01*
X17041682Y-10528198D02*
X17041682Y-10604389D01*
X17041682Y-10604389D02*
X17051206Y-10623436D01*
X17051206Y-10623436D02*
X17060729Y-10632960D01*
X17060729Y-10632960D02*
X17079777Y-10642484D01*
X17079777Y-10642484D02*
X17117872Y-10642484D01*
X17117872Y-10642484D02*
X17136920Y-10632960D01*
X17136920Y-10632960D02*
X17146444Y-10623436D01*
X17146444Y-10623436D02*
X17155968Y-10604389D01*
X17155968Y-10604389D02*
X17155968Y-10556770D01*
X17155968Y-10556770D02*
X17146444Y-10537722D01*
X17146444Y-10537722D02*
X17136920Y-10528198D01*
X17136920Y-10528198D02*
X17117872Y-10518674D01*
X17117872Y-10518674D02*
X17079777Y-10518674D01*
X17079777Y-10518674D02*
X17060729Y-10528198D01*
X17060729Y-10528198D02*
X17051206Y-10537722D01*
X17051206Y-10537722D02*
X17041682Y-10556770D01*
X17222634Y-10442484D02*
X17346444Y-10442484D01*
X17346444Y-10442484D02*
X17279777Y-10518674D01*
X17279777Y-10518674D02*
X17308349Y-10518674D01*
X17308349Y-10518674D02*
X17327396Y-10528198D01*
X17327396Y-10528198D02*
X17336920Y-10537722D01*
X17336920Y-10537722D02*
X17346444Y-10556770D01*
X17346444Y-10556770D02*
X17346444Y-10604389D01*
X17346444Y-10604389D02*
X17336920Y-10623436D01*
X17336920Y-10623436D02*
X17327396Y-10632960D01*
X17327396Y-10632960D02*
X17308349Y-10642484D01*
X17308349Y-10642484D02*
X17251206Y-10642484D01*
X17251206Y-10642484D02*
X17232158Y-10632960D01*
X17232158Y-10632960D02*
X17222634Y-10623436D01*
X17422634Y-10442484D02*
X17422634Y-10480579D01*
X17498825Y-10442484D02*
X17498825Y-10480579D01*
X17794063Y-10718674D02*
X17784539Y-10709150D01*
X17784539Y-10709150D02*
X17765491Y-10680579D01*
X17765491Y-10680579D02*
X17755968Y-10661531D01*
X17755968Y-10661531D02*
X17746444Y-10632960D01*
X17746444Y-10632960D02*
X17736920Y-10585341D01*
X17736920Y-10585341D02*
X17736920Y-10547246D01*
X17736920Y-10547246D02*
X17746444Y-10499627D01*
X17746444Y-10499627D02*
X17755968Y-10471055D01*
X17755968Y-10471055D02*
X17765491Y-10452008D01*
X17765491Y-10452008D02*
X17784539Y-10423436D01*
X17784539Y-10423436D02*
X17794063Y-10413912D01*
X17860730Y-10461531D02*
X17870253Y-10452008D01*
X17870253Y-10452008D02*
X17889301Y-10442484D01*
X17889301Y-10442484D02*
X17936920Y-10442484D01*
X17936920Y-10442484D02*
X17955968Y-10452008D01*
X17955968Y-10452008D02*
X17965491Y-10461531D01*
X17965491Y-10461531D02*
X17975015Y-10480579D01*
X17975015Y-10480579D02*
X17975015Y-10499627D01*
X17975015Y-10499627D02*
X17965491Y-10528198D01*
X17965491Y-10528198D02*
X17851206Y-10642484D01*
X17851206Y-10642484D02*
X17975015Y-10642484D01*
X18213111Y-10642484D02*
X18213111Y-10442484D01*
X18298825Y-10642484D02*
X18298825Y-10537722D01*
X18298825Y-10537722D02*
X18289301Y-10518674D01*
X18289301Y-10518674D02*
X18270253Y-10509150D01*
X18270253Y-10509150D02*
X18241682Y-10509150D01*
X18241682Y-10509150D02*
X18222634Y-10518674D01*
X18222634Y-10518674D02*
X18213111Y-10528198D01*
X18422634Y-10642484D02*
X18403587Y-10632960D01*
X18403587Y-10632960D02*
X18394063Y-10623436D01*
X18394063Y-10623436D02*
X18384539Y-10604389D01*
X18384539Y-10604389D02*
X18384539Y-10547246D01*
X18384539Y-10547246D02*
X18394063Y-10528198D01*
X18394063Y-10528198D02*
X18403587Y-10518674D01*
X18403587Y-10518674D02*
X18422634Y-10509150D01*
X18422634Y-10509150D02*
X18451206Y-10509150D01*
X18451206Y-10509150D02*
X18470253Y-10518674D01*
X18470253Y-10518674D02*
X18479777Y-10528198D01*
X18479777Y-10528198D02*
X18489301Y-10547246D01*
X18489301Y-10547246D02*
X18489301Y-10604389D01*
X18489301Y-10604389D02*
X18479777Y-10623436D01*
X18479777Y-10623436D02*
X18470253Y-10632960D01*
X18470253Y-10632960D02*
X18451206Y-10642484D01*
X18451206Y-10642484D02*
X18422634Y-10642484D01*
X18603587Y-10642484D02*
X18584539Y-10632960D01*
X18584539Y-10632960D02*
X18575015Y-10613912D01*
X18575015Y-10613912D02*
X18575015Y-10442484D01*
X18755968Y-10632960D02*
X18736920Y-10642484D01*
X18736920Y-10642484D02*
X18698825Y-10642484D01*
X18698825Y-10642484D02*
X18679777Y-10632960D01*
X18679777Y-10632960D02*
X18670253Y-10613912D01*
X18670253Y-10613912D02*
X18670253Y-10537722D01*
X18670253Y-10537722D02*
X18679777Y-10518674D01*
X18679777Y-10518674D02*
X18698825Y-10509150D01*
X18698825Y-10509150D02*
X18736920Y-10509150D01*
X18736920Y-10509150D02*
X18755968Y-10518674D01*
X18755968Y-10518674D02*
X18765492Y-10537722D01*
X18765492Y-10537722D02*
X18765492Y-10556770D01*
X18765492Y-10556770D02*
X18670253Y-10575817D01*
X18841682Y-10632960D02*
X18860730Y-10642484D01*
X18860730Y-10642484D02*
X18898825Y-10642484D01*
X18898825Y-10642484D02*
X18917873Y-10632960D01*
X18917873Y-10632960D02*
X18927396Y-10613912D01*
X18927396Y-10613912D02*
X18927396Y-10604389D01*
X18927396Y-10604389D02*
X18917873Y-10585341D01*
X18917873Y-10585341D02*
X18898825Y-10575817D01*
X18898825Y-10575817D02*
X18870253Y-10575817D01*
X18870253Y-10575817D02*
X18851206Y-10566293D01*
X18851206Y-10566293D02*
X18841682Y-10547246D01*
X18841682Y-10547246D02*
X18841682Y-10537722D01*
X18841682Y-10537722D02*
X18851206Y-10518674D01*
X18851206Y-10518674D02*
X18870253Y-10509150D01*
X18870253Y-10509150D02*
X18898825Y-10509150D01*
X18898825Y-10509150D02*
X18917873Y-10518674D01*
X18994063Y-10718674D02*
X19003587Y-10709150D01*
X19003587Y-10709150D02*
X19022634Y-10680579D01*
X19022634Y-10680579D02*
X19032158Y-10661531D01*
X19032158Y-10661531D02*
X19041682Y-10632960D01*
X19041682Y-10632960D02*
X19051206Y-10585341D01*
X19051206Y-10585341D02*
X19051206Y-10547246D01*
X19051206Y-10547246D02*
X19041682Y-10499627D01*
X19041682Y-10499627D02*
X19032158Y-10471055D01*
X19032158Y-10471055D02*
X19022634Y-10452008D01*
X19022634Y-10452008D02*
X19003587Y-10423436D01*
X19003587Y-10423436D02*
X18994063Y-10413912D01*
X19355968Y-10718674D02*
X19346444Y-10709150D01*
X19346444Y-10709150D02*
X19327396Y-10680579D01*
X19327396Y-10680579D02*
X19317873Y-10661531D01*
X19317873Y-10661531D02*
X19308349Y-10632960D01*
X19308349Y-10632960D02*
X19298825Y-10585341D01*
X19298825Y-10585341D02*
X19298825Y-10547246D01*
X19298825Y-10547246D02*
X19308349Y-10499627D01*
X19308349Y-10499627D02*
X19317873Y-10471055D01*
X19317873Y-10471055D02*
X19327396Y-10452008D01*
X19327396Y-10452008D02*
X19346444Y-10423436D01*
X19346444Y-10423436D02*
X19355968Y-10413912D01*
X19432158Y-10509150D02*
X19432158Y-10642484D01*
X19432158Y-10528198D02*
X19441682Y-10518674D01*
X19441682Y-10518674D02*
X19460730Y-10509150D01*
X19460730Y-10509150D02*
X19489301Y-10509150D01*
X19489301Y-10509150D02*
X19508349Y-10518674D01*
X19508349Y-10518674D02*
X19517873Y-10537722D01*
X19517873Y-10537722D02*
X19517873Y-10642484D01*
X19641682Y-10642484D02*
X19622634Y-10632960D01*
X19622634Y-10632960D02*
X19613111Y-10623436D01*
X19613111Y-10623436D02*
X19603587Y-10604389D01*
X19603587Y-10604389D02*
X19603587Y-10547246D01*
X19603587Y-10547246D02*
X19613111Y-10528198D01*
X19613111Y-10528198D02*
X19622634Y-10518674D01*
X19622634Y-10518674D02*
X19641682Y-10509150D01*
X19641682Y-10509150D02*
X19670254Y-10509150D01*
X19670254Y-10509150D02*
X19689301Y-10518674D01*
X19689301Y-10518674D02*
X19698825Y-10528198D01*
X19698825Y-10528198D02*
X19708349Y-10547246D01*
X19708349Y-10547246D02*
X19708349Y-10604389D01*
X19708349Y-10604389D02*
X19698825Y-10623436D01*
X19698825Y-10623436D02*
X19689301Y-10632960D01*
X19689301Y-10632960D02*
X19670254Y-10642484D01*
X19670254Y-10642484D02*
X19641682Y-10642484D01*
X19765492Y-10509150D02*
X19841682Y-10509150D01*
X19794063Y-10442484D02*
X19794063Y-10613912D01*
X19794063Y-10613912D02*
X19803587Y-10632960D01*
X19803587Y-10632960D02*
X19822634Y-10642484D01*
X19822634Y-10642484D02*
X19841682Y-10642484D01*
X20060730Y-10509150D02*
X20060730Y-10709150D01*
X20060730Y-10518674D02*
X20079777Y-10509150D01*
X20079777Y-10509150D02*
X20117873Y-10509150D01*
X20117873Y-10509150D02*
X20136920Y-10518674D01*
X20136920Y-10518674D02*
X20146444Y-10528198D01*
X20146444Y-10528198D02*
X20155968Y-10547246D01*
X20155968Y-10547246D02*
X20155968Y-10604389D01*
X20155968Y-10604389D02*
X20146444Y-10623436D01*
X20146444Y-10623436D02*
X20136920Y-10632960D01*
X20136920Y-10632960D02*
X20117873Y-10642484D01*
X20117873Y-10642484D02*
X20079777Y-10642484D01*
X20079777Y-10642484D02*
X20060730Y-10632960D01*
X20270254Y-10642484D02*
X20251206Y-10632960D01*
X20251206Y-10632960D02*
X20241682Y-10613912D01*
X20241682Y-10613912D02*
X20241682Y-10442484D01*
X20432158Y-10642484D02*
X20432158Y-10537722D01*
X20432158Y-10537722D02*
X20422635Y-10518674D01*
X20422635Y-10518674D02*
X20403587Y-10509150D01*
X20403587Y-10509150D02*
X20365492Y-10509150D01*
X20365492Y-10509150D02*
X20346444Y-10518674D01*
X20432158Y-10632960D02*
X20413111Y-10642484D01*
X20413111Y-10642484D02*
X20365492Y-10642484D01*
X20365492Y-10642484D02*
X20346444Y-10632960D01*
X20346444Y-10632960D02*
X20336920Y-10613912D01*
X20336920Y-10613912D02*
X20336920Y-10594865D01*
X20336920Y-10594865D02*
X20346444Y-10575817D01*
X20346444Y-10575817D02*
X20365492Y-10566293D01*
X20365492Y-10566293D02*
X20413111Y-10566293D01*
X20413111Y-10566293D02*
X20432158Y-10556770D01*
X20498825Y-10509150D02*
X20575015Y-10509150D01*
X20527396Y-10442484D02*
X20527396Y-10613912D01*
X20527396Y-10613912D02*
X20536920Y-10632960D01*
X20536920Y-10632960D02*
X20555968Y-10642484D01*
X20555968Y-10642484D02*
X20575015Y-10642484D01*
X20717873Y-10632960D02*
X20698825Y-10642484D01*
X20698825Y-10642484D02*
X20660730Y-10642484D01*
X20660730Y-10642484D02*
X20641682Y-10632960D01*
X20641682Y-10632960D02*
X20632158Y-10613912D01*
X20632158Y-10613912D02*
X20632158Y-10537722D01*
X20632158Y-10537722D02*
X20641682Y-10518674D01*
X20641682Y-10518674D02*
X20660730Y-10509150D01*
X20660730Y-10509150D02*
X20698825Y-10509150D01*
X20698825Y-10509150D02*
X20717873Y-10518674D01*
X20717873Y-10518674D02*
X20727396Y-10537722D01*
X20727396Y-10537722D02*
X20727396Y-10556770D01*
X20727396Y-10556770D02*
X20632158Y-10575817D01*
X20898825Y-10642484D02*
X20898825Y-10442484D01*
X20898825Y-10632960D02*
X20879777Y-10642484D01*
X20879777Y-10642484D02*
X20841682Y-10642484D01*
X20841682Y-10642484D02*
X20822635Y-10632960D01*
X20822635Y-10632960D02*
X20813111Y-10623436D01*
X20813111Y-10623436D02*
X20803587Y-10604389D01*
X20803587Y-10604389D02*
X20803587Y-10547246D01*
X20803587Y-10547246D02*
X20813111Y-10528198D01*
X20813111Y-10528198D02*
X20822635Y-10518674D01*
X20822635Y-10518674D02*
X20841682Y-10509150D01*
X20841682Y-10509150D02*
X20879777Y-10509150D01*
X20879777Y-10509150D02*
X20898825Y-10518674D01*
X20975016Y-10718674D02*
X20984539Y-10709150D01*
X20984539Y-10709150D02*
X21003587Y-10680579D01*
X21003587Y-10680579D02*
X21013111Y-10661531D01*
X21013111Y-10661531D02*
X21022635Y-10632960D01*
X21022635Y-10632960D02*
X21032158Y-10585341D01*
X21032158Y-10585341D02*
X21032158Y-10547246D01*
X21032158Y-10547246D02*
X21022635Y-10499627D01*
X21022635Y-10499627D02*
X21013111Y-10471055D01*
X21013111Y-10471055D02*
X21003587Y-10452008D01*
X21003587Y-10452008D02*
X20984539Y-10423436D01*
X20984539Y-10423436D02*
X20975016Y-10413912D01*
M02*
