%TF.GenerationSoftware,KiCad,Pcbnew,7.0.10*%
%TF.CreationDate,2024-03-06T13:01:35-05:00*%
%TF.ProjectId,PCB_Main_Final,5043425f-4d61-4696-9e5f-46696e616c2e,rev?*%
%TF.SameCoordinates,Original*%
%TF.FileFunction,Soldermask,Bot*%
%TF.FilePolarity,Negative*%
%FSLAX46Y46*%
G04 Gerber Fmt 4.6, Leading zero omitted, Abs format (unit mm)*
G04 Created by KiCad (PCBNEW 7.0.10) date 2024-03-06 13:01:35*
%MOMM*%
%LPD*%
G01*
G04 APERTURE LIST*
G04 Aperture macros list*
%AMRoundRect*
0 Rectangle with rounded corners*
0 $1 Rounding radius*
0 $2 $3 $4 $5 $6 $7 $8 $9 X,Y pos of 4 corners*
0 Add a 4 corners polygon primitive as box body*
4,1,4,$2,$3,$4,$5,$6,$7,$8,$9,$2,$3,0*
0 Add four circle primitives for the rounded corners*
1,1,$1+$1,$2,$3*
1,1,$1+$1,$4,$5*
1,1,$1+$1,$6,$7*
1,1,$1+$1,$8,$9*
0 Add four rect primitives between the rounded corners*
20,1,$1+$1,$2,$3,$4,$5,0*
20,1,$1+$1,$4,$5,$6,$7,0*
20,1,$1+$1,$6,$7,$8,$9,0*
20,1,$1+$1,$8,$9,$2,$3,0*%
G04 Aperture macros list end*
%ADD10C,2.700000*%
%ADD11R,1.700000X1.700000*%
%ADD12O,1.700000X1.700000*%
%ADD13C,6.204000*%
%ADD14RoundRect,0.102000X-3.000000X-3.000000X3.000000X-3.000000X3.000000X3.000000X-3.000000X3.000000X0*%
%ADD15RoundRect,0.250000X0.475000X-0.250000X0.475000X0.250000X-0.475000X0.250000X-0.475000X-0.250000X0*%
%ADD16RoundRect,0.250000X-0.475000X0.250000X-0.475000X-0.250000X0.475000X-0.250000X0.475000X0.250000X0*%
%ADD17RoundRect,0.250000X0.262500X0.450000X-0.262500X0.450000X-0.262500X-0.450000X0.262500X-0.450000X0*%
%ADD18RoundRect,0.250000X-0.450000X0.262500X-0.450000X-0.262500X0.450000X-0.262500X0.450000X0.262500X0*%
%ADD19RoundRect,0.250000X-0.250000X-0.475000X0.250000X-0.475000X0.250000X0.475000X-0.250000X0.475000X0*%
%ADD20RoundRect,0.250000X0.450000X-0.262500X0.450000X0.262500X-0.450000X0.262500X-0.450000X-0.262500X0*%
%ADD21RoundRect,0.250000X0.250000X0.475000X-0.250000X0.475000X-0.250000X-0.475000X0.250000X-0.475000X0*%
%ADD22RoundRect,0.250000X0.650000X-1.000000X0.650000X1.000000X-0.650000X1.000000X-0.650000X-1.000000X0*%
%ADD23RoundRect,0.250000X-0.262500X-0.450000X0.262500X-0.450000X0.262500X0.450000X-0.262500X0.450000X0*%
%ADD24RoundRect,0.250000X-0.625000X0.312500X-0.625000X-0.312500X0.625000X-0.312500X0.625000X0.312500X0*%
%ADD25C,0.800000*%
%ADD26C,0.900000*%
%ADD27C,1.100000*%
%ADD28C,4.200000*%
%ADD29C,0.700000*%
%ADD30C,1.000000*%
%ADD31C,3.500000*%
%ADD32C,6.500000*%
G04 APERTURE END LIST*
D10*
%TO.C,H9*%
X88900000Y-73660000D03*
%TD*%
%TO.C,H8*%
X228600000Y-53340000D03*
%TD*%
D11*
%TO.C,J5*%
X96647000Y-121407000D03*
D12*
X96647000Y-123947000D03*
%TD*%
D10*
%TO.C,H7*%
X162560000Y-53340000D03*
%TD*%
D11*
%TO.C,LightSensorConnector2*%
X46490000Y-56185000D03*
D12*
X46490000Y-58725000D03*
X46490000Y-61265000D03*
%TD*%
D11*
%TO.C,J8*%
X46490000Y-68885000D03*
D12*
X49030000Y-68885000D03*
X46490000Y-71425000D03*
X49030000Y-71425000D03*
X46490000Y-73965000D03*
X49030000Y-73965000D03*
X46490000Y-76505000D03*
X49030000Y-76505000D03*
X46490000Y-79045000D03*
X49030000Y-79045000D03*
X46490000Y-81585000D03*
X49030000Y-81585000D03*
X46490000Y-84125000D03*
X49030000Y-84125000D03*
X46490000Y-86665000D03*
X49030000Y-86665000D03*
%TD*%
D10*
%TO.C,H6*%
X210820000Y-93980000D03*
%TD*%
%TO.C,H10*%
X160020000Y-121920000D03*
%TD*%
D11*
%TO.C,J10*%
X107880000Y-53645000D03*
D12*
X107880000Y-51105000D03*
%TD*%
D13*
%TO.C,J7*%
X127350000Y-53645000D03*
D14*
X120150000Y-53645000D03*
%TD*%
D11*
%TO.C,J9*%
X112530000Y-53645000D03*
D12*
X112530000Y-51105000D03*
%TD*%
D11*
%TO.C,J6*%
X155194000Y-107183000D03*
D12*
X155194000Y-109723000D03*
%TD*%
D11*
%TO.C,Boot2ROVER2*%
X46515000Y-95580000D03*
D12*
X46515000Y-98120000D03*
X46515000Y-100660000D03*
X46515000Y-103200000D03*
X46515000Y-105740000D03*
X46515000Y-108280000D03*
%TD*%
D11*
%TO.C,Boot2WROOM2*%
X82575000Y-51105000D03*
D12*
X85115000Y-51105000D03*
X87655000Y-51105000D03*
X90195000Y-51105000D03*
X92735000Y-51105000D03*
X95275000Y-51105000D03*
%TD*%
D15*
%TO.C,C56*%
X79510000Y-110894104D03*
X79510000Y-108994104D03*
%TD*%
D16*
%TO.C,C33*%
X72360000Y-109220000D03*
X72360000Y-111120000D03*
%TD*%
D17*
%TO.C,R24*%
X74430000Y-106985000D03*
X72605000Y-106985000D03*
%TD*%
D15*
%TO.C,C11*%
X69350000Y-52055000D03*
X69350000Y-50155000D03*
%TD*%
D18*
%TO.C,Ruvt2*%
X182880000Y-58420000D03*
X182880000Y-60245000D03*
%TD*%
D19*
%TO.C,C49*%
X115070000Y-61265000D03*
X116970000Y-61265000D03*
%TD*%
D17*
%TO.C,R23*%
X74572500Y-104140000D03*
X72747500Y-104140000D03*
%TD*%
D20*
%TO.C,R22*%
X69350000Y-109525000D03*
X69350000Y-107700000D03*
%TD*%
D17*
%TO.C,Rt2*%
X172720000Y-60960000D03*
X170895000Y-60960000D03*
%TD*%
D21*
%TO.C,C16*%
X66810000Y-106985000D03*
X64910000Y-106985000D03*
%TD*%
D20*
%TO.C,R4*%
X84590000Y-108316604D03*
X84590000Y-106491604D03*
%TD*%
D15*
%TO.C,C15*%
X64270000Y-52055000D03*
X64270000Y-50155000D03*
%TD*%
D18*
%TO.C,R13*%
X64270000Y-53645000D03*
X64270000Y-55470000D03*
%TD*%
D19*
%TO.C,C48*%
X115710000Y-63805000D03*
X117610000Y-63805000D03*
%TD*%
D16*
%TO.C,C40*%
X97681050Y-85261950D03*
X97681050Y-87161950D03*
%TD*%
D21*
%TO.C,C42*%
X102082600Y-99060000D03*
X100182600Y-99060000D03*
%TD*%
D16*
%TO.C,C41*%
X99700000Y-93980000D03*
X99700000Y-95880000D03*
%TD*%
D15*
%TO.C,Cvin2*%
X187960000Y-60575000D03*
X187960000Y-58675000D03*
%TD*%
D22*
%TO.C,Dbst2*%
X187960000Y-73120000D03*
X187960000Y-69120000D03*
%TD*%
D23*
%TO.C,R14*%
X52427500Y-60960000D03*
X54252500Y-60960000D03*
%TD*%
D18*
%TO.C,R27*%
X120150000Y-60352500D03*
X120150000Y-62177500D03*
%TD*%
D16*
%TO.C,C51*%
X108110000Y-60240000D03*
X108110000Y-62140000D03*
%TD*%
D19*
%TO.C,C54*%
X51570000Y-53645000D03*
X53470000Y-53645000D03*
%TD*%
D21*
%TO.C,Cbst2*%
X188910000Y-76200000D03*
X187010000Y-76200000D03*
%TD*%
%TO.C,C45*%
X106040000Y-91440000D03*
X104140000Y-91440000D03*
%TD*%
D24*
%TO.C,Rvin2*%
X185420000Y-58035000D03*
X185420000Y-60960000D03*
%TD*%
D20*
%TO.C,Ruvb2*%
X180340000Y-60245000D03*
X180340000Y-58420000D03*
%TD*%
D23*
%TO.C,R30*%
X100424986Y-53645000D03*
X102249986Y-53645000D03*
%TD*%
D15*
%TO.C,C12*%
X66810000Y-52055000D03*
X66810000Y-50155000D03*
%TD*%
D19*
%TO.C,Cvcc2*%
X187010000Y-66040000D03*
X188910000Y-66040000D03*
%TD*%
D16*
%TO.C,C52*%
X110650000Y-59365000D03*
X110650000Y-61265000D03*
%TD*%
D17*
%TO.C,R2*%
X53395000Y-51105000D03*
X51570000Y-51105000D03*
%TD*%
D19*
%TO.C,C38*%
X87317500Y-86360000D03*
X89217500Y-86360000D03*
%TD*%
D16*
%TO.C,C46*%
X106680000Y-84460000D03*
X106680000Y-86360000D03*
%TD*%
%TO.C,C55*%
X54110000Y-95401252D03*
X54110000Y-97301252D03*
%TD*%
%TO.C,C34*%
X74430000Y-109220000D03*
X74430000Y-111120000D03*
%TD*%
%TO.C,CsnR5*%
X49030000Y-103495000D03*
X49030000Y-105395000D03*
%TD*%
D19*
%TO.C,C50*%
X115070000Y-58725000D03*
X116970000Y-58725000D03*
%TD*%
%TO.C,CsnR4*%
X93030000Y-53645000D03*
X94930000Y-53645000D03*
%TD*%
D17*
%TO.C,R1*%
X94960004Y-63090000D03*
X93135004Y-63090000D03*
%TD*%
D18*
%TO.C,R21*%
X82050000Y-76915000D03*
X82050000Y-78740000D03*
%TD*%
D16*
%TO.C,C37*%
X87000000Y-97642600D03*
X87000000Y-99542600D03*
%TD*%
D18*
%TO.C,R29*%
X104910000Y-66345000D03*
X104910000Y-68170000D03*
%TD*%
D20*
%TO.C,R3*%
X56412303Y-95896852D03*
X56412303Y-94071852D03*
%TD*%
D19*
%TO.C,C53*%
X92250002Y-60300002D03*
X94150002Y-60300002D03*
%TD*%
D23*
%TO.C,R17*%
X52427500Y-58420000D03*
X54252500Y-58420000D03*
%TD*%
D18*
%TO.C,R18*%
X79100000Y-76915000D03*
X79100000Y-78740000D03*
%TD*%
D25*
X96520000Y-88900000D03*
X91440000Y-53340000D03*
X99060000Y-101600000D03*
X50910153Y-101489847D03*
X73660000Y-109220000D03*
X88900000Y-81280000D03*
X93980000Y-93980000D03*
X58420000Y-50800000D03*
X109220000Y-58420000D03*
X66040000Y-109220000D03*
X193040000Y-99060000D03*
X203200000Y-91440000D03*
X134620000Y-63500000D03*
X200660000Y-129540000D03*
X218440000Y-129540000D03*
D26*
X170180000Y-71120000D03*
D25*
X190500000Y-60960000D03*
X218440000Y-121920000D03*
D27*
X89530000Y-106270000D03*
D25*
X205740000Y-129540000D03*
X213360000Y-109220000D03*
D28*
X67850000Y-57585000D03*
D25*
X213360000Y-101600000D03*
X215900000Y-121920000D03*
X200660000Y-93980000D03*
X198120000Y-119380000D03*
X187960000Y-101600000D03*
X203200000Y-116840000D03*
X187960000Y-129540000D03*
X200660000Y-109220000D03*
X203200000Y-129540000D03*
X193040000Y-96520000D03*
X213360000Y-114300000D03*
X91440000Y-99060000D03*
X213360000Y-111760000D03*
X213360000Y-119380000D03*
X213360000Y-106680000D03*
X203200000Y-93980000D03*
X215900000Y-109220000D03*
X218440000Y-109220000D03*
X193040000Y-129540000D03*
X63500000Y-71120000D03*
X195580000Y-99060000D03*
X218440000Y-99060000D03*
X200660000Y-119380000D03*
X210820000Y-109220000D03*
X203200000Y-104140000D03*
X190500000Y-83820000D03*
X218440000Y-119380000D03*
X93980000Y-91440000D03*
X213360000Y-121920000D03*
X208280000Y-119380000D03*
X210820000Y-86360000D03*
X218440000Y-91440000D03*
X190500000Y-127000000D03*
X190500000Y-96520000D03*
D26*
X177800000Y-55880000D03*
D25*
X200660000Y-101600000D03*
X185420000Y-129540000D03*
X198120000Y-86360000D03*
X203200000Y-111760000D03*
X195580000Y-93980000D03*
X55880000Y-109220000D03*
D26*
X185420000Y-66040000D03*
D25*
X198120000Y-129540000D03*
X193040000Y-127000000D03*
X215900000Y-104140000D03*
X215900000Y-116840000D03*
X200660000Y-121920000D03*
X193040000Y-88900000D03*
X187960000Y-114300000D03*
D26*
X167640000Y-78740000D03*
D25*
X195580000Y-121920000D03*
X198120000Y-88900000D03*
X198120000Y-109220000D03*
X190500000Y-124460000D03*
X185420000Y-106680000D03*
X218440000Y-93980000D03*
X190500000Y-114300000D03*
X190500000Y-81280000D03*
X195580000Y-106680000D03*
X205740000Y-101600000D03*
X73660000Y-50800000D03*
X210820000Y-129540000D03*
X193040000Y-116840000D03*
X203200000Y-127000000D03*
X200660000Y-114300000D03*
X205740000Y-124460000D03*
X218440000Y-86360000D03*
X187960000Y-104140000D03*
X205740000Y-106680000D03*
X91440000Y-86360000D03*
X198120000Y-104140000D03*
X208280000Y-121920000D03*
X187960000Y-99060000D03*
X210820000Y-121920000D03*
X218440000Y-124460000D03*
X193040000Y-111760000D03*
X215900000Y-101600000D03*
X208280000Y-109220000D03*
X215900000Y-127000000D03*
X187960000Y-124460000D03*
X185420000Y-93980000D03*
X208280000Y-127000000D03*
X195580000Y-116840000D03*
X198120000Y-127000000D03*
X50800000Y-68580000D03*
X203200000Y-86360000D03*
X193040000Y-109220000D03*
X210820000Y-116840000D03*
X203200000Y-99060000D03*
X200660000Y-104140000D03*
X205740000Y-127000000D03*
X200660000Y-99060000D03*
X195580000Y-119380000D03*
X182880000Y-111760000D03*
X218440000Y-104140000D03*
X203200000Y-119380000D03*
X215900000Y-129540000D03*
X104140000Y-50800000D03*
X213360000Y-127000000D03*
X190500000Y-111760000D03*
X213360000Y-104140000D03*
X190500000Y-119380000D03*
X182880000Y-127000000D03*
X215900000Y-111760000D03*
X210820000Y-104140000D03*
X210820000Y-111760000D03*
X187960000Y-96520000D03*
X190500000Y-109220000D03*
X198120000Y-111760000D03*
X187960000Y-86360000D03*
X195580000Y-127000000D03*
X200660000Y-124460000D03*
X213360000Y-86360000D03*
X198120000Y-116840000D03*
X187960000Y-111760000D03*
X205740000Y-99060000D03*
X193040000Y-119380000D03*
X92147504Y-57705000D03*
X190500000Y-101600000D03*
X205740000Y-116840000D03*
X195580000Y-129540000D03*
X187960000Y-91440000D03*
X205740000Y-104140000D03*
X205740000Y-111760000D03*
X208280000Y-116840000D03*
X190500000Y-104140000D03*
X215900000Y-99060000D03*
X215900000Y-88900000D03*
X91440000Y-88900000D03*
X190500000Y-93980000D03*
X190500000Y-86360000D03*
X198120000Y-121920000D03*
X187960000Y-119380000D03*
X215900000Y-114300000D03*
X205740000Y-88900000D03*
X187960000Y-116840000D03*
X208280000Y-114300000D03*
X190500000Y-88900000D03*
X203200000Y-114300000D03*
X205740000Y-119380000D03*
X218440000Y-111760000D03*
X203200000Y-109220000D03*
X198120000Y-101600000D03*
X111760000Y-63500000D03*
X187960000Y-127000000D03*
X210820000Y-114300000D03*
X190500000Y-129540000D03*
X203200000Y-88900000D03*
X205740000Y-114300000D03*
X185420000Y-99060000D03*
X198120000Y-96520000D03*
X185420000Y-88900000D03*
X185420000Y-101600000D03*
X185420000Y-86360000D03*
D26*
X169030000Y-73660000D03*
D25*
X187960000Y-109220000D03*
X208280000Y-129540000D03*
X203200000Y-106680000D03*
X198120000Y-124460000D03*
X198120000Y-106680000D03*
X195580000Y-111760000D03*
X195580000Y-104140000D03*
X185420000Y-109220000D03*
X203200000Y-124460000D03*
X190500000Y-91440000D03*
X55880000Y-50800000D03*
X193040000Y-91440000D03*
X190500000Y-116840000D03*
X210820000Y-124460000D03*
X215900000Y-106680000D03*
X200660000Y-96520000D03*
X218440000Y-114300000D03*
X208280000Y-86360000D03*
X83820000Y-88920000D03*
X185420000Y-127000000D03*
X208280000Y-124460000D03*
D26*
X175512105Y-67407107D03*
D25*
X195580000Y-101600000D03*
X203200000Y-96520000D03*
X190500000Y-99060000D03*
X218440000Y-96520000D03*
X213360000Y-129540000D03*
X195580000Y-88900000D03*
X195580000Y-86360000D03*
X53340000Y-76200000D03*
X210820000Y-106680000D03*
X193040000Y-101600000D03*
X198120000Y-99060000D03*
X208280000Y-106680000D03*
X182880000Y-129540000D03*
X218440000Y-116840000D03*
X195580000Y-124460000D03*
X193040000Y-124460000D03*
X195580000Y-91440000D03*
X187960000Y-88900000D03*
X200660000Y-111760000D03*
X200660000Y-127000000D03*
X215900000Y-119380000D03*
X190500000Y-121920000D03*
X195580000Y-96520000D03*
X195580000Y-114300000D03*
X193040000Y-86360000D03*
X208280000Y-104140000D03*
X187960000Y-121920000D03*
X200660000Y-116840000D03*
X205740000Y-86360000D03*
X185420000Y-96520000D03*
X213360000Y-124460000D03*
X215900000Y-86360000D03*
X193040000Y-114300000D03*
X88900000Y-104140000D03*
X218440000Y-106680000D03*
X218440000Y-88900000D03*
X193040000Y-121920000D03*
X187960000Y-106680000D03*
X53340000Y-91440000D03*
X200660000Y-88900000D03*
X205740000Y-109220000D03*
D28*
X69720000Y-103000000D03*
D25*
X185420000Y-111760000D03*
X190500000Y-106680000D03*
X195580000Y-109220000D03*
X193040000Y-106680000D03*
X193040000Y-104140000D03*
X218440000Y-127000000D03*
X200660000Y-106680000D03*
X203200000Y-121920000D03*
D29*
X181556135Y-76256658D03*
D25*
X187960000Y-93980000D03*
X210820000Y-127000000D03*
X210820000Y-119380000D03*
X208280000Y-101600000D03*
X213360000Y-116840000D03*
X208280000Y-111760000D03*
X198120000Y-93980000D03*
X200660000Y-91440000D03*
X198120000Y-114300000D03*
D27*
X88900000Y-109220000D03*
D25*
X198120000Y-91440000D03*
X215900000Y-124460000D03*
X193040000Y-93980000D03*
X210820000Y-101600000D03*
X45720000Y-50800000D03*
X200660000Y-86360000D03*
X205740000Y-121920000D03*
X203200000Y-101600000D03*
X81280000Y-53340000D03*
X86360000Y-53340000D03*
X120015000Y-96266000D03*
X120015000Y-110998000D03*
X148717000Y-121666000D03*
X128651000Y-121666000D03*
D27*
X99060000Y-109220000D03*
D25*
X138557000Y-94742000D03*
D26*
X120523000Y-123952000D03*
D25*
X110206283Y-106081252D03*
X106680000Y-99060000D03*
D26*
X122301000Y-122174000D03*
D25*
X99060000Y-91440000D03*
X138557000Y-101346000D03*
D27*
X99060000Y-106680000D03*
D25*
X95778588Y-96236106D03*
X102761050Y-84981050D03*
X55880000Y-53260000D03*
X71120000Y-106680000D03*
X78980002Y-106680000D03*
X88900000Y-96520000D03*
X104140000Y-93980000D03*
X134874000Y-88900000D03*
X109474000Y-88900000D03*
X106680000Y-93980000D03*
X108712000Y-82550000D03*
D26*
X185420000Y-53340000D03*
X182880000Y-53340000D03*
D29*
X184304998Y-63500000D03*
D25*
X119380000Y-58420000D03*
X94687504Y-57705000D03*
X50800000Y-55880000D03*
X55880000Y-101600000D03*
X81280000Y-106680000D03*
X130937000Y-103886000D03*
X129159000Y-97282000D03*
D26*
X185420000Y-71120000D03*
X185420000Y-73660000D03*
X182880000Y-81280000D03*
X167640000Y-71120000D03*
X162560000Y-73660000D03*
X165100000Y-68580000D03*
D25*
X114427000Y-90678000D03*
X116967000Y-93218000D03*
X129159000Y-90678000D03*
X138303000Y-90678000D03*
X126365000Y-102616000D03*
X124079000Y-97282000D03*
D26*
X182880000Y-73660000D03*
D29*
X181764998Y-63500000D03*
D25*
X50942500Y-63195000D03*
X50942500Y-60655000D03*
X81280000Y-99060000D03*
X83820000Y-104140000D03*
X119380000Y-66040000D03*
X98939986Y-53340000D03*
X63500000Y-63500000D03*
X63500000Y-66040000D03*
X76200000Y-50800000D03*
X76200000Y-58420000D03*
X58420000Y-81280000D03*
X76200000Y-63500000D03*
X63500000Y-60960000D03*
X55880000Y-73660000D03*
X76200000Y-60960000D03*
X76200000Y-66040000D03*
D26*
X223520000Y-71120000D03*
D29*
X186844998Y-63500000D03*
D26*
X185420000Y-68580000D03*
X175260000Y-76200000D03*
D25*
X98939986Y-50800000D03*
X73660000Y-55880000D03*
X81280000Y-55880000D03*
X89607504Y-62785000D03*
X55880000Y-91440000D03*
D30*
X83820000Y-60960000D03*
X81280000Y-93980000D03*
X83820000Y-63500000D03*
X83820000Y-93980000D03*
D25*
X104140000Y-63500000D03*
D26*
X177800000Y-63500000D03*
X180340000Y-60960000D03*
D25*
X45720000Y-66040000D03*
X81280000Y-58420000D03*
X76200000Y-53340000D03*
X86360000Y-58420000D03*
X68580000Y-99060000D03*
X71120000Y-83820000D03*
X73660000Y-81280000D03*
X71120000Y-99060000D03*
X73660000Y-99060000D03*
X88900000Y-91440000D03*
X73660000Y-96520000D03*
X86360000Y-91440000D03*
X73660000Y-93980000D03*
X73660000Y-83820000D03*
X76200000Y-83820000D03*
X73660000Y-91440000D03*
X63500000Y-83820000D03*
X60960000Y-91440000D03*
X60960000Y-93980000D03*
X66040000Y-81280000D03*
X66040000Y-83820000D03*
X60960000Y-96520000D03*
X60960000Y-99060000D03*
X68580000Y-78740000D03*
X68580000Y-81280000D03*
X60960000Y-101600000D03*
X63500000Y-101600000D03*
X71120000Y-78740000D03*
X60960000Y-104140000D03*
X68580000Y-83820000D03*
X60960000Y-106680000D03*
X88900000Y-93980000D03*
X66040000Y-99060000D03*
X71120000Y-81280000D03*
D31*
X181379998Y-68320001D03*
D32*
X126111000Y-83566000D03*
M02*
