M48
; DRILL file {KiCad 7.0.10} date Wed Mar  6 13:01:37 2024
; FORMAT={-:-/ absolute / inch / decimal}
; #@! TF.CreationDate,2024-03-06T13:01:37-05:00
; #@! TF.GenerationSoftware,Kicad,Pcbnew,7.0.10
; #@! TF.FileFunction,Plated,1,2,PTH
FMAT,2
INCH
; #@! TA.AperFunction,Plated,PTH,ViaDrill
T1C0.0157
; #@! TA.AperFunction,Plated,PTH,ViaDrill
T2C0.0197
; #@! TA.AperFunction,Plated,PTH,ViaDrill
T3C0.0236
; #@! TA.AperFunction,Plated,PTH,ViaDrill
T4C0.0295
; #@! TA.AperFunction,Plated,PTH,ViaDrill
T5C0.0307
; #@! TA.AperFunction,Plated,PTH,ComponentDrill
T6C0.0394
; #@! TA.AperFunction,Plated,PTH,ViaDrill
T7C0.1181
; #@! TA.AperFunction,Plated,PTH,ViaDrill
T8C0.1457
; #@! TA.AperFunction,Plated,PTH,ComponentDrill
T9C0.1791
; #@! TA.AperFunction,Plated,PTH,ViaDrill
T10C0.2362
%
G90
G05
T1
X1.8Y-2.0
X1.8Y-2.6
X2.0Y-2.2
X2.0Y-2.7
X2.0043Y-3.9957
X2.0056Y-2.388
X2.0056Y-2.488
X2.1Y-3.0
X2.1Y-3.6
X2.2Y-2.0
X2.2Y-2.0969
X2.2Y-2.9
X2.2Y-3.6
X2.2Y-4.0
X2.2Y-4.3
X2.3Y-2.0
X2.3Y-3.2
X2.4Y-3.6
X2.4Y-3.7
X2.4Y-3.8
X2.4Y-3.9
X2.4Y-4.0
X2.4Y-4.1
X2.4Y-4.2
X2.5Y-2.4
X2.5Y-2.5
X2.5Y-2.6
X2.5Y-2.8
X2.5Y-3.3
X2.5Y-4.0
X2.6Y-3.2
X2.6Y-3.3
X2.6Y-3.9
X2.6Y-4.3
X2.7Y-3.1
X2.7Y-3.2
X2.7Y-3.3
X2.7Y-3.9
X2.8Y-3.1
X2.8Y-3.2
X2.8Y-3.3
X2.8Y-3.9
X2.8Y-4.2
X2.9Y-2.0
X2.9Y-2.2
X2.9Y-3.2
X2.9Y-3.3
X2.9Y-3.6
X2.9Y-3.7
X2.9Y-3.8
X2.9Y-3.9
X2.9Y-4.3
X3.0Y-2.0
X3.0Y-2.1
X3.0Y-2.3
X3.0Y-2.4
X3.0Y-2.5
X3.0Y-2.6
X3.0Y-3.3
X3.1094Y-4.2
X3.2Y-2.1
X3.2Y-2.2
X3.2Y-3.9
X3.2Y-4.2
X3.3Y-3.5008
X3.3Y-4.1
X3.4Y-2.1
X3.4Y-2.3
X3.4Y-3.6
X3.5Y-3.2
X3.5Y-3.6
X3.5Y-3.7
X3.5Y-3.8
X3.5Y-4.1
X3.5279Y-2.4719
X3.6Y-2.1
X3.6Y-3.4
X3.6Y-3.5
X3.6Y-3.9
X3.6279Y-2.2719
X3.7Y-3.6
X3.7Y-3.7
X3.7279Y-2.2719
X3.7708Y-3.7888
X3.8Y-3.5
X3.8953Y-2.0
X3.8953Y-2.1
X3.9Y-3.6
X3.9Y-4.0
X4.0457Y-3.3457
X4.1Y-2.0
X4.1Y-2.5
X4.1Y-3.7
X4.2Y-3.7
X4.2Y-3.9
X4.28Y-3.25
X4.3Y-2.3
X4.31Y-3.5
X4.3388Y-4.1764
X4.4Y-2.5
X4.505Y-3.57
X4.605Y-3.67
X4.7Y-2.3
X4.7Y-2.6
X4.725Y-3.79
X4.725Y-4.37
X4.885Y-3.83
X4.975Y-4.04
X5.065Y-4.79
X5.085Y-3.57
X5.085Y-3.83
X5.155Y-4.09
X5.3Y-2.5
X5.31Y-3.5
X5.445Y-3.57
X5.455Y-3.73
X5.455Y-3.99
X5.855Y-4.79
X7.2Y-4.4
X7.2Y-5.0
X7.2Y-5.1
X7.3Y-3.4
X7.3Y-3.5
X7.3Y-3.7
X7.3Y-3.8
X7.3Y-3.9
X7.3Y-4.0
X7.3Y-4.2
X7.3Y-4.3
X7.3Y-4.4
X7.3Y-5.0
X7.3Y-5.1
X7.4Y-3.4
X7.4Y-3.5
X7.4Y-3.6
X7.4Y-3.7
X7.4Y-3.8
X7.4Y-3.9
X7.4Y-4.0
X7.4Y-4.1
X7.4Y-4.2
X7.4Y-4.3
X7.4Y-4.4
X7.4Y-4.5
X7.4Y-4.6
X7.4Y-4.7
X7.4Y-4.8
X7.4Y-4.9
X7.4Y-5.0
X7.4Y-5.1
X7.5Y-2.4
X7.5Y-3.2
X7.5Y-3.3
X7.5Y-3.4
X7.5Y-3.5
X7.5Y-3.6
X7.5Y-3.7
X7.5Y-3.8
X7.5Y-3.9
X7.5Y-4.0
X7.5Y-4.1
X7.5Y-4.2
X7.5Y-4.3
X7.5Y-4.4
X7.5Y-4.5
X7.5Y-4.6
X7.5Y-4.7
X7.5Y-4.8
X7.5Y-4.9
X7.5Y-5.0
X7.5Y-5.1
X7.6Y-3.4
X7.6Y-3.5
X7.6Y-3.6
X7.6Y-3.7
X7.6Y-3.8
X7.6Y-3.9
X7.6Y-4.0
X7.6Y-4.1
X7.6Y-4.2
X7.6Y-4.3
X7.6Y-4.4
X7.6Y-4.5
X7.6Y-4.6
X7.6Y-4.7
X7.6Y-4.8
X7.6Y-4.9
X7.6Y-5.0
X7.6Y-5.1
X7.7Y-3.4
X7.7Y-3.5
X7.7Y-3.6
X7.7Y-3.7
X7.7Y-3.8
X7.7Y-3.9
X7.7Y-4.0
X7.7Y-4.1
X7.7Y-4.2
X7.7Y-4.3
X7.7Y-4.4
X7.7Y-4.5
X7.7Y-4.6
X7.7Y-4.7
X7.7Y-4.8
X7.7Y-4.9
X7.7Y-5.0
X7.7Y-5.1
X7.8Y-3.4
X7.8Y-3.5
X7.8Y-3.6
X7.8Y-3.7
X7.8Y-3.8
X7.8Y-3.9
X7.8Y-4.0
X7.8Y-4.1
X7.8Y-4.2
X7.8Y-4.3
X7.8Y-4.4
X7.8Y-4.5
X7.8Y-4.6
X7.8Y-4.7
X7.8Y-4.8
X7.8Y-4.9
X7.8Y-5.0
X7.8Y-5.1
X7.9Y-3.4
X7.9Y-3.5
X7.9Y-3.6
X7.9Y-3.7
X7.9Y-3.8
X7.9Y-3.9
X7.9Y-4.0
X7.9Y-4.1
X7.9Y-4.2
X7.9Y-4.3
X7.9Y-4.4
X7.9Y-4.5
X7.9Y-4.6
X7.9Y-4.7
X7.9Y-4.8
X7.9Y-4.9
X7.9Y-5.0
X7.9Y-5.1
X8.0Y-3.4
X8.0Y-3.5
X8.0Y-3.6
X8.0Y-3.7
X8.0Y-3.8
X8.0Y-3.9
X8.0Y-4.0
X8.0Y-4.1
X8.0Y-4.2
X8.0Y-4.3
X8.0Y-4.4
X8.0Y-4.5
X8.0Y-4.6
X8.0Y-4.7
X8.0Y-4.8
X8.0Y-4.9
X8.0Y-5.0
X8.0Y-5.1
X8.1Y-3.4
X8.1Y-3.5
X8.1Y-3.9
X8.1Y-4.0
X8.1Y-4.1
X8.1Y-4.2
X8.1Y-4.3
X8.1Y-4.4
X8.1Y-4.5
X8.1Y-4.6
X8.1Y-4.7
X8.1Y-4.8
X8.1Y-4.9
X8.1Y-5.0
X8.1Y-5.1
X8.2Y-3.4
X8.2Y-4.0
X8.2Y-4.1
X8.2Y-4.2
X8.2Y-4.3
X8.2Y-4.4
X8.2Y-4.5
X8.2Y-4.6
X8.2Y-4.7
X8.2Y-4.8
X8.2Y-4.9
X8.2Y-5.0
X8.2Y-5.1
X8.3Y-3.4
X8.3Y-4.0
X8.3Y-4.1
X8.3Y-4.2
X8.3Y-4.3
X8.3Y-4.4
X8.3Y-4.5
X8.3Y-4.6
X8.3Y-4.7
X8.3Y-4.8
X8.3Y-4.9
X8.3Y-5.0
X8.3Y-5.1
X8.4Y-3.4
X8.4Y-4.0
X8.4Y-4.1
X8.4Y-4.2
X8.4Y-4.3
X8.4Y-4.4
X8.4Y-4.5
X8.4Y-4.6
X8.4Y-4.7
X8.4Y-4.8
X8.4Y-4.9
X8.4Y-5.0
X8.4Y-5.1
X8.5Y-3.4
X8.5Y-3.5
X8.5Y-3.9
X8.5Y-4.0
X8.5Y-4.1
X8.5Y-4.2
X8.5Y-4.3
X8.5Y-4.4
X8.5Y-4.5
X8.5Y-4.6
X8.5Y-4.7
X8.5Y-4.8
X8.5Y-4.9
X8.5Y-5.0
X8.5Y-5.1
X8.6Y-3.4
X8.6Y-3.5
X8.6Y-3.6
X8.6Y-3.7
X8.6Y-3.8
X8.6Y-3.9
X8.6Y-4.1
X8.6Y-4.2
X8.6Y-4.3
X8.6Y-4.4
X8.6Y-4.5
X8.6Y-4.6
X8.6Y-4.7
X8.6Y-4.8
X8.6Y-4.9
X8.6Y-5.0
X8.6Y-5.1
T2
X3.2Y-2.3
X7.1479Y-3.0022
X7.1561Y-2.5
X7.2561Y-2.5
X7.3561Y-2.5
T3
X4.745Y-4.88
X4.815Y-4.81
X6.4Y-2.9
X6.5Y-2.7
X6.6Y-2.8
X6.6Y-3.1
X6.6547Y-2.9
X6.7Y-2.8
X6.9Y-3.0
X6.9099Y-2.6538
X7.0Y-2.2
X7.0Y-2.5
X7.1Y-2.4
X7.2Y-2.1
X7.2Y-2.9
X7.2Y-3.2
X7.3Y-2.1
X7.3Y-2.6
X7.3Y-2.7
X7.3Y-2.8
X7.3Y-2.9
X8.8Y-2.8
T4
X3.5Y-4.3
X3.5248Y-4.1839
X3.9Y-4.2
X3.9Y-4.3
T5
X3.2Y-3.7
X3.3Y-2.4
X3.3Y-2.5
X3.3Y-3.7
T6
X1.8303Y-2.212
X1.8303Y-2.312
X1.8303Y-2.412
X1.8303Y-2.712
X1.8303Y-2.812
X1.8303Y-2.912
X1.8303Y-3.012
X1.8303Y-3.112
X1.8303Y-3.212
X1.8303Y-3.312
X1.8303Y-3.412
X1.8313Y-3.763
X1.8313Y-3.863
X1.8313Y-3.963
X1.8313Y-4.063
X1.8313Y-4.163
X1.8313Y-4.263
X1.9303Y-2.712
X1.9303Y-2.812
X1.9303Y-2.912
X1.9303Y-3.012
X1.9303Y-3.112
X1.9303Y-3.212
X1.9303Y-3.312
X1.9303Y-3.412
X3.251Y-2.012
X3.351Y-2.012
X3.451Y-2.012
X3.551Y-2.012
X3.651Y-2.012
X3.751Y-2.012
X3.805Y-4.7798
X3.805Y-4.8798
X4.2472Y-2.012
X4.2472Y-2.112
X4.4303Y-2.012
X4.4303Y-2.112
X6.11Y-4.2198
X6.11Y-4.3198
T7
X7.1409Y-2.6898
T8
X2.6713Y-2.2671
X2.7449Y-4.0551
T9
X4.7303Y-2.112
X5.0138Y-2.112
T10
X4.965Y-3.29
M30
