%TF.GenerationSoftware,KiCad,Pcbnew,7.0.10*%
%TF.CreationDate,2024-02-28T12:36:18-05:00*%
%TF.ProjectId,PCB_Main_Sandbox,5043425f-4d61-4696-9e5f-53616e64626f,rev?*%
%TF.SameCoordinates,Original*%
%TF.FileFunction,Drillmap*%
%TF.FilePolarity,Positive*%
%FSLAX45Y45*%
G04 Gerber Fmt 4.5, Leading zero omitted, Abs format (unit mm)*
G04 Created by KiCad (PCBNEW 7.0.10) date 2024-02-28 12:36:18*
%MOMM*%
%LPD*%
G01*
G04 APERTURE LIST*
%ADD10C,0.100000*%
%ADD11C,0.200000*%
%ADD12C,0.250000*%
%ADD13C,0.400000*%
%ADD14C,0.455000*%
G04 APERTURE END LIST*
D10*
X7620000Y-762000D02*
X26924000Y-762000D01*
X26924000Y-7874000D02*
X7620000Y-7874000D01*
X26924000Y-7620000D02*
X26924000Y-7874000D01*
X26924000Y-762000D02*
X26924000Y-1016000D01*
X7620000Y-1016000D02*
X7620000Y-762000D01*
X7620000Y-7874000D02*
X7620000Y-1016000D01*
X26924000Y-1016000D02*
X26924000Y-7620000D01*
D11*
D10*
X8108000Y-1504000D02*
X8148000Y-1544000D01*
X8148000Y-1504000D02*
X8108000Y-1544000D01*
X8108000Y-6838000D02*
X8148000Y-6878000D01*
X8148000Y-6838000D02*
X8108000Y-6878000D01*
X8362000Y-2266000D02*
X8402000Y-2306000D01*
X8402000Y-2266000D02*
X8362000Y-2306000D01*
X8362000Y-4044000D02*
X8402000Y-4084000D01*
X8402000Y-4044000D02*
X8362000Y-4084000D01*
X8362000Y-6838000D02*
X8402000Y-6878000D01*
X8402000Y-6838000D02*
X8362000Y-6878000D01*
X8616000Y-4298000D02*
X8656000Y-4338000D01*
X8656000Y-4298000D02*
X8616000Y-4338000D01*
X8870000Y-1758000D02*
X8910000Y-1798000D01*
X8910000Y-1758000D02*
X8870000Y-1798000D01*
X8870000Y-2266000D02*
X8910000Y-2306000D01*
X8910000Y-2266000D02*
X8870000Y-2306000D01*
X8870000Y-3536000D02*
X8910000Y-3576000D01*
X8910000Y-3536000D02*
X8870000Y-3576000D01*
X8870000Y-4044000D02*
X8910000Y-4084000D01*
X8910000Y-4044000D02*
X8870000Y-4084000D01*
X8870000Y-6838000D02*
X8910000Y-6878000D01*
X8910000Y-6838000D02*
X8870000Y-6878000D01*
X9124000Y-1758000D02*
X9164000Y-1798000D01*
X9164000Y-1758000D02*
X9124000Y-1798000D01*
X9124000Y-2012000D02*
X9164000Y-2052000D01*
X9164000Y-2012000D02*
X9124000Y-2052000D01*
X9124000Y-3790000D02*
X9164000Y-3830000D01*
X9164000Y-3790000D02*
X9124000Y-3830000D01*
X9124000Y-5060000D02*
X9164000Y-5100000D01*
X9164000Y-5060000D02*
X9124000Y-5100000D01*
X9124000Y-5568000D02*
X9164000Y-5608000D01*
X9164000Y-5568000D02*
X9124000Y-5608000D01*
X9378000Y-1758000D02*
X9418000Y-1798000D01*
X9418000Y-1758000D02*
X9378000Y-1798000D01*
X9378000Y-4044000D02*
X9418000Y-4084000D01*
X9418000Y-4044000D02*
X9378000Y-4084000D01*
X9378000Y-7092000D02*
X9418000Y-7132000D01*
X9418000Y-7092000D02*
X9378000Y-7132000D01*
X9632000Y-1250000D02*
X9672000Y-1290000D01*
X9672000Y-1250000D02*
X9632000Y-1290000D01*
X9632000Y-1504000D02*
X9672000Y-1544000D01*
X9672000Y-1504000D02*
X9632000Y-1544000D01*
X9632000Y-2012000D02*
X9672000Y-2052000D01*
X9672000Y-2012000D02*
X9632000Y-2052000D01*
X9632000Y-2266000D02*
X9672000Y-2306000D01*
X9672000Y-2266000D02*
X9632000Y-2306000D01*
X9632000Y-4806000D02*
X9672000Y-4846000D01*
X9672000Y-4806000D02*
X9632000Y-4846000D01*
X9632000Y-5568000D02*
X9672000Y-5608000D01*
X9672000Y-5568000D02*
X9632000Y-5608000D01*
X9632000Y-6584000D02*
X9672000Y-6624000D01*
X9672000Y-6584000D02*
X9632000Y-6624000D01*
X9886000Y-1504000D02*
X9926000Y-1544000D01*
X9926000Y-1504000D02*
X9886000Y-1544000D01*
X9886000Y-2774000D02*
X9926000Y-2814000D01*
X9926000Y-2774000D02*
X9886000Y-2814000D01*
X9886000Y-5314000D02*
X9926000Y-5354000D01*
X9926000Y-5314000D02*
X9886000Y-5354000D01*
X10140000Y-5568000D02*
X10180000Y-5608000D01*
X10180000Y-5568000D02*
X10140000Y-5608000D01*
X10140000Y-5822000D02*
X10180000Y-5862000D01*
X10180000Y-5822000D02*
X10140000Y-5862000D01*
X10394000Y-5568000D02*
X10434000Y-5608000D01*
X10434000Y-5568000D02*
X10394000Y-5608000D01*
X10648000Y-2012000D02*
X10688000Y-2052000D01*
X10688000Y-2012000D02*
X10648000Y-2052000D01*
X10648000Y-5568000D02*
X10688000Y-5608000D01*
X10688000Y-5568000D02*
X10648000Y-5608000D01*
X10902000Y-1758000D02*
X10942000Y-1798000D01*
X10942000Y-1758000D02*
X10902000Y-1798000D01*
X10902000Y-2012000D02*
X10942000Y-2052000D01*
X10942000Y-2012000D02*
X10902000Y-2052000D01*
X10902000Y-2266000D02*
X10942000Y-2306000D01*
X10942000Y-2266000D02*
X10902000Y-2306000D01*
X10902000Y-2520000D02*
X10942000Y-2560000D01*
X10942000Y-2520000D02*
X10902000Y-2560000D01*
X10902000Y-2774000D02*
X10942000Y-2814000D01*
X10942000Y-2774000D02*
X10902000Y-2814000D01*
X10902000Y-5060000D02*
X10942000Y-5100000D01*
X10942000Y-5060000D02*
X10902000Y-5100000D01*
X10902000Y-5314000D02*
X10942000Y-5354000D01*
X10942000Y-5314000D02*
X10902000Y-5354000D01*
X10902000Y-5568000D02*
X10942000Y-5608000D01*
X10942000Y-5568000D02*
X10902000Y-5608000D01*
X10902000Y-7092000D02*
X10942000Y-7132000D01*
X10942000Y-7092000D02*
X10902000Y-7132000D01*
X11156000Y-1250000D02*
X11196000Y-1290000D01*
X11196000Y-1250000D02*
X11156000Y-1290000D01*
X11156000Y-5314000D02*
X11196000Y-5354000D01*
X11196000Y-5314000D02*
X11156000Y-5354000D01*
X11156000Y-6838000D02*
X11196000Y-6878000D01*
X11196000Y-6838000D02*
X11156000Y-6878000D01*
X11410000Y-1504000D02*
X11450000Y-1544000D01*
X11450000Y-1504000D02*
X11410000Y-1544000D01*
X11410000Y-2520000D02*
X11450000Y-2560000D01*
X11450000Y-2520000D02*
X11410000Y-2560000D01*
X11410000Y-2774000D02*
X11450000Y-2814000D01*
X11450000Y-2774000D02*
X11410000Y-2814000D01*
X11410000Y-5822000D02*
X11450000Y-5862000D01*
X11450000Y-5822000D02*
X11410000Y-5862000D01*
X11410000Y-6076000D02*
X11450000Y-6116000D01*
X11450000Y-6076000D02*
X11410000Y-6116000D01*
X11410000Y-7346000D02*
X11450000Y-7386000D01*
X11450000Y-7346000D02*
X11410000Y-7386000D01*
X11664000Y-5314000D02*
X11704000Y-5354000D01*
X11704000Y-5314000D02*
X11664000Y-5354000D01*
X11664000Y-5568000D02*
X11704000Y-5608000D01*
X11704000Y-5568000D02*
X11664000Y-5608000D01*
X11664000Y-6584000D02*
X11704000Y-6624000D01*
X11704000Y-6584000D02*
X11664000Y-6624000D01*
X11664000Y-7346000D02*
X11704000Y-7386000D01*
X11704000Y-7346000D02*
X11664000Y-7386000D01*
X11918000Y-4538740D02*
X11958000Y-4578740D01*
X11958000Y-4538740D02*
X11918000Y-4578740D01*
X11918000Y-6330000D02*
X11958000Y-6370000D01*
X11958000Y-6330000D02*
X11918000Y-6370000D01*
X12172000Y-6584000D02*
X12212000Y-6624000D01*
X12212000Y-6584000D02*
X12172000Y-6624000D01*
X12426000Y-4284740D02*
X12466000Y-4324740D01*
X12466000Y-4284740D02*
X12426000Y-4324740D01*
X12680000Y-2266000D02*
X12720000Y-2306000D01*
X12720000Y-2266000D02*
X12680000Y-2306000D01*
X12680000Y-3028000D02*
X12720000Y-3068000D01*
X12720000Y-3028000D02*
X12680000Y-3068000D01*
X12680000Y-4552000D02*
X12720000Y-4592000D01*
X12720000Y-4552000D02*
X12680000Y-4592000D01*
X12680000Y-4806000D02*
X12720000Y-4846000D01*
X12720000Y-4806000D02*
X12680000Y-4846000D01*
X12680000Y-5060000D02*
X12720000Y-5100000D01*
X12720000Y-5060000D02*
X12680000Y-5100000D01*
X12680000Y-5314000D02*
X12720000Y-5354000D01*
X12720000Y-5314000D02*
X12680000Y-5354000D01*
X12934000Y-4298000D02*
X12974000Y-4338000D01*
X12974000Y-4298000D02*
X12934000Y-4338000D01*
X12934000Y-4552000D02*
X12974000Y-4592000D01*
X12974000Y-4552000D02*
X12934000Y-4592000D01*
X12934000Y-5060000D02*
X12974000Y-5100000D01*
X12974000Y-5060000D02*
X12934000Y-5100000D01*
X12934000Y-5314000D02*
X12974000Y-5354000D01*
X12974000Y-5314000D02*
X12934000Y-5354000D01*
X13188000Y-3282000D02*
X13228000Y-3322000D01*
X13228000Y-3282000D02*
X13188000Y-3322000D01*
X13442000Y-1504000D02*
X13482000Y-1544000D01*
X13482000Y-1504000D02*
X13442000Y-1544000D01*
X13442000Y-2520000D02*
X13482000Y-2560000D01*
X13482000Y-2520000D02*
X13442000Y-2560000D01*
X13442000Y-4298000D02*
X13482000Y-4338000D01*
X13482000Y-4298000D02*
X13442000Y-4338000D01*
X13442000Y-4806000D02*
X13482000Y-4846000D01*
X13482000Y-4806000D02*
X13442000Y-4846000D01*
X13442000Y-5314000D02*
X13482000Y-5354000D01*
X13482000Y-5314000D02*
X13442000Y-5354000D01*
X13442000Y-5568000D02*
X13482000Y-5608000D01*
X13482000Y-5568000D02*
X13442000Y-5608000D01*
X13696000Y-1758000D02*
X13736000Y-1798000D01*
X13736000Y-1758000D02*
X13696000Y-1798000D01*
X13696000Y-6076000D02*
X13736000Y-6116000D01*
X13736000Y-6076000D02*
X13696000Y-6116000D01*
X13950000Y-1250000D02*
X13990000Y-1290000D01*
X13990000Y-1250000D02*
X13950000Y-1290000D01*
X13950000Y-4552000D02*
X13990000Y-4592000D01*
X13990000Y-4552000D02*
X13950000Y-4592000D01*
X13950000Y-5314000D02*
X13990000Y-5354000D01*
X13990000Y-5314000D02*
X13950000Y-5354000D01*
X14204000Y-2520000D02*
X14244000Y-2560000D01*
X14244000Y-2520000D02*
X14204000Y-2560000D01*
X14204000Y-5060000D02*
X14244000Y-5100000D01*
X14244000Y-5060000D02*
X14204000Y-5100000D01*
X14458000Y-2520000D02*
X14498000Y-2560000D01*
X14498000Y-2520000D02*
X14458000Y-2560000D01*
X14458000Y-3282000D02*
X14498000Y-3322000D01*
X14498000Y-3282000D02*
X14458000Y-3322000D01*
X14712000Y-2266000D02*
X14752000Y-2306000D01*
X14752000Y-2266000D02*
X14712000Y-2306000D01*
X14712000Y-2520000D02*
X14752000Y-2560000D01*
X14752000Y-2520000D02*
X14712000Y-2560000D01*
X14712000Y-2774000D02*
X14752000Y-2814000D01*
X14752000Y-2774000D02*
X14712000Y-2814000D01*
X14712000Y-3028000D02*
X14752000Y-3068000D01*
X14752000Y-3028000D02*
X14712000Y-3068000D01*
X14966000Y-4552000D02*
X15006000Y-4592000D01*
X15006000Y-4552000D02*
X14966000Y-4592000D01*
X15220000Y-4552000D02*
X15260000Y-4592000D01*
X15260000Y-4552000D02*
X15220000Y-4592000D01*
X15220000Y-4806000D02*
X15260000Y-4846000D01*
X15260000Y-4806000D02*
X15220000Y-4846000D01*
X15982000Y-2520000D02*
X16022000Y-2560000D01*
X16022000Y-2520000D02*
X15982000Y-2560000D01*
X20808000Y-3282000D02*
X20848000Y-3322000D01*
X20848000Y-3282000D02*
X20808000Y-3322000D01*
X20808000Y-3790000D02*
X20848000Y-3830000D01*
X20848000Y-3790000D02*
X20808000Y-3830000D01*
X21062000Y-3282000D02*
X21102000Y-3322000D01*
X21102000Y-3282000D02*
X21062000Y-3322000D01*
X21062000Y-3790000D02*
X21102000Y-3830000D01*
X21102000Y-3790000D02*
X21062000Y-3830000D01*
X21062000Y-4044000D02*
X21102000Y-4084000D01*
X21102000Y-4044000D02*
X21062000Y-4084000D01*
X21062000Y-4298000D02*
X21102000Y-4338000D01*
X21102000Y-4298000D02*
X21062000Y-4338000D01*
X21062000Y-4552000D02*
X21102000Y-4592000D01*
X21102000Y-4552000D02*
X21062000Y-4592000D01*
X21062000Y-4806000D02*
X21102000Y-4846000D01*
X21102000Y-4806000D02*
X21062000Y-4846000D01*
X21316000Y-3790000D02*
X21356000Y-3830000D01*
X21356000Y-3790000D02*
X21316000Y-3830000D01*
X21316000Y-4044000D02*
X21356000Y-4084000D01*
X21356000Y-4044000D02*
X21316000Y-4084000D01*
X21316000Y-4298000D02*
X21356000Y-4338000D01*
X21356000Y-4298000D02*
X21316000Y-4338000D01*
X21316000Y-4552000D02*
X21356000Y-4592000D01*
X21356000Y-4552000D02*
X21316000Y-4592000D01*
X21316000Y-4806000D02*
X21356000Y-4846000D01*
X21356000Y-4806000D02*
X21316000Y-4846000D01*
X21570000Y-3790000D02*
X21610000Y-3830000D01*
X21610000Y-3790000D02*
X21570000Y-3830000D01*
X21570000Y-4044000D02*
X21610000Y-4084000D01*
X21610000Y-4044000D02*
X21570000Y-4084000D01*
X21570000Y-4298000D02*
X21610000Y-4338000D01*
X21610000Y-4298000D02*
X21570000Y-4338000D01*
X21570000Y-4552000D02*
X21610000Y-4592000D01*
X21610000Y-4552000D02*
X21570000Y-4592000D01*
X21570000Y-4806000D02*
X21610000Y-4846000D01*
X21610000Y-4806000D02*
X21570000Y-4846000D01*
X21824000Y-3790000D02*
X21864000Y-3830000D01*
X21864000Y-3790000D02*
X21824000Y-3830000D01*
X21824000Y-4044000D02*
X21864000Y-4084000D01*
X21864000Y-4044000D02*
X21824000Y-4084000D01*
X21824000Y-4298000D02*
X21864000Y-4338000D01*
X21864000Y-4298000D02*
X21824000Y-4338000D01*
X21824000Y-4552000D02*
X21864000Y-4592000D01*
X21864000Y-4552000D02*
X21824000Y-4592000D01*
X21824000Y-4806000D02*
X21864000Y-4846000D01*
X21864000Y-4806000D02*
X21824000Y-4846000D01*
X22078000Y-3790000D02*
X22118000Y-3830000D01*
X22118000Y-3790000D02*
X22078000Y-3830000D01*
X22078000Y-4044000D02*
X22118000Y-4084000D01*
X22118000Y-4044000D02*
X22078000Y-4084000D01*
X22078000Y-4298000D02*
X22118000Y-4338000D01*
X22118000Y-4298000D02*
X22078000Y-4338000D01*
X22078000Y-4552000D02*
X22118000Y-4592000D01*
X22118000Y-4552000D02*
X22078000Y-4592000D01*
X22078000Y-4806000D02*
X22118000Y-4846000D01*
X22118000Y-4806000D02*
X22078000Y-4846000D01*
X22332000Y-3790000D02*
X22372000Y-3830000D01*
X22372000Y-3790000D02*
X22332000Y-3830000D01*
X22332000Y-4044000D02*
X22372000Y-4084000D01*
X22372000Y-4044000D02*
X22332000Y-4084000D01*
X22332000Y-4298000D02*
X22372000Y-4338000D01*
X22372000Y-4298000D02*
X22332000Y-4338000D01*
X22332000Y-4552000D02*
X22372000Y-4592000D01*
X22372000Y-4552000D02*
X22332000Y-4592000D01*
X22332000Y-4806000D02*
X22372000Y-4846000D01*
X22372000Y-4806000D02*
X22332000Y-4846000D01*
X22586000Y-3790000D02*
X22626000Y-3830000D01*
X22626000Y-3790000D02*
X22586000Y-3830000D01*
X22586000Y-4044000D02*
X22626000Y-4084000D01*
X22626000Y-4044000D02*
X22586000Y-4084000D01*
X22586000Y-4298000D02*
X22626000Y-4338000D01*
X22626000Y-4298000D02*
X22586000Y-4338000D01*
X22586000Y-4552000D02*
X22626000Y-4592000D01*
X22626000Y-4552000D02*
X22586000Y-4592000D01*
X22586000Y-4806000D02*
X22626000Y-4846000D01*
X22626000Y-4806000D02*
X22586000Y-4846000D01*
X22840000Y-3790000D02*
X22880000Y-3830000D01*
X22880000Y-3790000D02*
X22840000Y-3830000D01*
X22840000Y-4044000D02*
X22880000Y-4084000D01*
X22880000Y-4044000D02*
X22840000Y-4084000D01*
X22840000Y-4298000D02*
X22880000Y-4338000D01*
X22880000Y-4298000D02*
X22840000Y-4338000D01*
X22840000Y-4552000D02*
X22880000Y-4592000D01*
X22880000Y-4552000D02*
X22840000Y-4592000D01*
X22840000Y-4806000D02*
X22880000Y-4846000D01*
X22880000Y-4806000D02*
X22840000Y-4846000D01*
X23094000Y-3790000D02*
X23134000Y-3830000D01*
X23134000Y-3790000D02*
X23094000Y-3830000D01*
X23094000Y-4044000D02*
X23134000Y-4084000D01*
X23134000Y-4044000D02*
X23094000Y-4084000D01*
X23094000Y-4298000D02*
X23134000Y-4338000D01*
X23134000Y-4298000D02*
X23094000Y-4338000D01*
X23094000Y-4552000D02*
X23134000Y-4592000D01*
X23134000Y-4552000D02*
X23094000Y-4592000D01*
X23094000Y-4806000D02*
X23134000Y-4846000D01*
X23134000Y-4806000D02*
X23094000Y-4846000D01*
X23094000Y-5060000D02*
X23134000Y-5100000D01*
X23134000Y-5060000D02*
X23094000Y-5100000D01*
X23348000Y-3790000D02*
X23388000Y-3830000D01*
X23388000Y-3790000D02*
X23348000Y-3830000D01*
X23348000Y-4044000D02*
X23388000Y-4084000D01*
X23388000Y-4044000D02*
X23348000Y-4084000D01*
X23348000Y-4298000D02*
X23388000Y-4338000D01*
X23388000Y-4298000D02*
X23348000Y-4338000D01*
X23348000Y-4552000D02*
X23388000Y-4592000D01*
X23388000Y-4552000D02*
X23348000Y-4592000D01*
X23348000Y-4806000D02*
X23388000Y-4846000D01*
X23388000Y-4806000D02*
X23348000Y-4846000D01*
X23602000Y-1250000D02*
X23642000Y-1290000D01*
X23642000Y-1250000D02*
X23602000Y-1290000D01*
X23602000Y-3282000D02*
X23642000Y-3322000D01*
X23642000Y-3282000D02*
X23602000Y-3322000D01*
X23602000Y-3790000D02*
X23642000Y-3830000D01*
X23642000Y-3790000D02*
X23602000Y-3830000D01*
X23602000Y-4044000D02*
X23642000Y-4084000D01*
X23642000Y-4044000D02*
X23602000Y-4084000D01*
X23602000Y-4298000D02*
X23642000Y-4338000D01*
X23642000Y-4298000D02*
X23602000Y-4338000D01*
X23602000Y-4552000D02*
X23642000Y-4592000D01*
X23642000Y-4552000D02*
X23602000Y-4592000D01*
X23602000Y-4806000D02*
X23642000Y-4846000D01*
X23642000Y-4806000D02*
X23602000Y-4846000D01*
X23856000Y-1250000D02*
X23896000Y-1290000D01*
X23896000Y-1250000D02*
X23856000Y-1290000D01*
X23856000Y-4298000D02*
X23896000Y-4338000D01*
X23896000Y-4298000D02*
X23856000Y-4338000D01*
X23856000Y-4552000D02*
X23896000Y-4592000D01*
X23896000Y-4552000D02*
X23856000Y-4592000D01*
X23856000Y-4806000D02*
X23896000Y-4846000D01*
X23896000Y-4806000D02*
X23856000Y-4846000D01*
X24110000Y-4298000D02*
X24150000Y-4338000D01*
X24150000Y-4298000D02*
X24110000Y-4338000D01*
X24110000Y-4552000D02*
X24150000Y-4592000D01*
X24150000Y-4552000D02*
X24110000Y-4592000D01*
X24110000Y-4806000D02*
X24150000Y-4846000D01*
X24150000Y-4806000D02*
X24110000Y-4846000D01*
X24364000Y-4552000D02*
X24404000Y-4592000D01*
X24404000Y-4552000D02*
X24364000Y-4592000D01*
X24364000Y-4806000D02*
X24404000Y-4846000D01*
X24404000Y-4806000D02*
X24364000Y-4846000D01*
X24364000Y-5060000D02*
X24404000Y-5100000D01*
X24404000Y-5060000D02*
X24364000Y-5100000D01*
X24618000Y-4806000D02*
X24658000Y-4846000D01*
X24658000Y-4806000D02*
X24618000Y-4846000D01*
X24872000Y-4806000D02*
X24912000Y-4846000D01*
X24912000Y-4806000D02*
X24872000Y-4846000D01*
X25126000Y-5060000D02*
X25166000Y-5100000D01*
X25166000Y-5060000D02*
X25126000Y-5100000D01*
X25380000Y-1250000D02*
X25420000Y-1290000D01*
X25420000Y-1250000D02*
X25380000Y-1290000D01*
X25380000Y-1504000D02*
X25420000Y-1544000D01*
X25420000Y-1504000D02*
X25380000Y-1544000D01*
X24160000Y-1778000D02*
G75*
G03*
X24100000Y-1778000I-30000J0D01*
G01*
X24100000Y-1778000D02*
G75*
G03*
X24160000Y-1778000I30000J0D01*
G01*
X24160000Y-1968000D02*
G75*
G03*
X24100000Y-1968000I-30000J0D01*
G01*
X24100000Y-1968000D02*
G75*
G03*
X24160000Y-1968000I30000J0D01*
G01*
X24160000Y-3302000D02*
G75*
G03*
X24100000Y-3302000I-30000J0D01*
G01*
X24100000Y-3302000D02*
G75*
G03*
X24160000Y-3302000I30000J0D01*
G01*
X24305663Y-2548336D02*
G75*
G03*
X24245663Y-2548336I-30000J0D01*
G01*
X24245663Y-2548336D02*
G75*
G03*
X24305663Y-2548336I30000J0D01*
G01*
X24413193Y-2280983D02*
G75*
G03*
X24353193Y-2280983I-30000J0D01*
G01*
X24353193Y-2280983D02*
G75*
G03*
X24413193Y-2280983I30000J0D01*
G01*
X24414000Y-1524000D02*
G75*
G03*
X24354000Y-1524000I-30000J0D01*
G01*
X24354000Y-1524000D02*
G75*
G03*
X24414000Y-1524000I30000J0D01*
G01*
X24414000Y-2032000D02*
G75*
G03*
X24354000Y-2032000I-30000J0D01*
G01*
X24354000Y-2032000D02*
G75*
G03*
X24414000Y-2032000I30000J0D01*
G01*
X24414000Y-2540000D02*
G75*
G03*
X24354000Y-2540000I-30000J0D01*
G01*
X24354000Y-2540000D02*
G75*
G03*
X24414000Y-2540000I30000J0D01*
G01*
X24414000Y-3810000D02*
G75*
G03*
X24354000Y-3810000I-30000J0D01*
G01*
X24354000Y-3810000D02*
G75*
G03*
X24414000Y-3810000I30000J0D01*
G01*
X24414000Y-4064000D02*
G75*
G03*
X24354000Y-4064000I-30000J0D01*
G01*
X24354000Y-4064000D02*
G75*
G03*
X24414000Y-4064000I30000J0D01*
G01*
X24668000Y-1270000D02*
G75*
G03*
X24608000Y-1270000I-30000J0D01*
G01*
X24608000Y-1270000D02*
G75*
G03*
X24668000Y-1270000I30000J0D01*
G01*
X24668000Y-3243790D02*
G75*
G03*
X24608000Y-3243790I-30000J0D01*
G01*
X24608000Y-3243790D02*
G75*
G03*
X24668000Y-3243790I30000J0D01*
G01*
X24668099Y-1508608D02*
G75*
G03*
X24608099Y-1508608I-30000J0D01*
G01*
X24608099Y-1508608D02*
G75*
G03*
X24668099Y-1508608I30000J0D01*
G01*
X24922000Y-1524000D02*
G75*
G03*
X24862000Y-1524000I-30000J0D01*
G01*
X24862000Y-1524000D02*
G75*
G03*
X24922000Y-1524000I30000J0D01*
G01*
X24922000Y-2794000D02*
G75*
G03*
X24862000Y-2794000I-30000J0D01*
G01*
X24862000Y-2794000D02*
G75*
G03*
X24922000Y-2794000I30000J0D01*
G01*
X24922000Y-3243790D02*
G75*
G03*
X24862000Y-3243790I-30000J0D01*
G01*
X24862000Y-3243790D02*
G75*
G03*
X24922000Y-3243790I30000J0D01*
G01*
X25159630Y-2611614D02*
G75*
G03*
X25099630Y-2611614I-30000J0D01*
G01*
X25099630Y-2611614D02*
G75*
G03*
X25159630Y-2611614I30000J0D01*
G01*
X25176000Y-1778000D02*
G75*
G03*
X25116000Y-1778000I-30000J0D01*
G01*
X25116000Y-1778000D02*
G75*
G03*
X25176000Y-1778000I30000J0D01*
G01*
X25176000Y-2286000D02*
G75*
G03*
X25116000Y-2286000I-30000J0D01*
G01*
X25116000Y-2286000D02*
G75*
G03*
X25176000Y-2286000I30000J0D01*
G01*
X25430000Y-2032000D02*
G75*
G03*
X25370000Y-2032000I-30000J0D01*
G01*
X25370000Y-2032000D02*
G75*
G03*
X25430000Y-2032000I30000J0D01*
G01*
X25430000Y-2286000D02*
G75*
G03*
X25370000Y-2286000I-30000J0D01*
G01*
X25370000Y-2286000D02*
G75*
G03*
X25430000Y-2286000I30000J0D01*
G01*
X25430000Y-2540000D02*
G75*
G03*
X25370000Y-2540000I-30000J0D01*
G01*
X25370000Y-2540000D02*
G75*
G03*
X25430000Y-2540000I30000J0D01*
G01*
X25684000Y-3497790D02*
G75*
G03*
X25624000Y-3497790I-30000J0D01*
G01*
X25624000Y-3497790D02*
G75*
G03*
X25684000Y-3497790I30000J0D01*
G01*
X8636000Y-5802000D02*
X8636000Y-5882000D01*
X8596000Y-5842000D02*
X8676000Y-5842000D01*
X8636000Y-6056000D02*
X8636000Y-6136000D01*
X8596000Y-6096000D02*
X8676000Y-6096000D01*
X8636000Y-6310000D02*
X8636000Y-6390000D01*
X8596000Y-6350000D02*
X8676000Y-6350000D01*
X8890000Y-4532000D02*
X8890000Y-4612000D01*
X8850000Y-4572000D02*
X8930000Y-4572000D01*
X8890000Y-5802000D02*
X8890000Y-5882000D01*
X8850000Y-5842000D02*
X8930000Y-5842000D01*
X8890000Y-6056000D02*
X8890000Y-6136000D01*
X8850000Y-6096000D02*
X8930000Y-6096000D01*
X8890000Y-6310000D02*
X8890000Y-6390000D01*
X8850000Y-6350000D02*
X8930000Y-6350000D01*
X9906000Y-4024000D02*
X9906000Y-4104000D01*
X9866000Y-4064000D02*
X9946000Y-4064000D01*
X9906000Y-4278000D02*
X9906000Y-4358000D01*
X9866000Y-4318000D02*
X9946000Y-4318000D01*
X10160000Y-4024000D02*
X10160000Y-4104000D01*
X10120000Y-4064000D02*
X10200000Y-4064000D01*
X10170000Y-4278000D02*
X10170000Y-4358000D01*
X10130000Y-4318000D02*
X10210000Y-4318000D01*
X10414000Y-4024000D02*
X10414000Y-4104000D01*
X10374000Y-4064000D02*
X10454000Y-4064000D01*
X10668000Y-4024000D02*
X10668000Y-4104000D01*
X10628000Y-4064000D02*
X10708000Y-4064000D01*
X10668000Y-4278000D02*
X10668000Y-4358000D01*
X10628000Y-4318000D02*
X10708000Y-4318000D01*
X7909356Y-2067356D02*
X7909356Y-1996644D01*
X7838644Y-1996644D01*
X7838644Y-2067356D01*
X7909356Y-2067356D01*
X7909356Y-2321356D02*
X7909356Y-2250644D01*
X7838644Y-2250644D01*
X7838644Y-2321356D01*
X7909356Y-2321356D01*
X12989356Y-6893356D02*
X12989356Y-6822644D01*
X12918644Y-6822644D01*
X12918644Y-6893356D01*
X12989356Y-6893356D01*
X12989356Y-7188356D02*
X12989356Y-7117644D01*
X12918644Y-7117644D01*
X12918644Y-7188356D01*
X12989356Y-7188356D01*
X13751356Y-6893356D02*
X13751356Y-6822644D01*
X13680644Y-6822644D01*
X13680644Y-6893356D01*
X13751356Y-6893356D01*
X13751356Y-7147356D02*
X13751356Y-7076644D01*
X13680644Y-7076644D01*
X13680644Y-7147356D01*
X13751356Y-7147356D01*
X16037356Y-4353356D02*
X16037356Y-4282644D01*
X15966644Y-4282644D01*
X15966644Y-4353356D01*
X16037356Y-4353356D01*
X16037356Y-5877356D02*
X16037356Y-5806644D01*
X15966644Y-5806644D01*
X15966644Y-5877356D01*
X16037356Y-5877356D01*
X16037356Y-6639356D02*
X16037356Y-6568644D01*
X15966644Y-6568644D01*
X15966644Y-6639356D01*
X16037356Y-6639356D01*
X16545356Y-5115356D02*
X16545356Y-5044644D01*
X16474644Y-5044644D01*
X16474644Y-5115356D01*
X16545356Y-5115356D01*
X17053356Y-4861356D02*
X17053356Y-4790644D01*
X16982644Y-4790644D01*
X16982644Y-4861356D01*
X17053356Y-4861356D01*
X17053356Y-5877356D02*
X17053356Y-5806644D01*
X16982644Y-5806644D01*
X16982644Y-5877356D01*
X17053356Y-5877356D01*
X17561356Y-5115356D02*
X17561356Y-5044644D01*
X17490644Y-5044644D01*
X17490644Y-5115356D01*
X17561356Y-5115356D01*
X19339356Y-7147356D02*
X19339356Y-7076644D01*
X19268644Y-7076644D01*
X19268644Y-7147356D01*
X19339356Y-7147356D01*
X20101356Y-3591356D02*
X20101356Y-3520644D01*
X20030644Y-3520644D01*
X20030644Y-3591356D01*
X20101356Y-3591356D01*
X20609356Y-2321356D02*
X20609356Y-2250644D01*
X20538644Y-2250644D01*
X20538644Y-2321356D01*
X20609356Y-2321356D01*
X7802500Y-6146000D02*
X7852500Y-6096000D01*
X7802500Y-6046000D01*
X7752500Y-6096000D01*
X7802500Y-6146000D01*
X7802500Y-6400000D02*
X7852500Y-6350000D01*
X7802500Y-6300000D01*
X7752500Y-6350000D01*
X7802500Y-6400000D01*
X7802500Y-6654000D02*
X7852500Y-6604000D01*
X7802500Y-6554000D01*
X7752500Y-6604000D01*
X7802500Y-6654000D01*
X7802500Y-6908000D02*
X7852500Y-6858000D01*
X7802500Y-6808000D01*
X7752500Y-6858000D01*
X7802500Y-6908000D01*
X7802500Y-7162000D02*
X7852500Y-7112000D01*
X7802500Y-7062000D01*
X7752500Y-7112000D01*
X7802500Y-7162000D01*
X7802500Y-7416000D02*
X7852500Y-7366000D01*
X7802500Y-7316000D01*
X7752500Y-7366000D01*
X7802500Y-7416000D01*
X7874000Y-1320000D02*
X7924000Y-1270000D01*
X7874000Y-1220000D01*
X7824000Y-1270000D01*
X7874000Y-1320000D01*
X7874000Y-1574000D02*
X7924000Y-1524000D01*
X7874000Y-1474000D01*
X7824000Y-1524000D01*
X7874000Y-1574000D01*
X7874000Y-1828000D02*
X7924000Y-1778000D01*
X7874000Y-1728000D01*
X7824000Y-1778000D01*
X7874000Y-1828000D01*
X7874000Y-2844000D02*
X7924000Y-2794000D01*
X7874000Y-2744000D01*
X7824000Y-2794000D01*
X7874000Y-2844000D01*
X7874000Y-3098000D02*
X7924000Y-3048000D01*
X7874000Y-2998000D01*
X7824000Y-3048000D01*
X7874000Y-3098000D01*
X7874000Y-3352000D02*
X7924000Y-3302000D01*
X7874000Y-3252000D01*
X7824000Y-3302000D01*
X7874000Y-3352000D01*
X7874000Y-3606000D02*
X7924000Y-3556000D01*
X7874000Y-3506000D01*
X7824000Y-3556000D01*
X7874000Y-3606000D01*
X7874000Y-3860000D02*
X7924000Y-3810000D01*
X7874000Y-3760000D01*
X7824000Y-3810000D01*
X7874000Y-3860000D01*
X7874000Y-4114000D02*
X7924000Y-4064000D01*
X7874000Y-4014000D01*
X7824000Y-4064000D01*
X7874000Y-4114000D01*
X7874000Y-4368000D02*
X7924000Y-4318000D01*
X7874000Y-4268000D01*
X7824000Y-4318000D01*
X7874000Y-4368000D01*
X7874000Y-4622000D02*
X7924000Y-4572000D01*
X7874000Y-4522000D01*
X7824000Y-4572000D01*
X7874000Y-4622000D01*
X8128000Y-2844000D02*
X8178000Y-2794000D01*
X8128000Y-2744000D01*
X8078000Y-2794000D01*
X8128000Y-2844000D01*
X8128000Y-3098000D02*
X8178000Y-3048000D01*
X8128000Y-2998000D01*
X8078000Y-3048000D01*
X8128000Y-3098000D01*
X8128000Y-3352000D02*
X8178000Y-3302000D01*
X8128000Y-3252000D01*
X8078000Y-3302000D01*
X8128000Y-3352000D01*
X8128000Y-3606000D02*
X8178000Y-3556000D01*
X8128000Y-3506000D01*
X8078000Y-3556000D01*
X8128000Y-3606000D01*
X8128000Y-3860000D02*
X8178000Y-3810000D01*
X8128000Y-3760000D01*
X8078000Y-3810000D01*
X8128000Y-3860000D01*
X8128000Y-4114000D02*
X8178000Y-4064000D01*
X8128000Y-4014000D01*
X8078000Y-4064000D01*
X8128000Y-4114000D01*
X8128000Y-4368000D02*
X8178000Y-4318000D01*
X8128000Y-4268000D01*
X8078000Y-4318000D01*
X8128000Y-4368000D01*
X8128000Y-4622000D02*
X8178000Y-4572000D01*
X8128000Y-4522000D01*
X8078000Y-4572000D01*
X8128000Y-4622000D01*
X12192000Y-1320000D02*
X12242000Y-1270000D01*
X12192000Y-1220000D01*
X12142000Y-1270000D01*
X12192000Y-1320000D01*
X12446000Y-1320000D02*
X12496000Y-1270000D01*
X12446000Y-1220000D01*
X12396000Y-1270000D01*
X12446000Y-1320000D01*
X12700000Y-1320000D02*
X12750000Y-1270000D01*
X12700000Y-1220000D01*
X12650000Y-1270000D01*
X12700000Y-1320000D01*
X12954000Y-1320000D02*
X13004000Y-1270000D01*
X12954000Y-1220000D01*
X12904000Y-1270000D01*
X12954000Y-1320000D01*
X13208000Y-1320000D02*
X13258000Y-1270000D01*
X13208000Y-1220000D01*
X13158000Y-1270000D01*
X13208000Y-1320000D01*
X13462000Y-1320000D02*
X13512000Y-1270000D01*
X13462000Y-1220000D01*
X13412000Y-1270000D01*
X13462000Y-1320000D01*
X14224000Y-1320000D02*
X14274000Y-1270000D01*
X14224000Y-1220000D01*
X14174000Y-1270000D01*
X14224000Y-1320000D01*
X14224000Y-1574000D02*
X14274000Y-1524000D01*
X14224000Y-1474000D01*
X14174000Y-1524000D01*
X14224000Y-1574000D01*
X14986000Y-7162000D02*
X15036000Y-7112000D01*
X14986000Y-7062000D01*
X14936000Y-7112000D01*
X14986000Y-7162000D01*
X15240000Y-7162000D02*
X15290000Y-7112000D01*
X15240000Y-7062000D01*
X15190000Y-7112000D01*
X15240000Y-7162000D01*
X19812000Y-6908000D02*
X19862000Y-6858000D01*
X19812000Y-6808000D01*
X19762000Y-6858000D01*
X19812000Y-6908000D01*
X19812000Y-7162000D02*
X19862000Y-7112000D01*
X19812000Y-7062000D01*
X19762000Y-7112000D01*
X19812000Y-7162000D01*
D12*
X24563000Y-2005000D02*
X24813000Y-2255000D01*
X24813000Y-2005000D02*
X24563000Y-2255000D01*
X24813000Y-2130000D02*
G75*
G03*
X24563000Y-2130000I-125000J0D01*
G01*
X24563000Y-2130000D02*
G75*
G03*
X24813000Y-2130000I125000J0D01*
G01*
D13*
X9960000Y-1832000D02*
X10360000Y-2232000D01*
X10360000Y-1832000D02*
X9960000Y-2232000D01*
X10160000Y-1832000D02*
X10160000Y-2232000D01*
X9960000Y-2032000D02*
X10360000Y-2032000D01*
X10214000Y-6150000D02*
X10614000Y-6550000D01*
X10614000Y-6150000D02*
X10214000Y-6550000D01*
X10414000Y-6150000D02*
X10414000Y-6550000D01*
X10214000Y-6350000D02*
X10614000Y-6350000D01*
X16818000Y-7166000D02*
X17218000Y-7566000D01*
X17218000Y-7166000D02*
X16818000Y-7566000D01*
X17018000Y-7166000D02*
X17018000Y-7566000D01*
X16818000Y-7366000D02*
X17218000Y-7366000D01*
D14*
X14652500Y-1296500D02*
X15107500Y-1751500D01*
X15107500Y-1296500D02*
X14652500Y-1751500D01*
X15040868Y-1684868D02*
X15040868Y-1363132D01*
X14719132Y-1363132D01*
X14719132Y-1684868D01*
X15040868Y-1684868D01*
X15372500Y-1296500D02*
X15827500Y-1751500D01*
X15827500Y-1296500D02*
X15372500Y-1751500D01*
X15760868Y-1684868D02*
X15760868Y-1363132D01*
X15439132Y-1363132D01*
X15439132Y-1684868D01*
X15760868Y-1684868D01*
D11*
X7875777Y-8190484D02*
X7875777Y-7990484D01*
X7875777Y-7990484D02*
X7923396Y-7990484D01*
X7923396Y-7990484D02*
X7951967Y-8000008D01*
X7951967Y-8000008D02*
X7971015Y-8019055D01*
X7971015Y-8019055D02*
X7980539Y-8038103D01*
X7980539Y-8038103D02*
X7990062Y-8076198D01*
X7990062Y-8076198D02*
X7990062Y-8104769D01*
X7990062Y-8104769D02*
X7980539Y-8142865D01*
X7980539Y-8142865D02*
X7971015Y-8161912D01*
X7971015Y-8161912D02*
X7951967Y-8180960D01*
X7951967Y-8180960D02*
X7923396Y-8190484D01*
X7923396Y-8190484D02*
X7875777Y-8190484D01*
X8075777Y-8190484D02*
X8075777Y-8057150D01*
X8075777Y-8095246D02*
X8085301Y-8076198D01*
X8085301Y-8076198D02*
X8094824Y-8066674D01*
X8094824Y-8066674D02*
X8113872Y-8057150D01*
X8113872Y-8057150D02*
X8132920Y-8057150D01*
X8199586Y-8190484D02*
X8199586Y-8057150D01*
X8199586Y-7990484D02*
X8190062Y-8000008D01*
X8190062Y-8000008D02*
X8199586Y-8009531D01*
X8199586Y-8009531D02*
X8209110Y-8000008D01*
X8209110Y-8000008D02*
X8199586Y-7990484D01*
X8199586Y-7990484D02*
X8199586Y-8009531D01*
X8323396Y-8190484D02*
X8304348Y-8180960D01*
X8304348Y-8180960D02*
X8294824Y-8161912D01*
X8294824Y-8161912D02*
X8294824Y-7990484D01*
X8428158Y-8190484D02*
X8409110Y-8180960D01*
X8409110Y-8180960D02*
X8399586Y-8161912D01*
X8399586Y-8161912D02*
X8399586Y-7990484D01*
X8656729Y-8190484D02*
X8656729Y-7990484D01*
X8656729Y-7990484D02*
X8723396Y-8133341D01*
X8723396Y-8133341D02*
X8790063Y-7990484D01*
X8790063Y-7990484D02*
X8790063Y-8190484D01*
X8971015Y-8190484D02*
X8971015Y-8085722D01*
X8971015Y-8085722D02*
X8961491Y-8066674D01*
X8961491Y-8066674D02*
X8942444Y-8057150D01*
X8942444Y-8057150D02*
X8904348Y-8057150D01*
X8904348Y-8057150D02*
X8885301Y-8066674D01*
X8971015Y-8180960D02*
X8951967Y-8190484D01*
X8951967Y-8190484D02*
X8904348Y-8190484D01*
X8904348Y-8190484D02*
X8885301Y-8180960D01*
X8885301Y-8180960D02*
X8875777Y-8161912D01*
X8875777Y-8161912D02*
X8875777Y-8142865D01*
X8875777Y-8142865D02*
X8885301Y-8123817D01*
X8885301Y-8123817D02*
X8904348Y-8114293D01*
X8904348Y-8114293D02*
X8951967Y-8114293D01*
X8951967Y-8114293D02*
X8971015Y-8104769D01*
X9066253Y-8057150D02*
X9066253Y-8257150D01*
X9066253Y-8066674D02*
X9085301Y-8057150D01*
X9085301Y-8057150D02*
X9123396Y-8057150D01*
X9123396Y-8057150D02*
X9142444Y-8066674D01*
X9142444Y-8066674D02*
X9151967Y-8076198D01*
X9151967Y-8076198D02*
X9161491Y-8095246D01*
X9161491Y-8095246D02*
X9161491Y-8152388D01*
X9161491Y-8152388D02*
X9151967Y-8171436D01*
X9151967Y-8171436D02*
X9142444Y-8180960D01*
X9142444Y-8180960D02*
X9123396Y-8190484D01*
X9123396Y-8190484D02*
X9085301Y-8190484D01*
X9085301Y-8190484D02*
X9066253Y-8180960D01*
X9247205Y-8171436D02*
X9256729Y-8180960D01*
X9256729Y-8180960D02*
X9247205Y-8190484D01*
X9247205Y-8190484D02*
X9237682Y-8180960D01*
X9237682Y-8180960D02*
X9247205Y-8171436D01*
X9247205Y-8171436D02*
X9247205Y-8190484D01*
X9247205Y-8066674D02*
X9256729Y-8076198D01*
X9256729Y-8076198D02*
X9247205Y-8085722D01*
X9247205Y-8085722D02*
X9237682Y-8076198D01*
X9237682Y-8076198D02*
X9247205Y-8066674D01*
X9247205Y-8066674D02*
X9247205Y-8085722D01*
D10*
X7575000Y-8499000D02*
X7615000Y-8539000D01*
X7615000Y-8499000D02*
X7575000Y-8539000D01*
D11*
X7913872Y-8410484D02*
X7932920Y-8410484D01*
X7932920Y-8410484D02*
X7951967Y-8420008D01*
X7951967Y-8420008D02*
X7961491Y-8429531D01*
X7961491Y-8429531D02*
X7971015Y-8448579D01*
X7971015Y-8448579D02*
X7980539Y-8486674D01*
X7980539Y-8486674D02*
X7980539Y-8534293D01*
X7980539Y-8534293D02*
X7971015Y-8572389D01*
X7971015Y-8572389D02*
X7961491Y-8591436D01*
X7961491Y-8591436D02*
X7951967Y-8600960D01*
X7951967Y-8600960D02*
X7932920Y-8610484D01*
X7932920Y-8610484D02*
X7913872Y-8610484D01*
X7913872Y-8610484D02*
X7894824Y-8600960D01*
X7894824Y-8600960D02*
X7885301Y-8591436D01*
X7885301Y-8591436D02*
X7875777Y-8572389D01*
X7875777Y-8572389D02*
X7866253Y-8534293D01*
X7866253Y-8534293D02*
X7866253Y-8486674D01*
X7866253Y-8486674D02*
X7875777Y-8448579D01*
X7875777Y-8448579D02*
X7885301Y-8429531D01*
X7885301Y-8429531D02*
X7894824Y-8420008D01*
X7894824Y-8420008D02*
X7913872Y-8410484D01*
X8066253Y-8591436D02*
X8075777Y-8600960D01*
X8075777Y-8600960D02*
X8066253Y-8610484D01*
X8066253Y-8610484D02*
X8056729Y-8600960D01*
X8056729Y-8600960D02*
X8066253Y-8591436D01*
X8066253Y-8591436D02*
X8066253Y-8610484D01*
X8247205Y-8477150D02*
X8247205Y-8610484D01*
X8199586Y-8400960D02*
X8151967Y-8543817D01*
X8151967Y-8543817D02*
X8275777Y-8543817D01*
X8390063Y-8410484D02*
X8409110Y-8410484D01*
X8409110Y-8410484D02*
X8428158Y-8420008D01*
X8428158Y-8420008D02*
X8437682Y-8429531D01*
X8437682Y-8429531D02*
X8447205Y-8448579D01*
X8447205Y-8448579D02*
X8456729Y-8486674D01*
X8456729Y-8486674D02*
X8456729Y-8534293D01*
X8456729Y-8534293D02*
X8447205Y-8572389D01*
X8447205Y-8572389D02*
X8437682Y-8591436D01*
X8437682Y-8591436D02*
X8428158Y-8600960D01*
X8428158Y-8600960D02*
X8409110Y-8610484D01*
X8409110Y-8610484D02*
X8390063Y-8610484D01*
X8390063Y-8610484D02*
X8371015Y-8600960D01*
X8371015Y-8600960D02*
X8361491Y-8591436D01*
X8361491Y-8591436D02*
X8351967Y-8572389D01*
X8351967Y-8572389D02*
X8342443Y-8534293D01*
X8342443Y-8534293D02*
X8342443Y-8486674D01*
X8342443Y-8486674D02*
X8351967Y-8448579D01*
X8351967Y-8448579D02*
X8361491Y-8429531D01*
X8361491Y-8429531D02*
X8371015Y-8420008D01*
X8371015Y-8420008D02*
X8390063Y-8410484D01*
X8580539Y-8410484D02*
X8599586Y-8410484D01*
X8599586Y-8410484D02*
X8618634Y-8420008D01*
X8618634Y-8420008D02*
X8628158Y-8429531D01*
X8628158Y-8429531D02*
X8637682Y-8448579D01*
X8637682Y-8448579D02*
X8647205Y-8486674D01*
X8647205Y-8486674D02*
X8647205Y-8534293D01*
X8647205Y-8534293D02*
X8637682Y-8572389D01*
X8637682Y-8572389D02*
X8628158Y-8591436D01*
X8628158Y-8591436D02*
X8618634Y-8600960D01*
X8618634Y-8600960D02*
X8599586Y-8610484D01*
X8599586Y-8610484D02*
X8580539Y-8610484D01*
X8580539Y-8610484D02*
X8561491Y-8600960D01*
X8561491Y-8600960D02*
X8551967Y-8591436D01*
X8551967Y-8591436D02*
X8542444Y-8572389D01*
X8542444Y-8572389D02*
X8532920Y-8534293D01*
X8532920Y-8534293D02*
X8532920Y-8486674D01*
X8532920Y-8486674D02*
X8542444Y-8448579D01*
X8542444Y-8448579D02*
X8551967Y-8429531D01*
X8551967Y-8429531D02*
X8561491Y-8420008D01*
X8561491Y-8420008D02*
X8580539Y-8410484D01*
X8732920Y-8610484D02*
X8732920Y-8477150D01*
X8732920Y-8496198D02*
X8742444Y-8486674D01*
X8742444Y-8486674D02*
X8761491Y-8477150D01*
X8761491Y-8477150D02*
X8790063Y-8477150D01*
X8790063Y-8477150D02*
X8809110Y-8486674D01*
X8809110Y-8486674D02*
X8818634Y-8505722D01*
X8818634Y-8505722D02*
X8818634Y-8610484D01*
X8818634Y-8505722D02*
X8828158Y-8486674D01*
X8828158Y-8486674D02*
X8847205Y-8477150D01*
X8847205Y-8477150D02*
X8875777Y-8477150D01*
X8875777Y-8477150D02*
X8894825Y-8486674D01*
X8894825Y-8486674D02*
X8904348Y-8505722D01*
X8904348Y-8505722D02*
X8904348Y-8610484D01*
X8999586Y-8610484D02*
X8999586Y-8477150D01*
X8999586Y-8496198D02*
X9009110Y-8486674D01*
X9009110Y-8486674D02*
X9028158Y-8477150D01*
X9028158Y-8477150D02*
X9056729Y-8477150D01*
X9056729Y-8477150D02*
X9075777Y-8486674D01*
X9075777Y-8486674D02*
X9085301Y-8505722D01*
X9085301Y-8505722D02*
X9085301Y-8610484D01*
X9085301Y-8505722D02*
X9094825Y-8486674D01*
X9094825Y-8486674D02*
X9113872Y-8477150D01*
X9113872Y-8477150D02*
X9142444Y-8477150D01*
X9142444Y-8477150D02*
X9161491Y-8486674D01*
X9161491Y-8486674D02*
X9171015Y-8505722D01*
X9171015Y-8505722D02*
X9171015Y-8610484D01*
X9561491Y-8400960D02*
X9390063Y-8658103D01*
X9818634Y-8410484D02*
X9837682Y-8410484D01*
X9837682Y-8410484D02*
X9856729Y-8420008D01*
X9856729Y-8420008D02*
X9866253Y-8429531D01*
X9866253Y-8429531D02*
X9875777Y-8448579D01*
X9875777Y-8448579D02*
X9885301Y-8486674D01*
X9885301Y-8486674D02*
X9885301Y-8534293D01*
X9885301Y-8534293D02*
X9875777Y-8572389D01*
X9875777Y-8572389D02*
X9866253Y-8591436D01*
X9866253Y-8591436D02*
X9856729Y-8600960D01*
X9856729Y-8600960D02*
X9837682Y-8610484D01*
X9837682Y-8610484D02*
X9818634Y-8610484D01*
X9818634Y-8610484D02*
X9799587Y-8600960D01*
X9799587Y-8600960D02*
X9790063Y-8591436D01*
X9790063Y-8591436D02*
X9780539Y-8572389D01*
X9780539Y-8572389D02*
X9771015Y-8534293D01*
X9771015Y-8534293D02*
X9771015Y-8486674D01*
X9771015Y-8486674D02*
X9780539Y-8448579D01*
X9780539Y-8448579D02*
X9790063Y-8429531D01*
X9790063Y-8429531D02*
X9799587Y-8420008D01*
X9799587Y-8420008D02*
X9818634Y-8410484D01*
X9971015Y-8591436D02*
X9980539Y-8600960D01*
X9980539Y-8600960D02*
X9971015Y-8610484D01*
X9971015Y-8610484D02*
X9961491Y-8600960D01*
X9961491Y-8600960D02*
X9971015Y-8591436D01*
X9971015Y-8591436D02*
X9971015Y-8610484D01*
X10104348Y-8410484D02*
X10123396Y-8410484D01*
X10123396Y-8410484D02*
X10142444Y-8420008D01*
X10142444Y-8420008D02*
X10151968Y-8429531D01*
X10151968Y-8429531D02*
X10161491Y-8448579D01*
X10161491Y-8448579D02*
X10171015Y-8486674D01*
X10171015Y-8486674D02*
X10171015Y-8534293D01*
X10171015Y-8534293D02*
X10161491Y-8572389D01*
X10161491Y-8572389D02*
X10151968Y-8591436D01*
X10151968Y-8591436D02*
X10142444Y-8600960D01*
X10142444Y-8600960D02*
X10123396Y-8610484D01*
X10123396Y-8610484D02*
X10104348Y-8610484D01*
X10104348Y-8610484D02*
X10085301Y-8600960D01*
X10085301Y-8600960D02*
X10075777Y-8591436D01*
X10075777Y-8591436D02*
X10066253Y-8572389D01*
X10066253Y-8572389D02*
X10056729Y-8534293D01*
X10056729Y-8534293D02*
X10056729Y-8486674D01*
X10056729Y-8486674D02*
X10066253Y-8448579D01*
X10066253Y-8448579D02*
X10075777Y-8429531D01*
X10075777Y-8429531D02*
X10085301Y-8420008D01*
X10085301Y-8420008D02*
X10104348Y-8410484D01*
X10361491Y-8610484D02*
X10247206Y-8610484D01*
X10304348Y-8610484D02*
X10304348Y-8410484D01*
X10304348Y-8410484D02*
X10285301Y-8439055D01*
X10285301Y-8439055D02*
X10266253Y-8458103D01*
X10266253Y-8458103D02*
X10247206Y-8467627D01*
X10542444Y-8410484D02*
X10447206Y-8410484D01*
X10447206Y-8410484D02*
X10437682Y-8505722D01*
X10437682Y-8505722D02*
X10447206Y-8496198D01*
X10447206Y-8496198D02*
X10466253Y-8486674D01*
X10466253Y-8486674D02*
X10513872Y-8486674D01*
X10513872Y-8486674D02*
X10532920Y-8496198D01*
X10532920Y-8496198D02*
X10542444Y-8505722D01*
X10542444Y-8505722D02*
X10551968Y-8524770D01*
X10551968Y-8524770D02*
X10551968Y-8572389D01*
X10551968Y-8572389D02*
X10542444Y-8591436D01*
X10542444Y-8591436D02*
X10532920Y-8600960D01*
X10532920Y-8600960D02*
X10513872Y-8610484D01*
X10513872Y-8610484D02*
X10466253Y-8610484D01*
X10466253Y-8610484D02*
X10447206Y-8600960D01*
X10447206Y-8600960D02*
X10437682Y-8591436D01*
X10618634Y-8410484D02*
X10751968Y-8410484D01*
X10751968Y-8410484D02*
X10666253Y-8610484D01*
X10818634Y-8410484D02*
X10818634Y-8448579D01*
X10894825Y-8410484D02*
X10894825Y-8448579D01*
X11190063Y-8686674D02*
X11180539Y-8677150D01*
X11180539Y-8677150D02*
X11161491Y-8648579D01*
X11161491Y-8648579D02*
X11151968Y-8629531D01*
X11151968Y-8629531D02*
X11142444Y-8600960D01*
X11142444Y-8600960D02*
X11132920Y-8553341D01*
X11132920Y-8553341D02*
X11132920Y-8515246D01*
X11132920Y-8515246D02*
X11142444Y-8467627D01*
X11142444Y-8467627D02*
X11151968Y-8439055D01*
X11151968Y-8439055D02*
X11161491Y-8420008D01*
X11161491Y-8420008D02*
X11180539Y-8391436D01*
X11180539Y-8391436D02*
X11190063Y-8381912D01*
X11371015Y-8610484D02*
X11256729Y-8610484D01*
X11313872Y-8610484D02*
X11313872Y-8410484D01*
X11313872Y-8410484D02*
X11294825Y-8439055D01*
X11294825Y-8439055D02*
X11275777Y-8458103D01*
X11275777Y-8458103D02*
X11256729Y-8467627D01*
X11437682Y-8410484D02*
X11571015Y-8410484D01*
X11571015Y-8410484D02*
X11485301Y-8610484D01*
X11685301Y-8410484D02*
X11704349Y-8410484D01*
X11704349Y-8410484D02*
X11723396Y-8420008D01*
X11723396Y-8420008D02*
X11732920Y-8429531D01*
X11732920Y-8429531D02*
X11742444Y-8448579D01*
X11742444Y-8448579D02*
X11751968Y-8486674D01*
X11751968Y-8486674D02*
X11751968Y-8534293D01*
X11751968Y-8534293D02*
X11742444Y-8572389D01*
X11742444Y-8572389D02*
X11732920Y-8591436D01*
X11732920Y-8591436D02*
X11723396Y-8600960D01*
X11723396Y-8600960D02*
X11704349Y-8610484D01*
X11704349Y-8610484D02*
X11685301Y-8610484D01*
X11685301Y-8610484D02*
X11666253Y-8600960D01*
X11666253Y-8600960D02*
X11656729Y-8591436D01*
X11656729Y-8591436D02*
X11647206Y-8572389D01*
X11647206Y-8572389D02*
X11637682Y-8534293D01*
X11637682Y-8534293D02*
X11637682Y-8486674D01*
X11637682Y-8486674D02*
X11647206Y-8448579D01*
X11647206Y-8448579D02*
X11656729Y-8429531D01*
X11656729Y-8429531D02*
X11666253Y-8420008D01*
X11666253Y-8420008D02*
X11685301Y-8410484D01*
X11990063Y-8610484D02*
X11990063Y-8410484D01*
X12075777Y-8610484D02*
X12075777Y-8505722D01*
X12075777Y-8505722D02*
X12066253Y-8486674D01*
X12066253Y-8486674D02*
X12047206Y-8477150D01*
X12047206Y-8477150D02*
X12018634Y-8477150D01*
X12018634Y-8477150D02*
X11999587Y-8486674D01*
X11999587Y-8486674D02*
X11990063Y-8496198D01*
X12199587Y-8610484D02*
X12180539Y-8600960D01*
X12180539Y-8600960D02*
X12171015Y-8591436D01*
X12171015Y-8591436D02*
X12161491Y-8572389D01*
X12161491Y-8572389D02*
X12161491Y-8515246D01*
X12161491Y-8515246D02*
X12171015Y-8496198D01*
X12171015Y-8496198D02*
X12180539Y-8486674D01*
X12180539Y-8486674D02*
X12199587Y-8477150D01*
X12199587Y-8477150D02*
X12228158Y-8477150D01*
X12228158Y-8477150D02*
X12247206Y-8486674D01*
X12247206Y-8486674D02*
X12256730Y-8496198D01*
X12256730Y-8496198D02*
X12266253Y-8515246D01*
X12266253Y-8515246D02*
X12266253Y-8572389D01*
X12266253Y-8572389D02*
X12256730Y-8591436D01*
X12256730Y-8591436D02*
X12247206Y-8600960D01*
X12247206Y-8600960D02*
X12228158Y-8610484D01*
X12228158Y-8610484D02*
X12199587Y-8610484D01*
X12380539Y-8610484D02*
X12361491Y-8600960D01*
X12361491Y-8600960D02*
X12351968Y-8581912D01*
X12351968Y-8581912D02*
X12351968Y-8410484D01*
X12532920Y-8600960D02*
X12513872Y-8610484D01*
X12513872Y-8610484D02*
X12475777Y-8610484D01*
X12475777Y-8610484D02*
X12456730Y-8600960D01*
X12456730Y-8600960D02*
X12447206Y-8581912D01*
X12447206Y-8581912D02*
X12447206Y-8505722D01*
X12447206Y-8505722D02*
X12456730Y-8486674D01*
X12456730Y-8486674D02*
X12475777Y-8477150D01*
X12475777Y-8477150D02*
X12513872Y-8477150D01*
X12513872Y-8477150D02*
X12532920Y-8486674D01*
X12532920Y-8486674D02*
X12542444Y-8505722D01*
X12542444Y-8505722D02*
X12542444Y-8524770D01*
X12542444Y-8524770D02*
X12447206Y-8543817D01*
X12618634Y-8600960D02*
X12637682Y-8610484D01*
X12637682Y-8610484D02*
X12675777Y-8610484D01*
X12675777Y-8610484D02*
X12694825Y-8600960D01*
X12694825Y-8600960D02*
X12704349Y-8581912D01*
X12704349Y-8581912D02*
X12704349Y-8572389D01*
X12704349Y-8572389D02*
X12694825Y-8553341D01*
X12694825Y-8553341D02*
X12675777Y-8543817D01*
X12675777Y-8543817D02*
X12647206Y-8543817D01*
X12647206Y-8543817D02*
X12628158Y-8534293D01*
X12628158Y-8534293D02*
X12618634Y-8515246D01*
X12618634Y-8515246D02*
X12618634Y-8505722D01*
X12618634Y-8505722D02*
X12628158Y-8486674D01*
X12628158Y-8486674D02*
X12647206Y-8477150D01*
X12647206Y-8477150D02*
X12675777Y-8477150D01*
X12675777Y-8477150D02*
X12694825Y-8486674D01*
X12771015Y-8686674D02*
X12780539Y-8677150D01*
X12780539Y-8677150D02*
X12799587Y-8648579D01*
X12799587Y-8648579D02*
X12809111Y-8629531D01*
X12809111Y-8629531D02*
X12818634Y-8600960D01*
X12818634Y-8600960D02*
X12828158Y-8553341D01*
X12828158Y-8553341D02*
X12828158Y-8515246D01*
X12828158Y-8515246D02*
X12818634Y-8467627D01*
X12818634Y-8467627D02*
X12809111Y-8439055D01*
X12809111Y-8439055D02*
X12799587Y-8420008D01*
X12799587Y-8420008D02*
X12780539Y-8391436D01*
X12780539Y-8391436D02*
X12771015Y-8381912D01*
D10*
X7615000Y-8783000D02*
G75*
G03*
X7555000Y-8783000I-30000J0D01*
G01*
X7555000Y-8783000D02*
G75*
G03*
X7615000Y-8783000I30000J0D01*
G01*
D11*
X7913872Y-8674484D02*
X7932920Y-8674484D01*
X7932920Y-8674484D02*
X7951967Y-8684008D01*
X7951967Y-8684008D02*
X7961491Y-8693531D01*
X7961491Y-8693531D02*
X7971015Y-8712579D01*
X7971015Y-8712579D02*
X7980539Y-8750674D01*
X7980539Y-8750674D02*
X7980539Y-8798293D01*
X7980539Y-8798293D02*
X7971015Y-8836389D01*
X7971015Y-8836389D02*
X7961491Y-8855436D01*
X7961491Y-8855436D02*
X7951967Y-8864960D01*
X7951967Y-8864960D02*
X7932920Y-8874484D01*
X7932920Y-8874484D02*
X7913872Y-8874484D01*
X7913872Y-8874484D02*
X7894824Y-8864960D01*
X7894824Y-8864960D02*
X7885301Y-8855436D01*
X7885301Y-8855436D02*
X7875777Y-8836389D01*
X7875777Y-8836389D02*
X7866253Y-8798293D01*
X7866253Y-8798293D02*
X7866253Y-8750674D01*
X7866253Y-8750674D02*
X7875777Y-8712579D01*
X7875777Y-8712579D02*
X7885301Y-8693531D01*
X7885301Y-8693531D02*
X7894824Y-8684008D01*
X7894824Y-8684008D02*
X7913872Y-8674484D01*
X8066253Y-8855436D02*
X8075777Y-8864960D01*
X8075777Y-8864960D02*
X8066253Y-8874484D01*
X8066253Y-8874484D02*
X8056729Y-8864960D01*
X8056729Y-8864960D02*
X8066253Y-8855436D01*
X8066253Y-8855436D02*
X8066253Y-8874484D01*
X8247205Y-8674484D02*
X8209110Y-8674484D01*
X8209110Y-8674484D02*
X8190062Y-8684008D01*
X8190062Y-8684008D02*
X8180539Y-8693531D01*
X8180539Y-8693531D02*
X8161491Y-8722103D01*
X8161491Y-8722103D02*
X8151967Y-8760198D01*
X8151967Y-8760198D02*
X8151967Y-8836389D01*
X8151967Y-8836389D02*
X8161491Y-8855436D01*
X8161491Y-8855436D02*
X8171015Y-8864960D01*
X8171015Y-8864960D02*
X8190062Y-8874484D01*
X8190062Y-8874484D02*
X8228158Y-8874484D01*
X8228158Y-8874484D02*
X8247205Y-8864960D01*
X8247205Y-8864960D02*
X8256729Y-8855436D01*
X8256729Y-8855436D02*
X8266253Y-8836389D01*
X8266253Y-8836389D02*
X8266253Y-8788770D01*
X8266253Y-8788770D02*
X8256729Y-8769722D01*
X8256729Y-8769722D02*
X8247205Y-8760198D01*
X8247205Y-8760198D02*
X8228158Y-8750674D01*
X8228158Y-8750674D02*
X8190062Y-8750674D01*
X8190062Y-8750674D02*
X8171015Y-8760198D01*
X8171015Y-8760198D02*
X8161491Y-8769722D01*
X8161491Y-8769722D02*
X8151967Y-8788770D01*
X8390063Y-8674484D02*
X8409110Y-8674484D01*
X8409110Y-8674484D02*
X8428158Y-8684008D01*
X8428158Y-8684008D02*
X8437682Y-8693531D01*
X8437682Y-8693531D02*
X8447205Y-8712579D01*
X8447205Y-8712579D02*
X8456729Y-8750674D01*
X8456729Y-8750674D02*
X8456729Y-8798293D01*
X8456729Y-8798293D02*
X8447205Y-8836389D01*
X8447205Y-8836389D02*
X8437682Y-8855436D01*
X8437682Y-8855436D02*
X8428158Y-8864960D01*
X8428158Y-8864960D02*
X8409110Y-8874484D01*
X8409110Y-8874484D02*
X8390063Y-8874484D01*
X8390063Y-8874484D02*
X8371015Y-8864960D01*
X8371015Y-8864960D02*
X8361491Y-8855436D01*
X8361491Y-8855436D02*
X8351967Y-8836389D01*
X8351967Y-8836389D02*
X8342443Y-8798293D01*
X8342443Y-8798293D02*
X8342443Y-8750674D01*
X8342443Y-8750674D02*
X8351967Y-8712579D01*
X8351967Y-8712579D02*
X8361491Y-8693531D01*
X8361491Y-8693531D02*
X8371015Y-8684008D01*
X8371015Y-8684008D02*
X8390063Y-8674484D01*
X8580539Y-8674484D02*
X8599586Y-8674484D01*
X8599586Y-8674484D02*
X8618634Y-8684008D01*
X8618634Y-8684008D02*
X8628158Y-8693531D01*
X8628158Y-8693531D02*
X8637682Y-8712579D01*
X8637682Y-8712579D02*
X8647205Y-8750674D01*
X8647205Y-8750674D02*
X8647205Y-8798293D01*
X8647205Y-8798293D02*
X8637682Y-8836389D01*
X8637682Y-8836389D02*
X8628158Y-8855436D01*
X8628158Y-8855436D02*
X8618634Y-8864960D01*
X8618634Y-8864960D02*
X8599586Y-8874484D01*
X8599586Y-8874484D02*
X8580539Y-8874484D01*
X8580539Y-8874484D02*
X8561491Y-8864960D01*
X8561491Y-8864960D02*
X8551967Y-8855436D01*
X8551967Y-8855436D02*
X8542444Y-8836389D01*
X8542444Y-8836389D02*
X8532920Y-8798293D01*
X8532920Y-8798293D02*
X8532920Y-8750674D01*
X8532920Y-8750674D02*
X8542444Y-8712579D01*
X8542444Y-8712579D02*
X8551967Y-8693531D01*
X8551967Y-8693531D02*
X8561491Y-8684008D01*
X8561491Y-8684008D02*
X8580539Y-8674484D01*
X8732920Y-8874484D02*
X8732920Y-8741150D01*
X8732920Y-8760198D02*
X8742444Y-8750674D01*
X8742444Y-8750674D02*
X8761491Y-8741150D01*
X8761491Y-8741150D02*
X8790063Y-8741150D01*
X8790063Y-8741150D02*
X8809110Y-8750674D01*
X8809110Y-8750674D02*
X8818634Y-8769722D01*
X8818634Y-8769722D02*
X8818634Y-8874484D01*
X8818634Y-8769722D02*
X8828158Y-8750674D01*
X8828158Y-8750674D02*
X8847205Y-8741150D01*
X8847205Y-8741150D02*
X8875777Y-8741150D01*
X8875777Y-8741150D02*
X8894825Y-8750674D01*
X8894825Y-8750674D02*
X8904348Y-8769722D01*
X8904348Y-8769722D02*
X8904348Y-8874484D01*
X8999586Y-8874484D02*
X8999586Y-8741150D01*
X8999586Y-8760198D02*
X9009110Y-8750674D01*
X9009110Y-8750674D02*
X9028158Y-8741150D01*
X9028158Y-8741150D02*
X9056729Y-8741150D01*
X9056729Y-8741150D02*
X9075777Y-8750674D01*
X9075777Y-8750674D02*
X9085301Y-8769722D01*
X9085301Y-8769722D02*
X9085301Y-8874484D01*
X9085301Y-8769722D02*
X9094825Y-8750674D01*
X9094825Y-8750674D02*
X9113872Y-8741150D01*
X9113872Y-8741150D02*
X9142444Y-8741150D01*
X9142444Y-8741150D02*
X9161491Y-8750674D01*
X9161491Y-8750674D02*
X9171015Y-8769722D01*
X9171015Y-8769722D02*
X9171015Y-8874484D01*
X9561491Y-8664960D02*
X9390063Y-8922103D01*
X9818634Y-8674484D02*
X9837682Y-8674484D01*
X9837682Y-8674484D02*
X9856729Y-8684008D01*
X9856729Y-8684008D02*
X9866253Y-8693531D01*
X9866253Y-8693531D02*
X9875777Y-8712579D01*
X9875777Y-8712579D02*
X9885301Y-8750674D01*
X9885301Y-8750674D02*
X9885301Y-8798293D01*
X9885301Y-8798293D02*
X9875777Y-8836389D01*
X9875777Y-8836389D02*
X9866253Y-8855436D01*
X9866253Y-8855436D02*
X9856729Y-8864960D01*
X9856729Y-8864960D02*
X9837682Y-8874484D01*
X9837682Y-8874484D02*
X9818634Y-8874484D01*
X9818634Y-8874484D02*
X9799587Y-8864960D01*
X9799587Y-8864960D02*
X9790063Y-8855436D01*
X9790063Y-8855436D02*
X9780539Y-8836389D01*
X9780539Y-8836389D02*
X9771015Y-8798293D01*
X9771015Y-8798293D02*
X9771015Y-8750674D01*
X9771015Y-8750674D02*
X9780539Y-8712579D01*
X9780539Y-8712579D02*
X9790063Y-8693531D01*
X9790063Y-8693531D02*
X9799587Y-8684008D01*
X9799587Y-8684008D02*
X9818634Y-8674484D01*
X9971015Y-8855436D02*
X9980539Y-8864960D01*
X9980539Y-8864960D02*
X9971015Y-8874484D01*
X9971015Y-8874484D02*
X9961491Y-8864960D01*
X9961491Y-8864960D02*
X9971015Y-8855436D01*
X9971015Y-8855436D02*
X9971015Y-8874484D01*
X10104348Y-8674484D02*
X10123396Y-8674484D01*
X10123396Y-8674484D02*
X10142444Y-8684008D01*
X10142444Y-8684008D02*
X10151968Y-8693531D01*
X10151968Y-8693531D02*
X10161491Y-8712579D01*
X10161491Y-8712579D02*
X10171015Y-8750674D01*
X10171015Y-8750674D02*
X10171015Y-8798293D01*
X10171015Y-8798293D02*
X10161491Y-8836389D01*
X10161491Y-8836389D02*
X10151968Y-8855436D01*
X10151968Y-8855436D02*
X10142444Y-8864960D01*
X10142444Y-8864960D02*
X10123396Y-8874484D01*
X10123396Y-8874484D02*
X10104348Y-8874484D01*
X10104348Y-8874484D02*
X10085301Y-8864960D01*
X10085301Y-8864960D02*
X10075777Y-8855436D01*
X10075777Y-8855436D02*
X10066253Y-8836389D01*
X10066253Y-8836389D02*
X10056729Y-8798293D01*
X10056729Y-8798293D02*
X10056729Y-8750674D01*
X10056729Y-8750674D02*
X10066253Y-8712579D01*
X10066253Y-8712579D02*
X10075777Y-8693531D01*
X10075777Y-8693531D02*
X10085301Y-8684008D01*
X10085301Y-8684008D02*
X10104348Y-8674484D01*
X10247206Y-8693531D02*
X10256729Y-8684008D01*
X10256729Y-8684008D02*
X10275777Y-8674484D01*
X10275777Y-8674484D02*
X10323396Y-8674484D01*
X10323396Y-8674484D02*
X10342444Y-8684008D01*
X10342444Y-8684008D02*
X10351968Y-8693531D01*
X10351968Y-8693531D02*
X10361491Y-8712579D01*
X10361491Y-8712579D02*
X10361491Y-8731627D01*
X10361491Y-8731627D02*
X10351968Y-8760198D01*
X10351968Y-8760198D02*
X10237682Y-8874484D01*
X10237682Y-8874484D02*
X10361491Y-8874484D01*
X10428158Y-8674484D02*
X10551968Y-8674484D01*
X10551968Y-8674484D02*
X10485301Y-8750674D01*
X10485301Y-8750674D02*
X10513872Y-8750674D01*
X10513872Y-8750674D02*
X10532920Y-8760198D01*
X10532920Y-8760198D02*
X10542444Y-8769722D01*
X10542444Y-8769722D02*
X10551968Y-8788770D01*
X10551968Y-8788770D02*
X10551968Y-8836389D01*
X10551968Y-8836389D02*
X10542444Y-8855436D01*
X10542444Y-8855436D02*
X10532920Y-8864960D01*
X10532920Y-8864960D02*
X10513872Y-8874484D01*
X10513872Y-8874484D02*
X10456729Y-8874484D01*
X10456729Y-8874484D02*
X10437682Y-8864960D01*
X10437682Y-8864960D02*
X10428158Y-8855436D01*
X10723396Y-8674484D02*
X10685301Y-8674484D01*
X10685301Y-8674484D02*
X10666253Y-8684008D01*
X10666253Y-8684008D02*
X10656729Y-8693531D01*
X10656729Y-8693531D02*
X10637682Y-8722103D01*
X10637682Y-8722103D02*
X10628158Y-8760198D01*
X10628158Y-8760198D02*
X10628158Y-8836389D01*
X10628158Y-8836389D02*
X10637682Y-8855436D01*
X10637682Y-8855436D02*
X10647206Y-8864960D01*
X10647206Y-8864960D02*
X10666253Y-8874484D01*
X10666253Y-8874484D02*
X10704349Y-8874484D01*
X10704349Y-8874484D02*
X10723396Y-8864960D01*
X10723396Y-8864960D02*
X10732920Y-8855436D01*
X10732920Y-8855436D02*
X10742444Y-8836389D01*
X10742444Y-8836389D02*
X10742444Y-8788770D01*
X10742444Y-8788770D02*
X10732920Y-8769722D01*
X10732920Y-8769722D02*
X10723396Y-8760198D01*
X10723396Y-8760198D02*
X10704349Y-8750674D01*
X10704349Y-8750674D02*
X10666253Y-8750674D01*
X10666253Y-8750674D02*
X10647206Y-8760198D01*
X10647206Y-8760198D02*
X10637682Y-8769722D01*
X10637682Y-8769722D02*
X10628158Y-8788770D01*
X10818634Y-8674484D02*
X10818634Y-8712579D01*
X10894825Y-8674484D02*
X10894825Y-8712579D01*
X11190063Y-8950674D02*
X11180539Y-8941150D01*
X11180539Y-8941150D02*
X11161491Y-8912579D01*
X11161491Y-8912579D02*
X11151968Y-8893531D01*
X11151968Y-8893531D02*
X11142444Y-8864960D01*
X11142444Y-8864960D02*
X11132920Y-8817341D01*
X11132920Y-8817341D02*
X11132920Y-8779246D01*
X11132920Y-8779246D02*
X11142444Y-8731627D01*
X11142444Y-8731627D02*
X11151968Y-8703055D01*
X11151968Y-8703055D02*
X11161491Y-8684008D01*
X11161491Y-8684008D02*
X11180539Y-8655436D01*
X11180539Y-8655436D02*
X11190063Y-8645912D01*
X11256729Y-8693531D02*
X11266253Y-8684008D01*
X11266253Y-8684008D02*
X11285301Y-8674484D01*
X11285301Y-8674484D02*
X11332920Y-8674484D01*
X11332920Y-8674484D02*
X11351968Y-8684008D01*
X11351968Y-8684008D02*
X11361491Y-8693531D01*
X11361491Y-8693531D02*
X11371015Y-8712579D01*
X11371015Y-8712579D02*
X11371015Y-8731627D01*
X11371015Y-8731627D02*
X11361491Y-8760198D01*
X11361491Y-8760198D02*
X11247206Y-8874484D01*
X11247206Y-8874484D02*
X11371015Y-8874484D01*
X11437682Y-8674484D02*
X11561491Y-8674484D01*
X11561491Y-8674484D02*
X11494825Y-8750674D01*
X11494825Y-8750674D02*
X11523396Y-8750674D01*
X11523396Y-8750674D02*
X11542444Y-8760198D01*
X11542444Y-8760198D02*
X11551968Y-8769722D01*
X11551968Y-8769722D02*
X11561491Y-8788770D01*
X11561491Y-8788770D02*
X11561491Y-8836389D01*
X11561491Y-8836389D02*
X11551968Y-8855436D01*
X11551968Y-8855436D02*
X11542444Y-8864960D01*
X11542444Y-8864960D02*
X11523396Y-8874484D01*
X11523396Y-8874484D02*
X11466253Y-8874484D01*
X11466253Y-8874484D02*
X11447206Y-8864960D01*
X11447206Y-8864960D02*
X11437682Y-8855436D01*
X11799587Y-8874484D02*
X11799587Y-8674484D01*
X11885301Y-8874484D02*
X11885301Y-8769722D01*
X11885301Y-8769722D02*
X11875777Y-8750674D01*
X11875777Y-8750674D02*
X11856730Y-8741150D01*
X11856730Y-8741150D02*
X11828158Y-8741150D01*
X11828158Y-8741150D02*
X11809110Y-8750674D01*
X11809110Y-8750674D02*
X11799587Y-8760198D01*
X12009110Y-8874484D02*
X11990063Y-8864960D01*
X11990063Y-8864960D02*
X11980539Y-8855436D01*
X11980539Y-8855436D02*
X11971015Y-8836389D01*
X11971015Y-8836389D02*
X11971015Y-8779246D01*
X11971015Y-8779246D02*
X11980539Y-8760198D01*
X11980539Y-8760198D02*
X11990063Y-8750674D01*
X11990063Y-8750674D02*
X12009110Y-8741150D01*
X12009110Y-8741150D02*
X12037682Y-8741150D01*
X12037682Y-8741150D02*
X12056730Y-8750674D01*
X12056730Y-8750674D02*
X12066253Y-8760198D01*
X12066253Y-8760198D02*
X12075777Y-8779246D01*
X12075777Y-8779246D02*
X12075777Y-8836389D01*
X12075777Y-8836389D02*
X12066253Y-8855436D01*
X12066253Y-8855436D02*
X12056730Y-8864960D01*
X12056730Y-8864960D02*
X12037682Y-8874484D01*
X12037682Y-8874484D02*
X12009110Y-8874484D01*
X12190063Y-8874484D02*
X12171015Y-8864960D01*
X12171015Y-8864960D02*
X12161491Y-8845912D01*
X12161491Y-8845912D02*
X12161491Y-8674484D01*
X12342444Y-8864960D02*
X12323396Y-8874484D01*
X12323396Y-8874484D02*
X12285301Y-8874484D01*
X12285301Y-8874484D02*
X12266253Y-8864960D01*
X12266253Y-8864960D02*
X12256730Y-8845912D01*
X12256730Y-8845912D02*
X12256730Y-8769722D01*
X12256730Y-8769722D02*
X12266253Y-8750674D01*
X12266253Y-8750674D02*
X12285301Y-8741150D01*
X12285301Y-8741150D02*
X12323396Y-8741150D01*
X12323396Y-8741150D02*
X12342444Y-8750674D01*
X12342444Y-8750674D02*
X12351968Y-8769722D01*
X12351968Y-8769722D02*
X12351968Y-8788770D01*
X12351968Y-8788770D02*
X12256730Y-8807817D01*
X12428158Y-8864960D02*
X12447206Y-8874484D01*
X12447206Y-8874484D02*
X12485301Y-8874484D01*
X12485301Y-8874484D02*
X12504349Y-8864960D01*
X12504349Y-8864960D02*
X12513872Y-8845912D01*
X12513872Y-8845912D02*
X12513872Y-8836389D01*
X12513872Y-8836389D02*
X12504349Y-8817341D01*
X12504349Y-8817341D02*
X12485301Y-8807817D01*
X12485301Y-8807817D02*
X12456730Y-8807817D01*
X12456730Y-8807817D02*
X12437682Y-8798293D01*
X12437682Y-8798293D02*
X12428158Y-8779246D01*
X12428158Y-8779246D02*
X12428158Y-8769722D01*
X12428158Y-8769722D02*
X12437682Y-8750674D01*
X12437682Y-8750674D02*
X12456730Y-8741150D01*
X12456730Y-8741150D02*
X12485301Y-8741150D01*
X12485301Y-8741150D02*
X12504349Y-8750674D01*
X12580539Y-8950674D02*
X12590063Y-8941150D01*
X12590063Y-8941150D02*
X12609111Y-8912579D01*
X12609111Y-8912579D02*
X12618634Y-8893531D01*
X12618634Y-8893531D02*
X12628158Y-8864960D01*
X12628158Y-8864960D02*
X12637682Y-8817341D01*
X12637682Y-8817341D02*
X12637682Y-8779246D01*
X12637682Y-8779246D02*
X12628158Y-8731627D01*
X12628158Y-8731627D02*
X12618634Y-8703055D01*
X12618634Y-8703055D02*
X12609111Y-8684008D01*
X12609111Y-8684008D02*
X12590063Y-8655436D01*
X12590063Y-8655436D02*
X12580539Y-8645912D01*
D10*
X7575000Y-9007000D02*
X7575000Y-9087000D01*
X7535000Y-9047000D02*
X7615000Y-9047000D01*
D11*
X7913872Y-8938484D02*
X7932920Y-8938484D01*
X7932920Y-8938484D02*
X7951967Y-8948008D01*
X7951967Y-8948008D02*
X7961491Y-8957531D01*
X7961491Y-8957531D02*
X7971015Y-8976579D01*
X7971015Y-8976579D02*
X7980539Y-9014674D01*
X7980539Y-9014674D02*
X7980539Y-9062293D01*
X7980539Y-9062293D02*
X7971015Y-9100389D01*
X7971015Y-9100389D02*
X7961491Y-9119436D01*
X7961491Y-9119436D02*
X7951967Y-9128960D01*
X7951967Y-9128960D02*
X7932920Y-9138484D01*
X7932920Y-9138484D02*
X7913872Y-9138484D01*
X7913872Y-9138484D02*
X7894824Y-9128960D01*
X7894824Y-9128960D02*
X7885301Y-9119436D01*
X7885301Y-9119436D02*
X7875777Y-9100389D01*
X7875777Y-9100389D02*
X7866253Y-9062293D01*
X7866253Y-9062293D02*
X7866253Y-9014674D01*
X7866253Y-9014674D02*
X7875777Y-8976579D01*
X7875777Y-8976579D02*
X7885301Y-8957531D01*
X7885301Y-8957531D02*
X7894824Y-8948008D01*
X7894824Y-8948008D02*
X7913872Y-8938484D01*
X8066253Y-9119436D02*
X8075777Y-9128960D01*
X8075777Y-9128960D02*
X8066253Y-9138484D01*
X8066253Y-9138484D02*
X8056729Y-9128960D01*
X8056729Y-9128960D02*
X8066253Y-9119436D01*
X8066253Y-9119436D02*
X8066253Y-9138484D01*
X8190062Y-9024198D02*
X8171015Y-9014674D01*
X8171015Y-9014674D02*
X8161491Y-9005150D01*
X8161491Y-9005150D02*
X8151967Y-8986103D01*
X8151967Y-8986103D02*
X8151967Y-8976579D01*
X8151967Y-8976579D02*
X8161491Y-8957531D01*
X8161491Y-8957531D02*
X8171015Y-8948008D01*
X8171015Y-8948008D02*
X8190062Y-8938484D01*
X8190062Y-8938484D02*
X8228158Y-8938484D01*
X8228158Y-8938484D02*
X8247205Y-8948008D01*
X8247205Y-8948008D02*
X8256729Y-8957531D01*
X8256729Y-8957531D02*
X8266253Y-8976579D01*
X8266253Y-8976579D02*
X8266253Y-8986103D01*
X8266253Y-8986103D02*
X8256729Y-9005150D01*
X8256729Y-9005150D02*
X8247205Y-9014674D01*
X8247205Y-9014674D02*
X8228158Y-9024198D01*
X8228158Y-9024198D02*
X8190062Y-9024198D01*
X8190062Y-9024198D02*
X8171015Y-9033722D01*
X8171015Y-9033722D02*
X8161491Y-9043246D01*
X8161491Y-9043246D02*
X8151967Y-9062293D01*
X8151967Y-9062293D02*
X8151967Y-9100389D01*
X8151967Y-9100389D02*
X8161491Y-9119436D01*
X8161491Y-9119436D02*
X8171015Y-9128960D01*
X8171015Y-9128960D02*
X8190062Y-9138484D01*
X8190062Y-9138484D02*
X8228158Y-9138484D01*
X8228158Y-9138484D02*
X8247205Y-9128960D01*
X8247205Y-9128960D02*
X8256729Y-9119436D01*
X8256729Y-9119436D02*
X8266253Y-9100389D01*
X8266253Y-9100389D02*
X8266253Y-9062293D01*
X8266253Y-9062293D02*
X8256729Y-9043246D01*
X8256729Y-9043246D02*
X8247205Y-9033722D01*
X8247205Y-9033722D02*
X8228158Y-9024198D01*
X8390063Y-8938484D02*
X8409110Y-8938484D01*
X8409110Y-8938484D02*
X8428158Y-8948008D01*
X8428158Y-8948008D02*
X8437682Y-8957531D01*
X8437682Y-8957531D02*
X8447205Y-8976579D01*
X8447205Y-8976579D02*
X8456729Y-9014674D01*
X8456729Y-9014674D02*
X8456729Y-9062293D01*
X8456729Y-9062293D02*
X8447205Y-9100389D01*
X8447205Y-9100389D02*
X8437682Y-9119436D01*
X8437682Y-9119436D02*
X8428158Y-9128960D01*
X8428158Y-9128960D02*
X8409110Y-9138484D01*
X8409110Y-9138484D02*
X8390063Y-9138484D01*
X8390063Y-9138484D02*
X8371015Y-9128960D01*
X8371015Y-9128960D02*
X8361491Y-9119436D01*
X8361491Y-9119436D02*
X8351967Y-9100389D01*
X8351967Y-9100389D02*
X8342443Y-9062293D01*
X8342443Y-9062293D02*
X8342443Y-9014674D01*
X8342443Y-9014674D02*
X8351967Y-8976579D01*
X8351967Y-8976579D02*
X8361491Y-8957531D01*
X8361491Y-8957531D02*
X8371015Y-8948008D01*
X8371015Y-8948008D02*
X8390063Y-8938484D01*
X8580539Y-8938484D02*
X8599586Y-8938484D01*
X8599586Y-8938484D02*
X8618634Y-8948008D01*
X8618634Y-8948008D02*
X8628158Y-8957531D01*
X8628158Y-8957531D02*
X8637682Y-8976579D01*
X8637682Y-8976579D02*
X8647205Y-9014674D01*
X8647205Y-9014674D02*
X8647205Y-9062293D01*
X8647205Y-9062293D02*
X8637682Y-9100389D01*
X8637682Y-9100389D02*
X8628158Y-9119436D01*
X8628158Y-9119436D02*
X8618634Y-9128960D01*
X8618634Y-9128960D02*
X8599586Y-9138484D01*
X8599586Y-9138484D02*
X8580539Y-9138484D01*
X8580539Y-9138484D02*
X8561491Y-9128960D01*
X8561491Y-9128960D02*
X8551967Y-9119436D01*
X8551967Y-9119436D02*
X8542444Y-9100389D01*
X8542444Y-9100389D02*
X8532920Y-9062293D01*
X8532920Y-9062293D02*
X8532920Y-9014674D01*
X8532920Y-9014674D02*
X8542444Y-8976579D01*
X8542444Y-8976579D02*
X8551967Y-8957531D01*
X8551967Y-8957531D02*
X8561491Y-8948008D01*
X8561491Y-8948008D02*
X8580539Y-8938484D01*
X8732920Y-9138484D02*
X8732920Y-9005150D01*
X8732920Y-9024198D02*
X8742444Y-9014674D01*
X8742444Y-9014674D02*
X8761491Y-9005150D01*
X8761491Y-9005150D02*
X8790063Y-9005150D01*
X8790063Y-9005150D02*
X8809110Y-9014674D01*
X8809110Y-9014674D02*
X8818634Y-9033722D01*
X8818634Y-9033722D02*
X8818634Y-9138484D01*
X8818634Y-9033722D02*
X8828158Y-9014674D01*
X8828158Y-9014674D02*
X8847205Y-9005150D01*
X8847205Y-9005150D02*
X8875777Y-9005150D01*
X8875777Y-9005150D02*
X8894825Y-9014674D01*
X8894825Y-9014674D02*
X8904348Y-9033722D01*
X8904348Y-9033722D02*
X8904348Y-9138484D01*
X8999586Y-9138484D02*
X8999586Y-9005150D01*
X8999586Y-9024198D02*
X9009110Y-9014674D01*
X9009110Y-9014674D02*
X9028158Y-9005150D01*
X9028158Y-9005150D02*
X9056729Y-9005150D01*
X9056729Y-9005150D02*
X9075777Y-9014674D01*
X9075777Y-9014674D02*
X9085301Y-9033722D01*
X9085301Y-9033722D02*
X9085301Y-9138484D01*
X9085301Y-9033722D02*
X9094825Y-9014674D01*
X9094825Y-9014674D02*
X9113872Y-9005150D01*
X9113872Y-9005150D02*
X9142444Y-9005150D01*
X9142444Y-9005150D02*
X9161491Y-9014674D01*
X9161491Y-9014674D02*
X9171015Y-9033722D01*
X9171015Y-9033722D02*
X9171015Y-9138484D01*
X9561491Y-8928960D02*
X9390063Y-9186103D01*
X9818634Y-8938484D02*
X9837682Y-8938484D01*
X9837682Y-8938484D02*
X9856729Y-8948008D01*
X9856729Y-8948008D02*
X9866253Y-8957531D01*
X9866253Y-8957531D02*
X9875777Y-8976579D01*
X9875777Y-8976579D02*
X9885301Y-9014674D01*
X9885301Y-9014674D02*
X9885301Y-9062293D01*
X9885301Y-9062293D02*
X9875777Y-9100389D01*
X9875777Y-9100389D02*
X9866253Y-9119436D01*
X9866253Y-9119436D02*
X9856729Y-9128960D01*
X9856729Y-9128960D02*
X9837682Y-9138484D01*
X9837682Y-9138484D02*
X9818634Y-9138484D01*
X9818634Y-9138484D02*
X9799587Y-9128960D01*
X9799587Y-9128960D02*
X9790063Y-9119436D01*
X9790063Y-9119436D02*
X9780539Y-9100389D01*
X9780539Y-9100389D02*
X9771015Y-9062293D01*
X9771015Y-9062293D02*
X9771015Y-9014674D01*
X9771015Y-9014674D02*
X9780539Y-8976579D01*
X9780539Y-8976579D02*
X9790063Y-8957531D01*
X9790063Y-8957531D02*
X9799587Y-8948008D01*
X9799587Y-8948008D02*
X9818634Y-8938484D01*
X9971015Y-9119436D02*
X9980539Y-9128960D01*
X9980539Y-9128960D02*
X9971015Y-9138484D01*
X9971015Y-9138484D02*
X9961491Y-9128960D01*
X9961491Y-9128960D02*
X9971015Y-9119436D01*
X9971015Y-9119436D02*
X9971015Y-9138484D01*
X10104348Y-8938484D02*
X10123396Y-8938484D01*
X10123396Y-8938484D02*
X10142444Y-8948008D01*
X10142444Y-8948008D02*
X10151968Y-8957531D01*
X10151968Y-8957531D02*
X10161491Y-8976579D01*
X10161491Y-8976579D02*
X10171015Y-9014674D01*
X10171015Y-9014674D02*
X10171015Y-9062293D01*
X10171015Y-9062293D02*
X10161491Y-9100389D01*
X10161491Y-9100389D02*
X10151968Y-9119436D01*
X10151968Y-9119436D02*
X10142444Y-9128960D01*
X10142444Y-9128960D02*
X10123396Y-9138484D01*
X10123396Y-9138484D02*
X10104348Y-9138484D01*
X10104348Y-9138484D02*
X10085301Y-9128960D01*
X10085301Y-9128960D02*
X10075777Y-9119436D01*
X10075777Y-9119436D02*
X10066253Y-9100389D01*
X10066253Y-9100389D02*
X10056729Y-9062293D01*
X10056729Y-9062293D02*
X10056729Y-9014674D01*
X10056729Y-9014674D02*
X10066253Y-8976579D01*
X10066253Y-8976579D02*
X10075777Y-8957531D01*
X10075777Y-8957531D02*
X10085301Y-8948008D01*
X10085301Y-8948008D02*
X10104348Y-8938484D01*
X10237682Y-8938484D02*
X10361491Y-8938484D01*
X10361491Y-8938484D02*
X10294825Y-9014674D01*
X10294825Y-9014674D02*
X10323396Y-9014674D01*
X10323396Y-9014674D02*
X10342444Y-9024198D01*
X10342444Y-9024198D02*
X10351968Y-9033722D01*
X10351968Y-9033722D02*
X10361491Y-9052770D01*
X10361491Y-9052770D02*
X10361491Y-9100389D01*
X10361491Y-9100389D02*
X10351968Y-9119436D01*
X10351968Y-9119436D02*
X10342444Y-9128960D01*
X10342444Y-9128960D02*
X10323396Y-9138484D01*
X10323396Y-9138484D02*
X10266253Y-9138484D01*
X10266253Y-9138484D02*
X10247206Y-9128960D01*
X10247206Y-9128960D02*
X10237682Y-9119436D01*
X10551968Y-9138484D02*
X10437682Y-9138484D01*
X10494825Y-9138484D02*
X10494825Y-8938484D01*
X10494825Y-8938484D02*
X10475777Y-8967055D01*
X10475777Y-8967055D02*
X10456729Y-8986103D01*
X10456729Y-8986103D02*
X10437682Y-8995627D01*
X10732920Y-8938484D02*
X10637682Y-8938484D01*
X10637682Y-8938484D02*
X10628158Y-9033722D01*
X10628158Y-9033722D02*
X10637682Y-9024198D01*
X10637682Y-9024198D02*
X10656729Y-9014674D01*
X10656729Y-9014674D02*
X10704349Y-9014674D01*
X10704349Y-9014674D02*
X10723396Y-9024198D01*
X10723396Y-9024198D02*
X10732920Y-9033722D01*
X10732920Y-9033722D02*
X10742444Y-9052770D01*
X10742444Y-9052770D02*
X10742444Y-9100389D01*
X10742444Y-9100389D02*
X10732920Y-9119436D01*
X10732920Y-9119436D02*
X10723396Y-9128960D01*
X10723396Y-9128960D02*
X10704349Y-9138484D01*
X10704349Y-9138484D02*
X10656729Y-9138484D01*
X10656729Y-9138484D02*
X10637682Y-9128960D01*
X10637682Y-9128960D02*
X10628158Y-9119436D01*
X10818634Y-8938484D02*
X10818634Y-8976579D01*
X10894825Y-8938484D02*
X10894825Y-8976579D01*
X11190063Y-9214674D02*
X11180539Y-9205150D01*
X11180539Y-9205150D02*
X11161491Y-9176579D01*
X11161491Y-9176579D02*
X11151968Y-9157531D01*
X11151968Y-9157531D02*
X11142444Y-9128960D01*
X11142444Y-9128960D02*
X11132920Y-9081341D01*
X11132920Y-9081341D02*
X11132920Y-9043246D01*
X11132920Y-9043246D02*
X11142444Y-8995627D01*
X11142444Y-8995627D02*
X11151968Y-8967055D01*
X11151968Y-8967055D02*
X11161491Y-8948008D01*
X11161491Y-8948008D02*
X11180539Y-8919436D01*
X11180539Y-8919436D02*
X11190063Y-8909912D01*
X11371015Y-9138484D02*
X11256729Y-9138484D01*
X11313872Y-9138484D02*
X11313872Y-8938484D01*
X11313872Y-8938484D02*
X11294825Y-8967055D01*
X11294825Y-8967055D02*
X11275777Y-8986103D01*
X11275777Y-8986103D02*
X11256729Y-8995627D01*
X11542444Y-9005150D02*
X11542444Y-9138484D01*
X11494825Y-8928960D02*
X11447206Y-9071817D01*
X11447206Y-9071817D02*
X11571015Y-9071817D01*
X11799587Y-9138484D02*
X11799587Y-8938484D01*
X11885301Y-9138484D02*
X11885301Y-9033722D01*
X11885301Y-9033722D02*
X11875777Y-9014674D01*
X11875777Y-9014674D02*
X11856730Y-9005150D01*
X11856730Y-9005150D02*
X11828158Y-9005150D01*
X11828158Y-9005150D02*
X11809110Y-9014674D01*
X11809110Y-9014674D02*
X11799587Y-9024198D01*
X12009110Y-9138484D02*
X11990063Y-9128960D01*
X11990063Y-9128960D02*
X11980539Y-9119436D01*
X11980539Y-9119436D02*
X11971015Y-9100389D01*
X11971015Y-9100389D02*
X11971015Y-9043246D01*
X11971015Y-9043246D02*
X11980539Y-9024198D01*
X11980539Y-9024198D02*
X11990063Y-9014674D01*
X11990063Y-9014674D02*
X12009110Y-9005150D01*
X12009110Y-9005150D02*
X12037682Y-9005150D01*
X12037682Y-9005150D02*
X12056730Y-9014674D01*
X12056730Y-9014674D02*
X12066253Y-9024198D01*
X12066253Y-9024198D02*
X12075777Y-9043246D01*
X12075777Y-9043246D02*
X12075777Y-9100389D01*
X12075777Y-9100389D02*
X12066253Y-9119436D01*
X12066253Y-9119436D02*
X12056730Y-9128960D01*
X12056730Y-9128960D02*
X12037682Y-9138484D01*
X12037682Y-9138484D02*
X12009110Y-9138484D01*
X12190063Y-9138484D02*
X12171015Y-9128960D01*
X12171015Y-9128960D02*
X12161491Y-9109912D01*
X12161491Y-9109912D02*
X12161491Y-8938484D01*
X12342444Y-9128960D02*
X12323396Y-9138484D01*
X12323396Y-9138484D02*
X12285301Y-9138484D01*
X12285301Y-9138484D02*
X12266253Y-9128960D01*
X12266253Y-9128960D02*
X12256730Y-9109912D01*
X12256730Y-9109912D02*
X12256730Y-9033722D01*
X12256730Y-9033722D02*
X12266253Y-9014674D01*
X12266253Y-9014674D02*
X12285301Y-9005150D01*
X12285301Y-9005150D02*
X12323396Y-9005150D01*
X12323396Y-9005150D02*
X12342444Y-9014674D01*
X12342444Y-9014674D02*
X12351968Y-9033722D01*
X12351968Y-9033722D02*
X12351968Y-9052770D01*
X12351968Y-9052770D02*
X12256730Y-9071817D01*
X12428158Y-9128960D02*
X12447206Y-9138484D01*
X12447206Y-9138484D02*
X12485301Y-9138484D01*
X12485301Y-9138484D02*
X12504349Y-9128960D01*
X12504349Y-9128960D02*
X12513872Y-9109912D01*
X12513872Y-9109912D02*
X12513872Y-9100389D01*
X12513872Y-9100389D02*
X12504349Y-9081341D01*
X12504349Y-9081341D02*
X12485301Y-9071817D01*
X12485301Y-9071817D02*
X12456730Y-9071817D01*
X12456730Y-9071817D02*
X12437682Y-9062293D01*
X12437682Y-9062293D02*
X12428158Y-9043246D01*
X12428158Y-9043246D02*
X12428158Y-9033722D01*
X12428158Y-9033722D02*
X12437682Y-9014674D01*
X12437682Y-9014674D02*
X12456730Y-9005150D01*
X12456730Y-9005150D02*
X12485301Y-9005150D01*
X12485301Y-9005150D02*
X12504349Y-9014674D01*
X12580539Y-9214674D02*
X12590063Y-9205150D01*
X12590063Y-9205150D02*
X12609111Y-9176579D01*
X12609111Y-9176579D02*
X12618634Y-9157531D01*
X12618634Y-9157531D02*
X12628158Y-9128960D01*
X12628158Y-9128960D02*
X12637682Y-9081341D01*
X12637682Y-9081341D02*
X12637682Y-9043246D01*
X12637682Y-9043246D02*
X12628158Y-8995627D01*
X12628158Y-8995627D02*
X12618634Y-8967055D01*
X12618634Y-8967055D02*
X12609111Y-8948008D01*
X12609111Y-8948008D02*
X12590063Y-8919436D01*
X12590063Y-8919436D02*
X12580539Y-8909912D01*
D10*
X7600356Y-9346356D02*
X7600356Y-9275644D01*
X7529644Y-9275644D01*
X7529644Y-9346356D01*
X7600356Y-9346356D01*
D11*
X7980539Y-9402484D02*
X7866253Y-9402484D01*
X7923396Y-9402484D02*
X7923396Y-9202484D01*
X7923396Y-9202484D02*
X7904348Y-9231055D01*
X7904348Y-9231055D02*
X7885301Y-9250103D01*
X7885301Y-9250103D02*
X7866253Y-9259627D01*
X8066253Y-9383436D02*
X8075777Y-9392960D01*
X8075777Y-9392960D02*
X8066253Y-9402484D01*
X8066253Y-9402484D02*
X8056729Y-9392960D01*
X8056729Y-9392960D02*
X8066253Y-9383436D01*
X8066253Y-9383436D02*
X8066253Y-9402484D01*
X8199586Y-9202484D02*
X8218634Y-9202484D01*
X8218634Y-9202484D02*
X8237682Y-9212008D01*
X8237682Y-9212008D02*
X8247205Y-9221531D01*
X8247205Y-9221531D02*
X8256729Y-9240579D01*
X8256729Y-9240579D02*
X8266253Y-9278674D01*
X8266253Y-9278674D02*
X8266253Y-9326293D01*
X8266253Y-9326293D02*
X8256729Y-9364389D01*
X8256729Y-9364389D02*
X8247205Y-9383436D01*
X8247205Y-9383436D02*
X8237682Y-9392960D01*
X8237682Y-9392960D02*
X8218634Y-9402484D01*
X8218634Y-9402484D02*
X8199586Y-9402484D01*
X8199586Y-9402484D02*
X8180539Y-9392960D01*
X8180539Y-9392960D02*
X8171015Y-9383436D01*
X8171015Y-9383436D02*
X8161491Y-9364389D01*
X8161491Y-9364389D02*
X8151967Y-9326293D01*
X8151967Y-9326293D02*
X8151967Y-9278674D01*
X8151967Y-9278674D02*
X8161491Y-9240579D01*
X8161491Y-9240579D02*
X8171015Y-9221531D01*
X8171015Y-9221531D02*
X8180539Y-9212008D01*
X8180539Y-9212008D02*
X8199586Y-9202484D01*
X8390063Y-9202484D02*
X8409110Y-9202484D01*
X8409110Y-9202484D02*
X8428158Y-9212008D01*
X8428158Y-9212008D02*
X8437682Y-9221531D01*
X8437682Y-9221531D02*
X8447205Y-9240579D01*
X8447205Y-9240579D02*
X8456729Y-9278674D01*
X8456729Y-9278674D02*
X8456729Y-9326293D01*
X8456729Y-9326293D02*
X8447205Y-9364389D01*
X8447205Y-9364389D02*
X8437682Y-9383436D01*
X8437682Y-9383436D02*
X8428158Y-9392960D01*
X8428158Y-9392960D02*
X8409110Y-9402484D01*
X8409110Y-9402484D02*
X8390063Y-9402484D01*
X8390063Y-9402484D02*
X8371015Y-9392960D01*
X8371015Y-9392960D02*
X8361491Y-9383436D01*
X8361491Y-9383436D02*
X8351967Y-9364389D01*
X8351967Y-9364389D02*
X8342443Y-9326293D01*
X8342443Y-9326293D02*
X8342443Y-9278674D01*
X8342443Y-9278674D02*
X8351967Y-9240579D01*
X8351967Y-9240579D02*
X8361491Y-9221531D01*
X8361491Y-9221531D02*
X8371015Y-9212008D01*
X8371015Y-9212008D02*
X8390063Y-9202484D01*
X8580539Y-9202484D02*
X8599586Y-9202484D01*
X8599586Y-9202484D02*
X8618634Y-9212008D01*
X8618634Y-9212008D02*
X8628158Y-9221531D01*
X8628158Y-9221531D02*
X8637682Y-9240579D01*
X8637682Y-9240579D02*
X8647205Y-9278674D01*
X8647205Y-9278674D02*
X8647205Y-9326293D01*
X8647205Y-9326293D02*
X8637682Y-9364389D01*
X8637682Y-9364389D02*
X8628158Y-9383436D01*
X8628158Y-9383436D02*
X8618634Y-9392960D01*
X8618634Y-9392960D02*
X8599586Y-9402484D01*
X8599586Y-9402484D02*
X8580539Y-9402484D01*
X8580539Y-9402484D02*
X8561491Y-9392960D01*
X8561491Y-9392960D02*
X8551967Y-9383436D01*
X8551967Y-9383436D02*
X8542444Y-9364389D01*
X8542444Y-9364389D02*
X8532920Y-9326293D01*
X8532920Y-9326293D02*
X8532920Y-9278674D01*
X8532920Y-9278674D02*
X8542444Y-9240579D01*
X8542444Y-9240579D02*
X8551967Y-9221531D01*
X8551967Y-9221531D02*
X8561491Y-9212008D01*
X8561491Y-9212008D02*
X8580539Y-9202484D01*
X8732920Y-9402484D02*
X8732920Y-9269150D01*
X8732920Y-9288198D02*
X8742444Y-9278674D01*
X8742444Y-9278674D02*
X8761491Y-9269150D01*
X8761491Y-9269150D02*
X8790063Y-9269150D01*
X8790063Y-9269150D02*
X8809110Y-9278674D01*
X8809110Y-9278674D02*
X8818634Y-9297722D01*
X8818634Y-9297722D02*
X8818634Y-9402484D01*
X8818634Y-9297722D02*
X8828158Y-9278674D01*
X8828158Y-9278674D02*
X8847205Y-9269150D01*
X8847205Y-9269150D02*
X8875777Y-9269150D01*
X8875777Y-9269150D02*
X8894825Y-9278674D01*
X8894825Y-9278674D02*
X8904348Y-9297722D01*
X8904348Y-9297722D02*
X8904348Y-9402484D01*
X8999586Y-9402484D02*
X8999586Y-9269150D01*
X8999586Y-9288198D02*
X9009110Y-9278674D01*
X9009110Y-9278674D02*
X9028158Y-9269150D01*
X9028158Y-9269150D02*
X9056729Y-9269150D01*
X9056729Y-9269150D02*
X9075777Y-9278674D01*
X9075777Y-9278674D02*
X9085301Y-9297722D01*
X9085301Y-9297722D02*
X9085301Y-9402484D01*
X9085301Y-9297722D02*
X9094825Y-9278674D01*
X9094825Y-9278674D02*
X9113872Y-9269150D01*
X9113872Y-9269150D02*
X9142444Y-9269150D01*
X9142444Y-9269150D02*
X9161491Y-9278674D01*
X9161491Y-9278674D02*
X9171015Y-9297722D01*
X9171015Y-9297722D02*
X9171015Y-9402484D01*
X9561491Y-9192960D02*
X9390063Y-9450103D01*
X9818634Y-9202484D02*
X9837682Y-9202484D01*
X9837682Y-9202484D02*
X9856729Y-9212008D01*
X9856729Y-9212008D02*
X9866253Y-9221531D01*
X9866253Y-9221531D02*
X9875777Y-9240579D01*
X9875777Y-9240579D02*
X9885301Y-9278674D01*
X9885301Y-9278674D02*
X9885301Y-9326293D01*
X9885301Y-9326293D02*
X9875777Y-9364389D01*
X9875777Y-9364389D02*
X9866253Y-9383436D01*
X9866253Y-9383436D02*
X9856729Y-9392960D01*
X9856729Y-9392960D02*
X9837682Y-9402484D01*
X9837682Y-9402484D02*
X9818634Y-9402484D01*
X9818634Y-9402484D02*
X9799587Y-9392960D01*
X9799587Y-9392960D02*
X9790063Y-9383436D01*
X9790063Y-9383436D02*
X9780539Y-9364389D01*
X9780539Y-9364389D02*
X9771015Y-9326293D01*
X9771015Y-9326293D02*
X9771015Y-9278674D01*
X9771015Y-9278674D02*
X9780539Y-9240579D01*
X9780539Y-9240579D02*
X9790063Y-9221531D01*
X9790063Y-9221531D02*
X9799587Y-9212008D01*
X9799587Y-9212008D02*
X9818634Y-9202484D01*
X9971015Y-9383436D02*
X9980539Y-9392960D01*
X9980539Y-9392960D02*
X9971015Y-9402484D01*
X9971015Y-9402484D02*
X9961491Y-9392960D01*
X9961491Y-9392960D02*
X9971015Y-9383436D01*
X9971015Y-9383436D02*
X9971015Y-9402484D01*
X10104348Y-9202484D02*
X10123396Y-9202484D01*
X10123396Y-9202484D02*
X10142444Y-9212008D01*
X10142444Y-9212008D02*
X10151968Y-9221531D01*
X10151968Y-9221531D02*
X10161491Y-9240579D01*
X10161491Y-9240579D02*
X10171015Y-9278674D01*
X10171015Y-9278674D02*
X10171015Y-9326293D01*
X10171015Y-9326293D02*
X10161491Y-9364389D01*
X10161491Y-9364389D02*
X10151968Y-9383436D01*
X10151968Y-9383436D02*
X10142444Y-9392960D01*
X10142444Y-9392960D02*
X10123396Y-9402484D01*
X10123396Y-9402484D02*
X10104348Y-9402484D01*
X10104348Y-9402484D02*
X10085301Y-9392960D01*
X10085301Y-9392960D02*
X10075777Y-9383436D01*
X10075777Y-9383436D02*
X10066253Y-9364389D01*
X10066253Y-9364389D02*
X10056729Y-9326293D01*
X10056729Y-9326293D02*
X10056729Y-9278674D01*
X10056729Y-9278674D02*
X10066253Y-9240579D01*
X10066253Y-9240579D02*
X10075777Y-9221531D01*
X10075777Y-9221531D02*
X10085301Y-9212008D01*
X10085301Y-9212008D02*
X10104348Y-9202484D01*
X10237682Y-9202484D02*
X10361491Y-9202484D01*
X10361491Y-9202484D02*
X10294825Y-9278674D01*
X10294825Y-9278674D02*
X10323396Y-9278674D01*
X10323396Y-9278674D02*
X10342444Y-9288198D01*
X10342444Y-9288198D02*
X10351968Y-9297722D01*
X10351968Y-9297722D02*
X10361491Y-9316770D01*
X10361491Y-9316770D02*
X10361491Y-9364389D01*
X10361491Y-9364389D02*
X10351968Y-9383436D01*
X10351968Y-9383436D02*
X10342444Y-9392960D01*
X10342444Y-9392960D02*
X10323396Y-9402484D01*
X10323396Y-9402484D02*
X10266253Y-9402484D01*
X10266253Y-9402484D02*
X10247206Y-9392960D01*
X10247206Y-9392960D02*
X10237682Y-9383436D01*
X10456729Y-9402484D02*
X10494825Y-9402484D01*
X10494825Y-9402484D02*
X10513872Y-9392960D01*
X10513872Y-9392960D02*
X10523396Y-9383436D01*
X10523396Y-9383436D02*
X10542444Y-9354865D01*
X10542444Y-9354865D02*
X10551968Y-9316770D01*
X10551968Y-9316770D02*
X10551968Y-9240579D01*
X10551968Y-9240579D02*
X10542444Y-9221531D01*
X10542444Y-9221531D02*
X10532920Y-9212008D01*
X10532920Y-9212008D02*
X10513872Y-9202484D01*
X10513872Y-9202484D02*
X10475777Y-9202484D01*
X10475777Y-9202484D02*
X10456729Y-9212008D01*
X10456729Y-9212008D02*
X10447206Y-9221531D01*
X10447206Y-9221531D02*
X10437682Y-9240579D01*
X10437682Y-9240579D02*
X10437682Y-9288198D01*
X10437682Y-9288198D02*
X10447206Y-9307246D01*
X10447206Y-9307246D02*
X10456729Y-9316770D01*
X10456729Y-9316770D02*
X10475777Y-9326293D01*
X10475777Y-9326293D02*
X10513872Y-9326293D01*
X10513872Y-9326293D02*
X10532920Y-9316770D01*
X10532920Y-9316770D02*
X10542444Y-9307246D01*
X10542444Y-9307246D02*
X10551968Y-9288198D01*
X10723396Y-9269150D02*
X10723396Y-9402484D01*
X10675777Y-9192960D02*
X10628158Y-9335817D01*
X10628158Y-9335817D02*
X10751968Y-9335817D01*
X10818634Y-9202484D02*
X10818634Y-9240579D01*
X10894825Y-9202484D02*
X10894825Y-9240579D01*
X11190063Y-9478674D02*
X11180539Y-9469150D01*
X11180539Y-9469150D02*
X11161491Y-9440579D01*
X11161491Y-9440579D02*
X11151968Y-9421531D01*
X11151968Y-9421531D02*
X11142444Y-9392960D01*
X11142444Y-9392960D02*
X11132920Y-9345341D01*
X11132920Y-9345341D02*
X11132920Y-9307246D01*
X11132920Y-9307246D02*
X11142444Y-9259627D01*
X11142444Y-9259627D02*
X11151968Y-9231055D01*
X11151968Y-9231055D02*
X11161491Y-9212008D01*
X11161491Y-9212008D02*
X11180539Y-9183436D01*
X11180539Y-9183436D02*
X11190063Y-9173912D01*
X11371015Y-9402484D02*
X11256729Y-9402484D01*
X11313872Y-9402484D02*
X11313872Y-9202484D01*
X11313872Y-9202484D02*
X11294825Y-9231055D01*
X11294825Y-9231055D02*
X11275777Y-9250103D01*
X11275777Y-9250103D02*
X11256729Y-9259627D01*
X11542444Y-9202484D02*
X11504348Y-9202484D01*
X11504348Y-9202484D02*
X11485301Y-9212008D01*
X11485301Y-9212008D02*
X11475777Y-9221531D01*
X11475777Y-9221531D02*
X11456729Y-9250103D01*
X11456729Y-9250103D02*
X11447206Y-9288198D01*
X11447206Y-9288198D02*
X11447206Y-9364389D01*
X11447206Y-9364389D02*
X11456729Y-9383436D01*
X11456729Y-9383436D02*
X11466253Y-9392960D01*
X11466253Y-9392960D02*
X11485301Y-9402484D01*
X11485301Y-9402484D02*
X11523396Y-9402484D01*
X11523396Y-9402484D02*
X11542444Y-9392960D01*
X11542444Y-9392960D02*
X11551968Y-9383436D01*
X11551968Y-9383436D02*
X11561491Y-9364389D01*
X11561491Y-9364389D02*
X11561491Y-9316770D01*
X11561491Y-9316770D02*
X11551968Y-9297722D01*
X11551968Y-9297722D02*
X11542444Y-9288198D01*
X11542444Y-9288198D02*
X11523396Y-9278674D01*
X11523396Y-9278674D02*
X11485301Y-9278674D01*
X11485301Y-9278674D02*
X11466253Y-9288198D01*
X11466253Y-9288198D02*
X11456729Y-9297722D01*
X11456729Y-9297722D02*
X11447206Y-9316770D01*
X11799587Y-9402484D02*
X11799587Y-9202484D01*
X11885301Y-9402484D02*
X11885301Y-9297722D01*
X11885301Y-9297722D02*
X11875777Y-9278674D01*
X11875777Y-9278674D02*
X11856730Y-9269150D01*
X11856730Y-9269150D02*
X11828158Y-9269150D01*
X11828158Y-9269150D02*
X11809110Y-9278674D01*
X11809110Y-9278674D02*
X11799587Y-9288198D01*
X12009110Y-9402484D02*
X11990063Y-9392960D01*
X11990063Y-9392960D02*
X11980539Y-9383436D01*
X11980539Y-9383436D02*
X11971015Y-9364389D01*
X11971015Y-9364389D02*
X11971015Y-9307246D01*
X11971015Y-9307246D02*
X11980539Y-9288198D01*
X11980539Y-9288198D02*
X11990063Y-9278674D01*
X11990063Y-9278674D02*
X12009110Y-9269150D01*
X12009110Y-9269150D02*
X12037682Y-9269150D01*
X12037682Y-9269150D02*
X12056730Y-9278674D01*
X12056730Y-9278674D02*
X12066253Y-9288198D01*
X12066253Y-9288198D02*
X12075777Y-9307246D01*
X12075777Y-9307246D02*
X12075777Y-9364389D01*
X12075777Y-9364389D02*
X12066253Y-9383436D01*
X12066253Y-9383436D02*
X12056730Y-9392960D01*
X12056730Y-9392960D02*
X12037682Y-9402484D01*
X12037682Y-9402484D02*
X12009110Y-9402484D01*
X12190063Y-9402484D02*
X12171015Y-9392960D01*
X12171015Y-9392960D02*
X12161491Y-9373912D01*
X12161491Y-9373912D02*
X12161491Y-9202484D01*
X12342444Y-9392960D02*
X12323396Y-9402484D01*
X12323396Y-9402484D02*
X12285301Y-9402484D01*
X12285301Y-9402484D02*
X12266253Y-9392960D01*
X12266253Y-9392960D02*
X12256730Y-9373912D01*
X12256730Y-9373912D02*
X12256730Y-9297722D01*
X12256730Y-9297722D02*
X12266253Y-9278674D01*
X12266253Y-9278674D02*
X12285301Y-9269150D01*
X12285301Y-9269150D02*
X12323396Y-9269150D01*
X12323396Y-9269150D02*
X12342444Y-9278674D01*
X12342444Y-9278674D02*
X12351968Y-9297722D01*
X12351968Y-9297722D02*
X12351968Y-9316770D01*
X12351968Y-9316770D02*
X12256730Y-9335817D01*
X12428158Y-9392960D02*
X12447206Y-9402484D01*
X12447206Y-9402484D02*
X12485301Y-9402484D01*
X12485301Y-9402484D02*
X12504349Y-9392960D01*
X12504349Y-9392960D02*
X12513872Y-9373912D01*
X12513872Y-9373912D02*
X12513872Y-9364389D01*
X12513872Y-9364389D02*
X12504349Y-9345341D01*
X12504349Y-9345341D02*
X12485301Y-9335817D01*
X12485301Y-9335817D02*
X12456730Y-9335817D01*
X12456730Y-9335817D02*
X12437682Y-9326293D01*
X12437682Y-9326293D02*
X12428158Y-9307246D01*
X12428158Y-9307246D02*
X12428158Y-9297722D01*
X12428158Y-9297722D02*
X12437682Y-9278674D01*
X12437682Y-9278674D02*
X12456730Y-9269150D01*
X12456730Y-9269150D02*
X12485301Y-9269150D01*
X12485301Y-9269150D02*
X12504349Y-9278674D01*
X12580539Y-9478674D02*
X12590063Y-9469150D01*
X12590063Y-9469150D02*
X12609111Y-9440579D01*
X12609111Y-9440579D02*
X12618634Y-9421531D01*
X12618634Y-9421531D02*
X12628158Y-9392960D01*
X12628158Y-9392960D02*
X12637682Y-9345341D01*
X12637682Y-9345341D02*
X12637682Y-9307246D01*
X12637682Y-9307246D02*
X12628158Y-9259627D01*
X12628158Y-9259627D02*
X12618634Y-9231055D01*
X12618634Y-9231055D02*
X12609111Y-9212008D01*
X12609111Y-9212008D02*
X12590063Y-9183436D01*
X12590063Y-9183436D02*
X12580539Y-9173912D01*
D10*
X7565000Y-9625000D02*
X7615000Y-9575000D01*
X7565000Y-9525000D01*
X7515000Y-9575000D01*
X7565000Y-9625000D01*
D11*
X7980539Y-9666484D02*
X7866253Y-9666484D01*
X7923396Y-9666484D02*
X7923396Y-9466484D01*
X7923396Y-9466484D02*
X7904348Y-9495055D01*
X7904348Y-9495055D02*
X7885301Y-9514103D01*
X7885301Y-9514103D02*
X7866253Y-9523627D01*
X8066253Y-9647436D02*
X8075777Y-9656960D01*
X8075777Y-9656960D02*
X8066253Y-9666484D01*
X8066253Y-9666484D02*
X8056729Y-9656960D01*
X8056729Y-9656960D02*
X8066253Y-9647436D01*
X8066253Y-9647436D02*
X8066253Y-9666484D01*
X8199586Y-9466484D02*
X8218634Y-9466484D01*
X8218634Y-9466484D02*
X8237682Y-9476008D01*
X8237682Y-9476008D02*
X8247205Y-9485531D01*
X8247205Y-9485531D02*
X8256729Y-9504579D01*
X8256729Y-9504579D02*
X8266253Y-9542674D01*
X8266253Y-9542674D02*
X8266253Y-9590293D01*
X8266253Y-9590293D02*
X8256729Y-9628389D01*
X8256729Y-9628389D02*
X8247205Y-9647436D01*
X8247205Y-9647436D02*
X8237682Y-9656960D01*
X8237682Y-9656960D02*
X8218634Y-9666484D01*
X8218634Y-9666484D02*
X8199586Y-9666484D01*
X8199586Y-9666484D02*
X8180539Y-9656960D01*
X8180539Y-9656960D02*
X8171015Y-9647436D01*
X8171015Y-9647436D02*
X8161491Y-9628389D01*
X8161491Y-9628389D02*
X8151967Y-9590293D01*
X8151967Y-9590293D02*
X8151967Y-9542674D01*
X8151967Y-9542674D02*
X8161491Y-9504579D01*
X8161491Y-9504579D02*
X8171015Y-9485531D01*
X8171015Y-9485531D02*
X8180539Y-9476008D01*
X8180539Y-9476008D02*
X8199586Y-9466484D01*
X8390063Y-9466484D02*
X8409110Y-9466484D01*
X8409110Y-9466484D02*
X8428158Y-9476008D01*
X8428158Y-9476008D02*
X8437682Y-9485531D01*
X8437682Y-9485531D02*
X8447205Y-9504579D01*
X8447205Y-9504579D02*
X8456729Y-9542674D01*
X8456729Y-9542674D02*
X8456729Y-9590293D01*
X8456729Y-9590293D02*
X8447205Y-9628389D01*
X8447205Y-9628389D02*
X8437682Y-9647436D01*
X8437682Y-9647436D02*
X8428158Y-9656960D01*
X8428158Y-9656960D02*
X8409110Y-9666484D01*
X8409110Y-9666484D02*
X8390063Y-9666484D01*
X8390063Y-9666484D02*
X8371015Y-9656960D01*
X8371015Y-9656960D02*
X8361491Y-9647436D01*
X8361491Y-9647436D02*
X8351967Y-9628389D01*
X8351967Y-9628389D02*
X8342443Y-9590293D01*
X8342443Y-9590293D02*
X8342443Y-9542674D01*
X8342443Y-9542674D02*
X8351967Y-9504579D01*
X8351967Y-9504579D02*
X8361491Y-9485531D01*
X8361491Y-9485531D02*
X8371015Y-9476008D01*
X8371015Y-9476008D02*
X8390063Y-9466484D01*
X8580539Y-9466484D02*
X8599586Y-9466484D01*
X8599586Y-9466484D02*
X8618634Y-9476008D01*
X8618634Y-9476008D02*
X8628158Y-9485531D01*
X8628158Y-9485531D02*
X8637682Y-9504579D01*
X8637682Y-9504579D02*
X8647205Y-9542674D01*
X8647205Y-9542674D02*
X8647205Y-9590293D01*
X8647205Y-9590293D02*
X8637682Y-9628389D01*
X8637682Y-9628389D02*
X8628158Y-9647436D01*
X8628158Y-9647436D02*
X8618634Y-9656960D01*
X8618634Y-9656960D02*
X8599586Y-9666484D01*
X8599586Y-9666484D02*
X8580539Y-9666484D01*
X8580539Y-9666484D02*
X8561491Y-9656960D01*
X8561491Y-9656960D02*
X8551967Y-9647436D01*
X8551967Y-9647436D02*
X8542444Y-9628389D01*
X8542444Y-9628389D02*
X8532920Y-9590293D01*
X8532920Y-9590293D02*
X8532920Y-9542674D01*
X8532920Y-9542674D02*
X8542444Y-9504579D01*
X8542444Y-9504579D02*
X8551967Y-9485531D01*
X8551967Y-9485531D02*
X8561491Y-9476008D01*
X8561491Y-9476008D02*
X8580539Y-9466484D01*
X8732920Y-9666484D02*
X8732920Y-9533150D01*
X8732920Y-9552198D02*
X8742444Y-9542674D01*
X8742444Y-9542674D02*
X8761491Y-9533150D01*
X8761491Y-9533150D02*
X8790063Y-9533150D01*
X8790063Y-9533150D02*
X8809110Y-9542674D01*
X8809110Y-9542674D02*
X8818634Y-9561722D01*
X8818634Y-9561722D02*
X8818634Y-9666484D01*
X8818634Y-9561722D02*
X8828158Y-9542674D01*
X8828158Y-9542674D02*
X8847205Y-9533150D01*
X8847205Y-9533150D02*
X8875777Y-9533150D01*
X8875777Y-9533150D02*
X8894825Y-9542674D01*
X8894825Y-9542674D02*
X8904348Y-9561722D01*
X8904348Y-9561722D02*
X8904348Y-9666484D01*
X8999586Y-9666484D02*
X8999586Y-9533150D01*
X8999586Y-9552198D02*
X9009110Y-9542674D01*
X9009110Y-9542674D02*
X9028158Y-9533150D01*
X9028158Y-9533150D02*
X9056729Y-9533150D01*
X9056729Y-9533150D02*
X9075777Y-9542674D01*
X9075777Y-9542674D02*
X9085301Y-9561722D01*
X9085301Y-9561722D02*
X9085301Y-9666484D01*
X9085301Y-9561722D02*
X9094825Y-9542674D01*
X9094825Y-9542674D02*
X9113872Y-9533150D01*
X9113872Y-9533150D02*
X9142444Y-9533150D01*
X9142444Y-9533150D02*
X9161491Y-9542674D01*
X9161491Y-9542674D02*
X9171015Y-9561722D01*
X9171015Y-9561722D02*
X9171015Y-9666484D01*
X9561491Y-9456960D02*
X9390063Y-9714103D01*
X9818634Y-9466484D02*
X9837682Y-9466484D01*
X9837682Y-9466484D02*
X9856729Y-9476008D01*
X9856729Y-9476008D02*
X9866253Y-9485531D01*
X9866253Y-9485531D02*
X9875777Y-9504579D01*
X9875777Y-9504579D02*
X9885301Y-9542674D01*
X9885301Y-9542674D02*
X9885301Y-9590293D01*
X9885301Y-9590293D02*
X9875777Y-9628389D01*
X9875777Y-9628389D02*
X9866253Y-9647436D01*
X9866253Y-9647436D02*
X9856729Y-9656960D01*
X9856729Y-9656960D02*
X9837682Y-9666484D01*
X9837682Y-9666484D02*
X9818634Y-9666484D01*
X9818634Y-9666484D02*
X9799587Y-9656960D01*
X9799587Y-9656960D02*
X9790063Y-9647436D01*
X9790063Y-9647436D02*
X9780539Y-9628389D01*
X9780539Y-9628389D02*
X9771015Y-9590293D01*
X9771015Y-9590293D02*
X9771015Y-9542674D01*
X9771015Y-9542674D02*
X9780539Y-9504579D01*
X9780539Y-9504579D02*
X9790063Y-9485531D01*
X9790063Y-9485531D02*
X9799587Y-9476008D01*
X9799587Y-9476008D02*
X9818634Y-9466484D01*
X9971015Y-9647436D02*
X9980539Y-9656960D01*
X9980539Y-9656960D02*
X9971015Y-9666484D01*
X9971015Y-9666484D02*
X9961491Y-9656960D01*
X9961491Y-9656960D02*
X9971015Y-9647436D01*
X9971015Y-9647436D02*
X9971015Y-9666484D01*
X10104348Y-9466484D02*
X10123396Y-9466484D01*
X10123396Y-9466484D02*
X10142444Y-9476008D01*
X10142444Y-9476008D02*
X10151968Y-9485531D01*
X10151968Y-9485531D02*
X10161491Y-9504579D01*
X10161491Y-9504579D02*
X10171015Y-9542674D01*
X10171015Y-9542674D02*
X10171015Y-9590293D01*
X10171015Y-9590293D02*
X10161491Y-9628389D01*
X10161491Y-9628389D02*
X10151968Y-9647436D01*
X10151968Y-9647436D02*
X10142444Y-9656960D01*
X10142444Y-9656960D02*
X10123396Y-9666484D01*
X10123396Y-9666484D02*
X10104348Y-9666484D01*
X10104348Y-9666484D02*
X10085301Y-9656960D01*
X10085301Y-9656960D02*
X10075777Y-9647436D01*
X10075777Y-9647436D02*
X10066253Y-9628389D01*
X10066253Y-9628389D02*
X10056729Y-9590293D01*
X10056729Y-9590293D02*
X10056729Y-9542674D01*
X10056729Y-9542674D02*
X10066253Y-9504579D01*
X10066253Y-9504579D02*
X10075777Y-9485531D01*
X10075777Y-9485531D02*
X10085301Y-9476008D01*
X10085301Y-9476008D02*
X10104348Y-9466484D01*
X10237682Y-9466484D02*
X10361491Y-9466484D01*
X10361491Y-9466484D02*
X10294825Y-9542674D01*
X10294825Y-9542674D02*
X10323396Y-9542674D01*
X10323396Y-9542674D02*
X10342444Y-9552198D01*
X10342444Y-9552198D02*
X10351968Y-9561722D01*
X10351968Y-9561722D02*
X10361491Y-9580770D01*
X10361491Y-9580770D02*
X10361491Y-9628389D01*
X10361491Y-9628389D02*
X10351968Y-9647436D01*
X10351968Y-9647436D02*
X10342444Y-9656960D01*
X10342444Y-9656960D02*
X10323396Y-9666484D01*
X10323396Y-9666484D02*
X10266253Y-9666484D01*
X10266253Y-9666484D02*
X10247206Y-9656960D01*
X10247206Y-9656960D02*
X10237682Y-9647436D01*
X10456729Y-9666484D02*
X10494825Y-9666484D01*
X10494825Y-9666484D02*
X10513872Y-9656960D01*
X10513872Y-9656960D02*
X10523396Y-9647436D01*
X10523396Y-9647436D02*
X10542444Y-9618865D01*
X10542444Y-9618865D02*
X10551968Y-9580770D01*
X10551968Y-9580770D02*
X10551968Y-9504579D01*
X10551968Y-9504579D02*
X10542444Y-9485531D01*
X10542444Y-9485531D02*
X10532920Y-9476008D01*
X10532920Y-9476008D02*
X10513872Y-9466484D01*
X10513872Y-9466484D02*
X10475777Y-9466484D01*
X10475777Y-9466484D02*
X10456729Y-9476008D01*
X10456729Y-9476008D02*
X10447206Y-9485531D01*
X10447206Y-9485531D02*
X10437682Y-9504579D01*
X10437682Y-9504579D02*
X10437682Y-9552198D01*
X10437682Y-9552198D02*
X10447206Y-9571246D01*
X10447206Y-9571246D02*
X10456729Y-9580770D01*
X10456729Y-9580770D02*
X10475777Y-9590293D01*
X10475777Y-9590293D02*
X10513872Y-9590293D01*
X10513872Y-9590293D02*
X10532920Y-9580770D01*
X10532920Y-9580770D02*
X10542444Y-9571246D01*
X10542444Y-9571246D02*
X10551968Y-9552198D01*
X10723396Y-9533150D02*
X10723396Y-9666484D01*
X10675777Y-9456960D02*
X10628158Y-9599817D01*
X10628158Y-9599817D02*
X10751968Y-9599817D01*
X10818634Y-9466484D02*
X10818634Y-9504579D01*
X10894825Y-9466484D02*
X10894825Y-9504579D01*
X11190063Y-9742674D02*
X11180539Y-9733150D01*
X11180539Y-9733150D02*
X11161491Y-9704579D01*
X11161491Y-9704579D02*
X11151968Y-9685531D01*
X11151968Y-9685531D02*
X11142444Y-9656960D01*
X11142444Y-9656960D02*
X11132920Y-9609341D01*
X11132920Y-9609341D02*
X11132920Y-9571246D01*
X11132920Y-9571246D02*
X11142444Y-9523627D01*
X11142444Y-9523627D02*
X11151968Y-9495055D01*
X11151968Y-9495055D02*
X11161491Y-9476008D01*
X11161491Y-9476008D02*
X11180539Y-9447436D01*
X11180539Y-9447436D02*
X11190063Y-9437912D01*
X11247206Y-9466484D02*
X11371015Y-9466484D01*
X11371015Y-9466484D02*
X11304348Y-9542674D01*
X11304348Y-9542674D02*
X11332920Y-9542674D01*
X11332920Y-9542674D02*
X11351968Y-9552198D01*
X11351968Y-9552198D02*
X11361491Y-9561722D01*
X11361491Y-9561722D02*
X11371015Y-9580770D01*
X11371015Y-9580770D02*
X11371015Y-9628389D01*
X11371015Y-9628389D02*
X11361491Y-9647436D01*
X11361491Y-9647436D02*
X11351968Y-9656960D01*
X11351968Y-9656960D02*
X11332920Y-9666484D01*
X11332920Y-9666484D02*
X11275777Y-9666484D01*
X11275777Y-9666484D02*
X11256729Y-9656960D01*
X11256729Y-9656960D02*
X11247206Y-9647436D01*
X11437682Y-9466484D02*
X11571015Y-9466484D01*
X11571015Y-9466484D02*
X11485301Y-9666484D01*
X11799587Y-9666484D02*
X11799587Y-9466484D01*
X11885301Y-9666484D02*
X11885301Y-9561722D01*
X11885301Y-9561722D02*
X11875777Y-9542674D01*
X11875777Y-9542674D02*
X11856730Y-9533150D01*
X11856730Y-9533150D02*
X11828158Y-9533150D01*
X11828158Y-9533150D02*
X11809110Y-9542674D01*
X11809110Y-9542674D02*
X11799587Y-9552198D01*
X12009110Y-9666484D02*
X11990063Y-9656960D01*
X11990063Y-9656960D02*
X11980539Y-9647436D01*
X11980539Y-9647436D02*
X11971015Y-9628389D01*
X11971015Y-9628389D02*
X11971015Y-9571246D01*
X11971015Y-9571246D02*
X11980539Y-9552198D01*
X11980539Y-9552198D02*
X11990063Y-9542674D01*
X11990063Y-9542674D02*
X12009110Y-9533150D01*
X12009110Y-9533150D02*
X12037682Y-9533150D01*
X12037682Y-9533150D02*
X12056730Y-9542674D01*
X12056730Y-9542674D02*
X12066253Y-9552198D01*
X12066253Y-9552198D02*
X12075777Y-9571246D01*
X12075777Y-9571246D02*
X12075777Y-9628389D01*
X12075777Y-9628389D02*
X12066253Y-9647436D01*
X12066253Y-9647436D02*
X12056730Y-9656960D01*
X12056730Y-9656960D02*
X12037682Y-9666484D01*
X12037682Y-9666484D02*
X12009110Y-9666484D01*
X12190063Y-9666484D02*
X12171015Y-9656960D01*
X12171015Y-9656960D02*
X12161491Y-9637912D01*
X12161491Y-9637912D02*
X12161491Y-9466484D01*
X12342444Y-9656960D02*
X12323396Y-9666484D01*
X12323396Y-9666484D02*
X12285301Y-9666484D01*
X12285301Y-9666484D02*
X12266253Y-9656960D01*
X12266253Y-9656960D02*
X12256730Y-9637912D01*
X12256730Y-9637912D02*
X12256730Y-9561722D01*
X12256730Y-9561722D02*
X12266253Y-9542674D01*
X12266253Y-9542674D02*
X12285301Y-9533150D01*
X12285301Y-9533150D02*
X12323396Y-9533150D01*
X12323396Y-9533150D02*
X12342444Y-9542674D01*
X12342444Y-9542674D02*
X12351968Y-9561722D01*
X12351968Y-9561722D02*
X12351968Y-9580770D01*
X12351968Y-9580770D02*
X12256730Y-9599817D01*
X12428158Y-9656960D02*
X12447206Y-9666484D01*
X12447206Y-9666484D02*
X12485301Y-9666484D01*
X12485301Y-9666484D02*
X12504349Y-9656960D01*
X12504349Y-9656960D02*
X12513872Y-9637912D01*
X12513872Y-9637912D02*
X12513872Y-9628389D01*
X12513872Y-9628389D02*
X12504349Y-9609341D01*
X12504349Y-9609341D02*
X12485301Y-9599817D01*
X12485301Y-9599817D02*
X12456730Y-9599817D01*
X12456730Y-9599817D02*
X12437682Y-9590293D01*
X12437682Y-9590293D02*
X12428158Y-9571246D01*
X12428158Y-9571246D02*
X12428158Y-9561722D01*
X12428158Y-9561722D02*
X12437682Y-9542674D01*
X12437682Y-9542674D02*
X12456730Y-9533150D01*
X12456730Y-9533150D02*
X12485301Y-9533150D01*
X12485301Y-9533150D02*
X12504349Y-9542674D01*
X12580539Y-9742674D02*
X12590063Y-9733150D01*
X12590063Y-9733150D02*
X12609111Y-9704579D01*
X12609111Y-9704579D02*
X12618634Y-9685531D01*
X12618634Y-9685531D02*
X12628158Y-9656960D01*
X12628158Y-9656960D02*
X12637682Y-9609341D01*
X12637682Y-9609341D02*
X12637682Y-9571246D01*
X12637682Y-9571246D02*
X12628158Y-9523627D01*
X12628158Y-9523627D02*
X12618634Y-9495055D01*
X12618634Y-9495055D02*
X12609111Y-9476008D01*
X12609111Y-9476008D02*
X12590063Y-9447436D01*
X12590063Y-9447436D02*
X12580539Y-9437912D01*
X7415000Y-9739000D02*
X7615000Y-9939000D01*
X7615000Y-9739000D02*
X7415000Y-9939000D01*
X7615000Y-9839000D02*
G75*
G03*
X7415000Y-9839000I-100000J0D01*
G01*
X7415000Y-9839000D02*
G75*
G03*
X7615000Y-9839000I100000J0D01*
G01*
X7866253Y-9749531D02*
X7875777Y-9740008D01*
X7875777Y-9740008D02*
X7894824Y-9730484D01*
X7894824Y-9730484D02*
X7942443Y-9730484D01*
X7942443Y-9730484D02*
X7961491Y-9740008D01*
X7961491Y-9740008D02*
X7971015Y-9749531D01*
X7971015Y-9749531D02*
X7980539Y-9768579D01*
X7980539Y-9768579D02*
X7980539Y-9787627D01*
X7980539Y-9787627D02*
X7971015Y-9816198D01*
X7971015Y-9816198D02*
X7856729Y-9930484D01*
X7856729Y-9930484D02*
X7980539Y-9930484D01*
X8066253Y-9911436D02*
X8075777Y-9920960D01*
X8075777Y-9920960D02*
X8066253Y-9930484D01*
X8066253Y-9930484D02*
X8056729Y-9920960D01*
X8056729Y-9920960D02*
X8066253Y-9911436D01*
X8066253Y-9911436D02*
X8066253Y-9930484D01*
X8256729Y-9730484D02*
X8161491Y-9730484D01*
X8161491Y-9730484D02*
X8151967Y-9825722D01*
X8151967Y-9825722D02*
X8161491Y-9816198D01*
X8161491Y-9816198D02*
X8180539Y-9806674D01*
X8180539Y-9806674D02*
X8228158Y-9806674D01*
X8228158Y-9806674D02*
X8247205Y-9816198D01*
X8247205Y-9816198D02*
X8256729Y-9825722D01*
X8256729Y-9825722D02*
X8266253Y-9844770D01*
X8266253Y-9844770D02*
X8266253Y-9892389D01*
X8266253Y-9892389D02*
X8256729Y-9911436D01*
X8256729Y-9911436D02*
X8247205Y-9920960D01*
X8247205Y-9920960D02*
X8228158Y-9930484D01*
X8228158Y-9930484D02*
X8180539Y-9930484D01*
X8180539Y-9930484D02*
X8161491Y-9920960D01*
X8161491Y-9920960D02*
X8151967Y-9911436D01*
X8390063Y-9730484D02*
X8409110Y-9730484D01*
X8409110Y-9730484D02*
X8428158Y-9740008D01*
X8428158Y-9740008D02*
X8437682Y-9749531D01*
X8437682Y-9749531D02*
X8447205Y-9768579D01*
X8447205Y-9768579D02*
X8456729Y-9806674D01*
X8456729Y-9806674D02*
X8456729Y-9854293D01*
X8456729Y-9854293D02*
X8447205Y-9892389D01*
X8447205Y-9892389D02*
X8437682Y-9911436D01*
X8437682Y-9911436D02*
X8428158Y-9920960D01*
X8428158Y-9920960D02*
X8409110Y-9930484D01*
X8409110Y-9930484D02*
X8390063Y-9930484D01*
X8390063Y-9930484D02*
X8371015Y-9920960D01*
X8371015Y-9920960D02*
X8361491Y-9911436D01*
X8361491Y-9911436D02*
X8351967Y-9892389D01*
X8351967Y-9892389D02*
X8342443Y-9854293D01*
X8342443Y-9854293D02*
X8342443Y-9806674D01*
X8342443Y-9806674D02*
X8351967Y-9768579D01*
X8351967Y-9768579D02*
X8361491Y-9749531D01*
X8361491Y-9749531D02*
X8371015Y-9740008D01*
X8371015Y-9740008D02*
X8390063Y-9730484D01*
X8580539Y-9730484D02*
X8599586Y-9730484D01*
X8599586Y-9730484D02*
X8618634Y-9740008D01*
X8618634Y-9740008D02*
X8628158Y-9749531D01*
X8628158Y-9749531D02*
X8637682Y-9768579D01*
X8637682Y-9768579D02*
X8647205Y-9806674D01*
X8647205Y-9806674D02*
X8647205Y-9854293D01*
X8647205Y-9854293D02*
X8637682Y-9892389D01*
X8637682Y-9892389D02*
X8628158Y-9911436D01*
X8628158Y-9911436D02*
X8618634Y-9920960D01*
X8618634Y-9920960D02*
X8599586Y-9930484D01*
X8599586Y-9930484D02*
X8580539Y-9930484D01*
X8580539Y-9930484D02*
X8561491Y-9920960D01*
X8561491Y-9920960D02*
X8551967Y-9911436D01*
X8551967Y-9911436D02*
X8542444Y-9892389D01*
X8542444Y-9892389D02*
X8532920Y-9854293D01*
X8532920Y-9854293D02*
X8532920Y-9806674D01*
X8532920Y-9806674D02*
X8542444Y-9768579D01*
X8542444Y-9768579D02*
X8551967Y-9749531D01*
X8551967Y-9749531D02*
X8561491Y-9740008D01*
X8561491Y-9740008D02*
X8580539Y-9730484D01*
X8732920Y-9930484D02*
X8732920Y-9797150D01*
X8732920Y-9816198D02*
X8742444Y-9806674D01*
X8742444Y-9806674D02*
X8761491Y-9797150D01*
X8761491Y-9797150D02*
X8790063Y-9797150D01*
X8790063Y-9797150D02*
X8809110Y-9806674D01*
X8809110Y-9806674D02*
X8818634Y-9825722D01*
X8818634Y-9825722D02*
X8818634Y-9930484D01*
X8818634Y-9825722D02*
X8828158Y-9806674D01*
X8828158Y-9806674D02*
X8847205Y-9797150D01*
X8847205Y-9797150D02*
X8875777Y-9797150D01*
X8875777Y-9797150D02*
X8894825Y-9806674D01*
X8894825Y-9806674D02*
X8904348Y-9825722D01*
X8904348Y-9825722D02*
X8904348Y-9930484D01*
X8999586Y-9930484D02*
X8999586Y-9797150D01*
X8999586Y-9816198D02*
X9009110Y-9806674D01*
X9009110Y-9806674D02*
X9028158Y-9797150D01*
X9028158Y-9797150D02*
X9056729Y-9797150D01*
X9056729Y-9797150D02*
X9075777Y-9806674D01*
X9075777Y-9806674D02*
X9085301Y-9825722D01*
X9085301Y-9825722D02*
X9085301Y-9930484D01*
X9085301Y-9825722D02*
X9094825Y-9806674D01*
X9094825Y-9806674D02*
X9113872Y-9797150D01*
X9113872Y-9797150D02*
X9142444Y-9797150D01*
X9142444Y-9797150D02*
X9161491Y-9806674D01*
X9161491Y-9806674D02*
X9171015Y-9825722D01*
X9171015Y-9825722D02*
X9171015Y-9930484D01*
X9561491Y-9720960D02*
X9390063Y-9978103D01*
X9818634Y-9730484D02*
X9837682Y-9730484D01*
X9837682Y-9730484D02*
X9856729Y-9740008D01*
X9856729Y-9740008D02*
X9866253Y-9749531D01*
X9866253Y-9749531D02*
X9875777Y-9768579D01*
X9875777Y-9768579D02*
X9885301Y-9806674D01*
X9885301Y-9806674D02*
X9885301Y-9854293D01*
X9885301Y-9854293D02*
X9875777Y-9892389D01*
X9875777Y-9892389D02*
X9866253Y-9911436D01*
X9866253Y-9911436D02*
X9856729Y-9920960D01*
X9856729Y-9920960D02*
X9837682Y-9930484D01*
X9837682Y-9930484D02*
X9818634Y-9930484D01*
X9818634Y-9930484D02*
X9799587Y-9920960D01*
X9799587Y-9920960D02*
X9790063Y-9911436D01*
X9790063Y-9911436D02*
X9780539Y-9892389D01*
X9780539Y-9892389D02*
X9771015Y-9854293D01*
X9771015Y-9854293D02*
X9771015Y-9806674D01*
X9771015Y-9806674D02*
X9780539Y-9768579D01*
X9780539Y-9768579D02*
X9790063Y-9749531D01*
X9790063Y-9749531D02*
X9799587Y-9740008D01*
X9799587Y-9740008D02*
X9818634Y-9730484D01*
X9971015Y-9911436D02*
X9980539Y-9920960D01*
X9980539Y-9920960D02*
X9971015Y-9930484D01*
X9971015Y-9930484D02*
X9961491Y-9920960D01*
X9961491Y-9920960D02*
X9971015Y-9911436D01*
X9971015Y-9911436D02*
X9971015Y-9930484D01*
X10104348Y-9730484D02*
X10123396Y-9730484D01*
X10123396Y-9730484D02*
X10142444Y-9740008D01*
X10142444Y-9740008D02*
X10151968Y-9749531D01*
X10151968Y-9749531D02*
X10161491Y-9768579D01*
X10161491Y-9768579D02*
X10171015Y-9806674D01*
X10171015Y-9806674D02*
X10171015Y-9854293D01*
X10171015Y-9854293D02*
X10161491Y-9892389D01*
X10161491Y-9892389D02*
X10151968Y-9911436D01*
X10151968Y-9911436D02*
X10142444Y-9920960D01*
X10142444Y-9920960D02*
X10123396Y-9930484D01*
X10123396Y-9930484D02*
X10104348Y-9930484D01*
X10104348Y-9930484D02*
X10085301Y-9920960D01*
X10085301Y-9920960D02*
X10075777Y-9911436D01*
X10075777Y-9911436D02*
X10066253Y-9892389D01*
X10066253Y-9892389D02*
X10056729Y-9854293D01*
X10056729Y-9854293D02*
X10056729Y-9806674D01*
X10056729Y-9806674D02*
X10066253Y-9768579D01*
X10066253Y-9768579D02*
X10075777Y-9749531D01*
X10075777Y-9749531D02*
X10085301Y-9740008D01*
X10085301Y-9740008D02*
X10104348Y-9730484D01*
X10266253Y-9930484D02*
X10304348Y-9930484D01*
X10304348Y-9930484D02*
X10323396Y-9920960D01*
X10323396Y-9920960D02*
X10332920Y-9911436D01*
X10332920Y-9911436D02*
X10351968Y-9882865D01*
X10351968Y-9882865D02*
X10361491Y-9844770D01*
X10361491Y-9844770D02*
X10361491Y-9768579D01*
X10361491Y-9768579D02*
X10351968Y-9749531D01*
X10351968Y-9749531D02*
X10342444Y-9740008D01*
X10342444Y-9740008D02*
X10323396Y-9730484D01*
X10323396Y-9730484D02*
X10285301Y-9730484D01*
X10285301Y-9730484D02*
X10266253Y-9740008D01*
X10266253Y-9740008D02*
X10256729Y-9749531D01*
X10256729Y-9749531D02*
X10247206Y-9768579D01*
X10247206Y-9768579D02*
X10247206Y-9816198D01*
X10247206Y-9816198D02*
X10256729Y-9835246D01*
X10256729Y-9835246D02*
X10266253Y-9844770D01*
X10266253Y-9844770D02*
X10285301Y-9854293D01*
X10285301Y-9854293D02*
X10323396Y-9854293D01*
X10323396Y-9854293D02*
X10342444Y-9844770D01*
X10342444Y-9844770D02*
X10351968Y-9835246D01*
X10351968Y-9835246D02*
X10361491Y-9816198D01*
X10475777Y-9816198D02*
X10456729Y-9806674D01*
X10456729Y-9806674D02*
X10447206Y-9797150D01*
X10447206Y-9797150D02*
X10437682Y-9778103D01*
X10437682Y-9778103D02*
X10437682Y-9768579D01*
X10437682Y-9768579D02*
X10447206Y-9749531D01*
X10447206Y-9749531D02*
X10456729Y-9740008D01*
X10456729Y-9740008D02*
X10475777Y-9730484D01*
X10475777Y-9730484D02*
X10513872Y-9730484D01*
X10513872Y-9730484D02*
X10532920Y-9740008D01*
X10532920Y-9740008D02*
X10542444Y-9749531D01*
X10542444Y-9749531D02*
X10551968Y-9768579D01*
X10551968Y-9768579D02*
X10551968Y-9778103D01*
X10551968Y-9778103D02*
X10542444Y-9797150D01*
X10542444Y-9797150D02*
X10532920Y-9806674D01*
X10532920Y-9806674D02*
X10513872Y-9816198D01*
X10513872Y-9816198D02*
X10475777Y-9816198D01*
X10475777Y-9816198D02*
X10456729Y-9825722D01*
X10456729Y-9825722D02*
X10447206Y-9835246D01*
X10447206Y-9835246D02*
X10437682Y-9854293D01*
X10437682Y-9854293D02*
X10437682Y-9892389D01*
X10437682Y-9892389D02*
X10447206Y-9911436D01*
X10447206Y-9911436D02*
X10456729Y-9920960D01*
X10456729Y-9920960D02*
X10475777Y-9930484D01*
X10475777Y-9930484D02*
X10513872Y-9930484D01*
X10513872Y-9930484D02*
X10532920Y-9920960D01*
X10532920Y-9920960D02*
X10542444Y-9911436D01*
X10542444Y-9911436D02*
X10551968Y-9892389D01*
X10551968Y-9892389D02*
X10551968Y-9854293D01*
X10551968Y-9854293D02*
X10542444Y-9835246D01*
X10542444Y-9835246D02*
X10532920Y-9825722D01*
X10532920Y-9825722D02*
X10513872Y-9816198D01*
X10723396Y-9797150D02*
X10723396Y-9930484D01*
X10675777Y-9720960D02*
X10628158Y-9863817D01*
X10628158Y-9863817D02*
X10751968Y-9863817D01*
X10818634Y-9730484D02*
X10818634Y-9768579D01*
X10894825Y-9730484D02*
X10894825Y-9768579D01*
X11190063Y-10006674D02*
X11180539Y-9997150D01*
X11180539Y-9997150D02*
X11161491Y-9968579D01*
X11161491Y-9968579D02*
X11151968Y-9949531D01*
X11151968Y-9949531D02*
X11142444Y-9920960D01*
X11142444Y-9920960D02*
X11132920Y-9873341D01*
X11132920Y-9873341D02*
X11132920Y-9835246D01*
X11132920Y-9835246D02*
X11142444Y-9787627D01*
X11142444Y-9787627D02*
X11151968Y-9759055D01*
X11151968Y-9759055D02*
X11161491Y-9740008D01*
X11161491Y-9740008D02*
X11180539Y-9711436D01*
X11180539Y-9711436D02*
X11190063Y-9701912D01*
X11371015Y-9930484D02*
X11256729Y-9930484D01*
X11313872Y-9930484D02*
X11313872Y-9730484D01*
X11313872Y-9730484D02*
X11294825Y-9759055D01*
X11294825Y-9759055D02*
X11275777Y-9778103D01*
X11275777Y-9778103D02*
X11256729Y-9787627D01*
X11609110Y-9930484D02*
X11609110Y-9730484D01*
X11694825Y-9930484D02*
X11694825Y-9825722D01*
X11694825Y-9825722D02*
X11685301Y-9806674D01*
X11685301Y-9806674D02*
X11666253Y-9797150D01*
X11666253Y-9797150D02*
X11637682Y-9797150D01*
X11637682Y-9797150D02*
X11618634Y-9806674D01*
X11618634Y-9806674D02*
X11609110Y-9816198D01*
X11818634Y-9930484D02*
X11799587Y-9920960D01*
X11799587Y-9920960D02*
X11790063Y-9911436D01*
X11790063Y-9911436D02*
X11780539Y-9892389D01*
X11780539Y-9892389D02*
X11780539Y-9835246D01*
X11780539Y-9835246D02*
X11790063Y-9816198D01*
X11790063Y-9816198D02*
X11799587Y-9806674D01*
X11799587Y-9806674D02*
X11818634Y-9797150D01*
X11818634Y-9797150D02*
X11847206Y-9797150D01*
X11847206Y-9797150D02*
X11866253Y-9806674D01*
X11866253Y-9806674D02*
X11875777Y-9816198D01*
X11875777Y-9816198D02*
X11885301Y-9835246D01*
X11885301Y-9835246D02*
X11885301Y-9892389D01*
X11885301Y-9892389D02*
X11875777Y-9911436D01*
X11875777Y-9911436D02*
X11866253Y-9920960D01*
X11866253Y-9920960D02*
X11847206Y-9930484D01*
X11847206Y-9930484D02*
X11818634Y-9930484D01*
X11999587Y-9930484D02*
X11980539Y-9920960D01*
X11980539Y-9920960D02*
X11971015Y-9901912D01*
X11971015Y-9901912D02*
X11971015Y-9730484D01*
X12151968Y-9920960D02*
X12132920Y-9930484D01*
X12132920Y-9930484D02*
X12094825Y-9930484D01*
X12094825Y-9930484D02*
X12075777Y-9920960D01*
X12075777Y-9920960D02*
X12066253Y-9901912D01*
X12066253Y-9901912D02*
X12066253Y-9825722D01*
X12066253Y-9825722D02*
X12075777Y-9806674D01*
X12075777Y-9806674D02*
X12094825Y-9797150D01*
X12094825Y-9797150D02*
X12132920Y-9797150D01*
X12132920Y-9797150D02*
X12151968Y-9806674D01*
X12151968Y-9806674D02*
X12161491Y-9825722D01*
X12161491Y-9825722D02*
X12161491Y-9844770D01*
X12161491Y-9844770D02*
X12066253Y-9863817D01*
X12228158Y-10006674D02*
X12237682Y-9997150D01*
X12237682Y-9997150D02*
X12256730Y-9968579D01*
X12256730Y-9968579D02*
X12266253Y-9949531D01*
X12266253Y-9949531D02*
X12275777Y-9920960D01*
X12275777Y-9920960D02*
X12285301Y-9873341D01*
X12285301Y-9873341D02*
X12285301Y-9835246D01*
X12285301Y-9835246D02*
X12275777Y-9787627D01*
X12275777Y-9787627D02*
X12266253Y-9759055D01*
X12266253Y-9759055D02*
X12256730Y-9740008D01*
X12256730Y-9740008D02*
X12237682Y-9711436D01*
X12237682Y-9711436D02*
X12228158Y-9701912D01*
X7415000Y-10059000D02*
X7615000Y-10259000D01*
X7615000Y-10059000D02*
X7415000Y-10259000D01*
X7515000Y-10059000D02*
X7515000Y-10259000D01*
X7415000Y-10159000D02*
X7615000Y-10159000D01*
X7961491Y-10117150D02*
X7961491Y-10250484D01*
X7913872Y-10040960D02*
X7866253Y-10183817D01*
X7866253Y-10183817D02*
X7990062Y-10183817D01*
X8066253Y-10231436D02*
X8075777Y-10240960D01*
X8075777Y-10240960D02*
X8066253Y-10250484D01*
X8066253Y-10250484D02*
X8056729Y-10240960D01*
X8056729Y-10240960D02*
X8066253Y-10231436D01*
X8066253Y-10231436D02*
X8066253Y-10250484D01*
X8199586Y-10050484D02*
X8218634Y-10050484D01*
X8218634Y-10050484D02*
X8237682Y-10060008D01*
X8237682Y-10060008D02*
X8247205Y-10069531D01*
X8247205Y-10069531D02*
X8256729Y-10088579D01*
X8256729Y-10088579D02*
X8266253Y-10126674D01*
X8266253Y-10126674D02*
X8266253Y-10174293D01*
X8266253Y-10174293D02*
X8256729Y-10212389D01*
X8256729Y-10212389D02*
X8247205Y-10231436D01*
X8247205Y-10231436D02*
X8237682Y-10240960D01*
X8237682Y-10240960D02*
X8218634Y-10250484D01*
X8218634Y-10250484D02*
X8199586Y-10250484D01*
X8199586Y-10250484D02*
X8180539Y-10240960D01*
X8180539Y-10240960D02*
X8171015Y-10231436D01*
X8171015Y-10231436D02*
X8161491Y-10212389D01*
X8161491Y-10212389D02*
X8151967Y-10174293D01*
X8151967Y-10174293D02*
X8151967Y-10126674D01*
X8151967Y-10126674D02*
X8161491Y-10088579D01*
X8161491Y-10088579D02*
X8171015Y-10069531D01*
X8171015Y-10069531D02*
X8180539Y-10060008D01*
X8180539Y-10060008D02*
X8199586Y-10050484D01*
X8390063Y-10050484D02*
X8409110Y-10050484D01*
X8409110Y-10050484D02*
X8428158Y-10060008D01*
X8428158Y-10060008D02*
X8437682Y-10069531D01*
X8437682Y-10069531D02*
X8447205Y-10088579D01*
X8447205Y-10088579D02*
X8456729Y-10126674D01*
X8456729Y-10126674D02*
X8456729Y-10174293D01*
X8456729Y-10174293D02*
X8447205Y-10212389D01*
X8447205Y-10212389D02*
X8437682Y-10231436D01*
X8437682Y-10231436D02*
X8428158Y-10240960D01*
X8428158Y-10240960D02*
X8409110Y-10250484D01*
X8409110Y-10250484D02*
X8390063Y-10250484D01*
X8390063Y-10250484D02*
X8371015Y-10240960D01*
X8371015Y-10240960D02*
X8361491Y-10231436D01*
X8361491Y-10231436D02*
X8351967Y-10212389D01*
X8351967Y-10212389D02*
X8342443Y-10174293D01*
X8342443Y-10174293D02*
X8342443Y-10126674D01*
X8342443Y-10126674D02*
X8351967Y-10088579D01*
X8351967Y-10088579D02*
X8361491Y-10069531D01*
X8361491Y-10069531D02*
X8371015Y-10060008D01*
X8371015Y-10060008D02*
X8390063Y-10050484D01*
X8580539Y-10050484D02*
X8599586Y-10050484D01*
X8599586Y-10050484D02*
X8618634Y-10060008D01*
X8618634Y-10060008D02*
X8628158Y-10069531D01*
X8628158Y-10069531D02*
X8637682Y-10088579D01*
X8637682Y-10088579D02*
X8647205Y-10126674D01*
X8647205Y-10126674D02*
X8647205Y-10174293D01*
X8647205Y-10174293D02*
X8637682Y-10212389D01*
X8637682Y-10212389D02*
X8628158Y-10231436D01*
X8628158Y-10231436D02*
X8618634Y-10240960D01*
X8618634Y-10240960D02*
X8599586Y-10250484D01*
X8599586Y-10250484D02*
X8580539Y-10250484D01*
X8580539Y-10250484D02*
X8561491Y-10240960D01*
X8561491Y-10240960D02*
X8551967Y-10231436D01*
X8551967Y-10231436D02*
X8542444Y-10212389D01*
X8542444Y-10212389D02*
X8532920Y-10174293D01*
X8532920Y-10174293D02*
X8532920Y-10126674D01*
X8532920Y-10126674D02*
X8542444Y-10088579D01*
X8542444Y-10088579D02*
X8551967Y-10069531D01*
X8551967Y-10069531D02*
X8561491Y-10060008D01*
X8561491Y-10060008D02*
X8580539Y-10050484D01*
X8732920Y-10250484D02*
X8732920Y-10117150D01*
X8732920Y-10136198D02*
X8742444Y-10126674D01*
X8742444Y-10126674D02*
X8761491Y-10117150D01*
X8761491Y-10117150D02*
X8790063Y-10117150D01*
X8790063Y-10117150D02*
X8809110Y-10126674D01*
X8809110Y-10126674D02*
X8818634Y-10145722D01*
X8818634Y-10145722D02*
X8818634Y-10250484D01*
X8818634Y-10145722D02*
X8828158Y-10126674D01*
X8828158Y-10126674D02*
X8847205Y-10117150D01*
X8847205Y-10117150D02*
X8875777Y-10117150D01*
X8875777Y-10117150D02*
X8894825Y-10126674D01*
X8894825Y-10126674D02*
X8904348Y-10145722D01*
X8904348Y-10145722D02*
X8904348Y-10250484D01*
X8999586Y-10250484D02*
X8999586Y-10117150D01*
X8999586Y-10136198D02*
X9009110Y-10126674D01*
X9009110Y-10126674D02*
X9028158Y-10117150D01*
X9028158Y-10117150D02*
X9056729Y-10117150D01*
X9056729Y-10117150D02*
X9075777Y-10126674D01*
X9075777Y-10126674D02*
X9085301Y-10145722D01*
X9085301Y-10145722D02*
X9085301Y-10250484D01*
X9085301Y-10145722D02*
X9094825Y-10126674D01*
X9094825Y-10126674D02*
X9113872Y-10117150D01*
X9113872Y-10117150D02*
X9142444Y-10117150D01*
X9142444Y-10117150D02*
X9161491Y-10126674D01*
X9161491Y-10126674D02*
X9171015Y-10145722D01*
X9171015Y-10145722D02*
X9171015Y-10250484D01*
X9561491Y-10040960D02*
X9390063Y-10298103D01*
X9818634Y-10050484D02*
X9837682Y-10050484D01*
X9837682Y-10050484D02*
X9856729Y-10060008D01*
X9856729Y-10060008D02*
X9866253Y-10069531D01*
X9866253Y-10069531D02*
X9875777Y-10088579D01*
X9875777Y-10088579D02*
X9885301Y-10126674D01*
X9885301Y-10126674D02*
X9885301Y-10174293D01*
X9885301Y-10174293D02*
X9875777Y-10212389D01*
X9875777Y-10212389D02*
X9866253Y-10231436D01*
X9866253Y-10231436D02*
X9856729Y-10240960D01*
X9856729Y-10240960D02*
X9837682Y-10250484D01*
X9837682Y-10250484D02*
X9818634Y-10250484D01*
X9818634Y-10250484D02*
X9799587Y-10240960D01*
X9799587Y-10240960D02*
X9790063Y-10231436D01*
X9790063Y-10231436D02*
X9780539Y-10212389D01*
X9780539Y-10212389D02*
X9771015Y-10174293D01*
X9771015Y-10174293D02*
X9771015Y-10126674D01*
X9771015Y-10126674D02*
X9780539Y-10088579D01*
X9780539Y-10088579D02*
X9790063Y-10069531D01*
X9790063Y-10069531D02*
X9799587Y-10060008D01*
X9799587Y-10060008D02*
X9818634Y-10050484D01*
X9971015Y-10231436D02*
X9980539Y-10240960D01*
X9980539Y-10240960D02*
X9971015Y-10250484D01*
X9971015Y-10250484D02*
X9961491Y-10240960D01*
X9961491Y-10240960D02*
X9971015Y-10231436D01*
X9971015Y-10231436D02*
X9971015Y-10250484D01*
X10171015Y-10250484D02*
X10056729Y-10250484D01*
X10113872Y-10250484D02*
X10113872Y-10050484D01*
X10113872Y-10050484D02*
X10094825Y-10079055D01*
X10094825Y-10079055D02*
X10075777Y-10098103D01*
X10075777Y-10098103D02*
X10056729Y-10107627D01*
X10351968Y-10050484D02*
X10256729Y-10050484D01*
X10256729Y-10050484D02*
X10247206Y-10145722D01*
X10247206Y-10145722D02*
X10256729Y-10136198D01*
X10256729Y-10136198D02*
X10275777Y-10126674D01*
X10275777Y-10126674D02*
X10323396Y-10126674D01*
X10323396Y-10126674D02*
X10342444Y-10136198D01*
X10342444Y-10136198D02*
X10351968Y-10145722D01*
X10351968Y-10145722D02*
X10361491Y-10164770D01*
X10361491Y-10164770D02*
X10361491Y-10212389D01*
X10361491Y-10212389D02*
X10351968Y-10231436D01*
X10351968Y-10231436D02*
X10342444Y-10240960D01*
X10342444Y-10240960D02*
X10323396Y-10250484D01*
X10323396Y-10250484D02*
X10275777Y-10250484D01*
X10275777Y-10250484D02*
X10256729Y-10240960D01*
X10256729Y-10240960D02*
X10247206Y-10231436D01*
X10428158Y-10050484D02*
X10561491Y-10050484D01*
X10561491Y-10050484D02*
X10475777Y-10250484D01*
X10732920Y-10050484D02*
X10637682Y-10050484D01*
X10637682Y-10050484D02*
X10628158Y-10145722D01*
X10628158Y-10145722D02*
X10637682Y-10136198D01*
X10637682Y-10136198D02*
X10656729Y-10126674D01*
X10656729Y-10126674D02*
X10704349Y-10126674D01*
X10704349Y-10126674D02*
X10723396Y-10136198D01*
X10723396Y-10136198D02*
X10732920Y-10145722D01*
X10732920Y-10145722D02*
X10742444Y-10164770D01*
X10742444Y-10164770D02*
X10742444Y-10212389D01*
X10742444Y-10212389D02*
X10732920Y-10231436D01*
X10732920Y-10231436D02*
X10723396Y-10240960D01*
X10723396Y-10240960D02*
X10704349Y-10250484D01*
X10704349Y-10250484D02*
X10656729Y-10250484D01*
X10656729Y-10250484D02*
X10637682Y-10240960D01*
X10637682Y-10240960D02*
X10628158Y-10231436D01*
X10818634Y-10050484D02*
X10818634Y-10088579D01*
X10894825Y-10050484D02*
X10894825Y-10088579D01*
X11190063Y-10326674D02*
X11180539Y-10317150D01*
X11180539Y-10317150D02*
X11161491Y-10288579D01*
X11161491Y-10288579D02*
X11151968Y-10269531D01*
X11151968Y-10269531D02*
X11142444Y-10240960D01*
X11142444Y-10240960D02*
X11132920Y-10193341D01*
X11132920Y-10193341D02*
X11132920Y-10155246D01*
X11132920Y-10155246D02*
X11142444Y-10107627D01*
X11142444Y-10107627D02*
X11151968Y-10079055D01*
X11151968Y-10079055D02*
X11161491Y-10060008D01*
X11161491Y-10060008D02*
X11180539Y-10031436D01*
X11180539Y-10031436D02*
X11190063Y-10021912D01*
X11247206Y-10050484D02*
X11371015Y-10050484D01*
X11371015Y-10050484D02*
X11304348Y-10126674D01*
X11304348Y-10126674D02*
X11332920Y-10126674D01*
X11332920Y-10126674D02*
X11351968Y-10136198D01*
X11351968Y-10136198D02*
X11361491Y-10145722D01*
X11361491Y-10145722D02*
X11371015Y-10164770D01*
X11371015Y-10164770D02*
X11371015Y-10212389D01*
X11371015Y-10212389D02*
X11361491Y-10231436D01*
X11361491Y-10231436D02*
X11351968Y-10240960D01*
X11351968Y-10240960D02*
X11332920Y-10250484D01*
X11332920Y-10250484D02*
X11275777Y-10250484D01*
X11275777Y-10250484D02*
X11256729Y-10240960D01*
X11256729Y-10240960D02*
X11247206Y-10231436D01*
X11609110Y-10250484D02*
X11609110Y-10050484D01*
X11694825Y-10250484D02*
X11694825Y-10145722D01*
X11694825Y-10145722D02*
X11685301Y-10126674D01*
X11685301Y-10126674D02*
X11666253Y-10117150D01*
X11666253Y-10117150D02*
X11637682Y-10117150D01*
X11637682Y-10117150D02*
X11618634Y-10126674D01*
X11618634Y-10126674D02*
X11609110Y-10136198D01*
X11818634Y-10250484D02*
X11799587Y-10240960D01*
X11799587Y-10240960D02*
X11790063Y-10231436D01*
X11790063Y-10231436D02*
X11780539Y-10212389D01*
X11780539Y-10212389D02*
X11780539Y-10155246D01*
X11780539Y-10155246D02*
X11790063Y-10136198D01*
X11790063Y-10136198D02*
X11799587Y-10126674D01*
X11799587Y-10126674D02*
X11818634Y-10117150D01*
X11818634Y-10117150D02*
X11847206Y-10117150D01*
X11847206Y-10117150D02*
X11866253Y-10126674D01*
X11866253Y-10126674D02*
X11875777Y-10136198D01*
X11875777Y-10136198D02*
X11885301Y-10155246D01*
X11885301Y-10155246D02*
X11885301Y-10212389D01*
X11885301Y-10212389D02*
X11875777Y-10231436D01*
X11875777Y-10231436D02*
X11866253Y-10240960D01*
X11866253Y-10240960D02*
X11847206Y-10250484D01*
X11847206Y-10250484D02*
X11818634Y-10250484D01*
X11999587Y-10250484D02*
X11980539Y-10240960D01*
X11980539Y-10240960D02*
X11971015Y-10221912D01*
X11971015Y-10221912D02*
X11971015Y-10050484D01*
X12151968Y-10240960D02*
X12132920Y-10250484D01*
X12132920Y-10250484D02*
X12094825Y-10250484D01*
X12094825Y-10250484D02*
X12075777Y-10240960D01*
X12075777Y-10240960D02*
X12066253Y-10221912D01*
X12066253Y-10221912D02*
X12066253Y-10145722D01*
X12066253Y-10145722D02*
X12075777Y-10126674D01*
X12075777Y-10126674D02*
X12094825Y-10117150D01*
X12094825Y-10117150D02*
X12132920Y-10117150D01*
X12132920Y-10117150D02*
X12151968Y-10126674D01*
X12151968Y-10126674D02*
X12161491Y-10145722D01*
X12161491Y-10145722D02*
X12161491Y-10164770D01*
X12161491Y-10164770D02*
X12066253Y-10183817D01*
X12237682Y-10240960D02*
X12256730Y-10250484D01*
X12256730Y-10250484D02*
X12294825Y-10250484D01*
X12294825Y-10250484D02*
X12313872Y-10240960D01*
X12313872Y-10240960D02*
X12323396Y-10221912D01*
X12323396Y-10221912D02*
X12323396Y-10212389D01*
X12323396Y-10212389D02*
X12313872Y-10193341D01*
X12313872Y-10193341D02*
X12294825Y-10183817D01*
X12294825Y-10183817D02*
X12266253Y-10183817D01*
X12266253Y-10183817D02*
X12247206Y-10174293D01*
X12247206Y-10174293D02*
X12237682Y-10155246D01*
X12237682Y-10155246D02*
X12237682Y-10145722D01*
X12237682Y-10145722D02*
X12247206Y-10126674D01*
X12247206Y-10126674D02*
X12266253Y-10117150D01*
X12266253Y-10117150D02*
X12294825Y-10117150D01*
X12294825Y-10117150D02*
X12313872Y-10126674D01*
X12390063Y-10326674D02*
X12399587Y-10317150D01*
X12399587Y-10317150D02*
X12418634Y-10288579D01*
X12418634Y-10288579D02*
X12428158Y-10269531D01*
X12428158Y-10269531D02*
X12437682Y-10240960D01*
X12437682Y-10240960D02*
X12447206Y-10193341D01*
X12447206Y-10193341D02*
X12447206Y-10155246D01*
X12447206Y-10155246D02*
X12437682Y-10107627D01*
X12437682Y-10107627D02*
X12428158Y-10079055D01*
X12428158Y-10079055D02*
X12418634Y-10060008D01*
X12418634Y-10060008D02*
X12399587Y-10031436D01*
X12399587Y-10031436D02*
X12390063Y-10021912D01*
X7415000Y-10379000D02*
X7615000Y-10579000D01*
X7615000Y-10379000D02*
X7415000Y-10579000D01*
X7585711Y-10549711D02*
X7585711Y-10408289D01*
X7444289Y-10408289D01*
X7444289Y-10549711D01*
X7585711Y-10549711D01*
X7961491Y-10437150D02*
X7961491Y-10570484D01*
X7913872Y-10360960D02*
X7866253Y-10503817D01*
X7866253Y-10503817D02*
X7990062Y-10503817D01*
X8066253Y-10551436D02*
X8075777Y-10560960D01*
X8075777Y-10560960D02*
X8066253Y-10570484D01*
X8066253Y-10570484D02*
X8056729Y-10560960D01*
X8056729Y-10560960D02*
X8066253Y-10551436D01*
X8066253Y-10551436D02*
X8066253Y-10570484D01*
X8256729Y-10370484D02*
X8161491Y-10370484D01*
X8161491Y-10370484D02*
X8151967Y-10465722D01*
X8151967Y-10465722D02*
X8161491Y-10456198D01*
X8161491Y-10456198D02*
X8180539Y-10446674D01*
X8180539Y-10446674D02*
X8228158Y-10446674D01*
X8228158Y-10446674D02*
X8247205Y-10456198D01*
X8247205Y-10456198D02*
X8256729Y-10465722D01*
X8256729Y-10465722D02*
X8266253Y-10484770D01*
X8266253Y-10484770D02*
X8266253Y-10532389D01*
X8266253Y-10532389D02*
X8256729Y-10551436D01*
X8256729Y-10551436D02*
X8247205Y-10560960D01*
X8247205Y-10560960D02*
X8228158Y-10570484D01*
X8228158Y-10570484D02*
X8180539Y-10570484D01*
X8180539Y-10570484D02*
X8161491Y-10560960D01*
X8161491Y-10560960D02*
X8151967Y-10551436D01*
X8447205Y-10370484D02*
X8351967Y-10370484D01*
X8351967Y-10370484D02*
X8342443Y-10465722D01*
X8342443Y-10465722D02*
X8351967Y-10456198D01*
X8351967Y-10456198D02*
X8371015Y-10446674D01*
X8371015Y-10446674D02*
X8418634Y-10446674D01*
X8418634Y-10446674D02*
X8437682Y-10456198D01*
X8437682Y-10456198D02*
X8447205Y-10465722D01*
X8447205Y-10465722D02*
X8456729Y-10484770D01*
X8456729Y-10484770D02*
X8456729Y-10532389D01*
X8456729Y-10532389D02*
X8447205Y-10551436D01*
X8447205Y-10551436D02*
X8437682Y-10560960D01*
X8437682Y-10560960D02*
X8418634Y-10570484D01*
X8418634Y-10570484D02*
X8371015Y-10570484D01*
X8371015Y-10570484D02*
X8351967Y-10560960D01*
X8351967Y-10560960D02*
X8342443Y-10551436D01*
X8580539Y-10370484D02*
X8599586Y-10370484D01*
X8599586Y-10370484D02*
X8618634Y-10380008D01*
X8618634Y-10380008D02*
X8628158Y-10389531D01*
X8628158Y-10389531D02*
X8637682Y-10408579D01*
X8637682Y-10408579D02*
X8647205Y-10446674D01*
X8647205Y-10446674D02*
X8647205Y-10494293D01*
X8647205Y-10494293D02*
X8637682Y-10532389D01*
X8637682Y-10532389D02*
X8628158Y-10551436D01*
X8628158Y-10551436D02*
X8618634Y-10560960D01*
X8618634Y-10560960D02*
X8599586Y-10570484D01*
X8599586Y-10570484D02*
X8580539Y-10570484D01*
X8580539Y-10570484D02*
X8561491Y-10560960D01*
X8561491Y-10560960D02*
X8551967Y-10551436D01*
X8551967Y-10551436D02*
X8542444Y-10532389D01*
X8542444Y-10532389D02*
X8532920Y-10494293D01*
X8532920Y-10494293D02*
X8532920Y-10446674D01*
X8532920Y-10446674D02*
X8542444Y-10408579D01*
X8542444Y-10408579D02*
X8551967Y-10389531D01*
X8551967Y-10389531D02*
X8561491Y-10380008D01*
X8561491Y-10380008D02*
X8580539Y-10370484D01*
X8732920Y-10570484D02*
X8732920Y-10437150D01*
X8732920Y-10456198D02*
X8742444Y-10446674D01*
X8742444Y-10446674D02*
X8761491Y-10437150D01*
X8761491Y-10437150D02*
X8790063Y-10437150D01*
X8790063Y-10437150D02*
X8809110Y-10446674D01*
X8809110Y-10446674D02*
X8818634Y-10465722D01*
X8818634Y-10465722D02*
X8818634Y-10570484D01*
X8818634Y-10465722D02*
X8828158Y-10446674D01*
X8828158Y-10446674D02*
X8847205Y-10437150D01*
X8847205Y-10437150D02*
X8875777Y-10437150D01*
X8875777Y-10437150D02*
X8894825Y-10446674D01*
X8894825Y-10446674D02*
X8904348Y-10465722D01*
X8904348Y-10465722D02*
X8904348Y-10570484D01*
X8999586Y-10570484D02*
X8999586Y-10437150D01*
X8999586Y-10456198D02*
X9009110Y-10446674D01*
X9009110Y-10446674D02*
X9028158Y-10437150D01*
X9028158Y-10437150D02*
X9056729Y-10437150D01*
X9056729Y-10437150D02*
X9075777Y-10446674D01*
X9075777Y-10446674D02*
X9085301Y-10465722D01*
X9085301Y-10465722D02*
X9085301Y-10570484D01*
X9085301Y-10465722D02*
X9094825Y-10446674D01*
X9094825Y-10446674D02*
X9113872Y-10437150D01*
X9113872Y-10437150D02*
X9142444Y-10437150D01*
X9142444Y-10437150D02*
X9161491Y-10446674D01*
X9161491Y-10446674D02*
X9171015Y-10465722D01*
X9171015Y-10465722D02*
X9171015Y-10570484D01*
X9561491Y-10360960D02*
X9390063Y-10618103D01*
X9818634Y-10370484D02*
X9837682Y-10370484D01*
X9837682Y-10370484D02*
X9856729Y-10380008D01*
X9856729Y-10380008D02*
X9866253Y-10389531D01*
X9866253Y-10389531D02*
X9875777Y-10408579D01*
X9875777Y-10408579D02*
X9885301Y-10446674D01*
X9885301Y-10446674D02*
X9885301Y-10494293D01*
X9885301Y-10494293D02*
X9875777Y-10532389D01*
X9875777Y-10532389D02*
X9866253Y-10551436D01*
X9866253Y-10551436D02*
X9856729Y-10560960D01*
X9856729Y-10560960D02*
X9837682Y-10570484D01*
X9837682Y-10570484D02*
X9818634Y-10570484D01*
X9818634Y-10570484D02*
X9799587Y-10560960D01*
X9799587Y-10560960D02*
X9790063Y-10551436D01*
X9790063Y-10551436D02*
X9780539Y-10532389D01*
X9780539Y-10532389D02*
X9771015Y-10494293D01*
X9771015Y-10494293D02*
X9771015Y-10446674D01*
X9771015Y-10446674D02*
X9780539Y-10408579D01*
X9780539Y-10408579D02*
X9790063Y-10389531D01*
X9790063Y-10389531D02*
X9799587Y-10380008D01*
X9799587Y-10380008D02*
X9818634Y-10370484D01*
X9971015Y-10551436D02*
X9980539Y-10560960D01*
X9980539Y-10560960D02*
X9971015Y-10570484D01*
X9971015Y-10570484D02*
X9961491Y-10560960D01*
X9961491Y-10560960D02*
X9971015Y-10551436D01*
X9971015Y-10551436D02*
X9971015Y-10570484D01*
X10171015Y-10570484D02*
X10056729Y-10570484D01*
X10113872Y-10570484D02*
X10113872Y-10370484D01*
X10113872Y-10370484D02*
X10094825Y-10399055D01*
X10094825Y-10399055D02*
X10075777Y-10418103D01*
X10075777Y-10418103D02*
X10056729Y-10427627D01*
X10237682Y-10370484D02*
X10371015Y-10370484D01*
X10371015Y-10370484D02*
X10285301Y-10570484D01*
X10456729Y-10570484D02*
X10494825Y-10570484D01*
X10494825Y-10570484D02*
X10513872Y-10560960D01*
X10513872Y-10560960D02*
X10523396Y-10551436D01*
X10523396Y-10551436D02*
X10542444Y-10522865D01*
X10542444Y-10522865D02*
X10551968Y-10484770D01*
X10551968Y-10484770D02*
X10551968Y-10408579D01*
X10551968Y-10408579D02*
X10542444Y-10389531D01*
X10542444Y-10389531D02*
X10532920Y-10380008D01*
X10532920Y-10380008D02*
X10513872Y-10370484D01*
X10513872Y-10370484D02*
X10475777Y-10370484D01*
X10475777Y-10370484D02*
X10456729Y-10380008D01*
X10456729Y-10380008D02*
X10447206Y-10389531D01*
X10447206Y-10389531D02*
X10437682Y-10408579D01*
X10437682Y-10408579D02*
X10437682Y-10456198D01*
X10437682Y-10456198D02*
X10447206Y-10475246D01*
X10447206Y-10475246D02*
X10456729Y-10484770D01*
X10456729Y-10484770D02*
X10475777Y-10494293D01*
X10475777Y-10494293D02*
X10513872Y-10494293D01*
X10513872Y-10494293D02*
X10532920Y-10484770D01*
X10532920Y-10484770D02*
X10542444Y-10475246D01*
X10542444Y-10475246D02*
X10551968Y-10456198D01*
X10742444Y-10570484D02*
X10628158Y-10570484D01*
X10685301Y-10570484D02*
X10685301Y-10370484D01*
X10685301Y-10370484D02*
X10666253Y-10399055D01*
X10666253Y-10399055D02*
X10647206Y-10418103D01*
X10647206Y-10418103D02*
X10628158Y-10427627D01*
X10818634Y-10370484D02*
X10818634Y-10408579D01*
X10894825Y-10370484D02*
X10894825Y-10408579D01*
X11190063Y-10646674D02*
X11180539Y-10637150D01*
X11180539Y-10637150D02*
X11161491Y-10608579D01*
X11161491Y-10608579D02*
X11151968Y-10589531D01*
X11151968Y-10589531D02*
X11142444Y-10560960D01*
X11142444Y-10560960D02*
X11132920Y-10513341D01*
X11132920Y-10513341D02*
X11132920Y-10475246D01*
X11132920Y-10475246D02*
X11142444Y-10427627D01*
X11142444Y-10427627D02*
X11151968Y-10399055D01*
X11151968Y-10399055D02*
X11161491Y-10380008D01*
X11161491Y-10380008D02*
X11180539Y-10351436D01*
X11180539Y-10351436D02*
X11190063Y-10341912D01*
X11256729Y-10389531D02*
X11266253Y-10380008D01*
X11266253Y-10380008D02*
X11285301Y-10370484D01*
X11285301Y-10370484D02*
X11332920Y-10370484D01*
X11332920Y-10370484D02*
X11351968Y-10380008D01*
X11351968Y-10380008D02*
X11361491Y-10389531D01*
X11361491Y-10389531D02*
X11371015Y-10408579D01*
X11371015Y-10408579D02*
X11371015Y-10427627D01*
X11371015Y-10427627D02*
X11361491Y-10456198D01*
X11361491Y-10456198D02*
X11247206Y-10570484D01*
X11247206Y-10570484D02*
X11371015Y-10570484D01*
X11609110Y-10570484D02*
X11609110Y-10370484D01*
X11694825Y-10570484D02*
X11694825Y-10465722D01*
X11694825Y-10465722D02*
X11685301Y-10446674D01*
X11685301Y-10446674D02*
X11666253Y-10437150D01*
X11666253Y-10437150D02*
X11637682Y-10437150D01*
X11637682Y-10437150D02*
X11618634Y-10446674D01*
X11618634Y-10446674D02*
X11609110Y-10456198D01*
X11818634Y-10570484D02*
X11799587Y-10560960D01*
X11799587Y-10560960D02*
X11790063Y-10551436D01*
X11790063Y-10551436D02*
X11780539Y-10532389D01*
X11780539Y-10532389D02*
X11780539Y-10475246D01*
X11780539Y-10475246D02*
X11790063Y-10456198D01*
X11790063Y-10456198D02*
X11799587Y-10446674D01*
X11799587Y-10446674D02*
X11818634Y-10437150D01*
X11818634Y-10437150D02*
X11847206Y-10437150D01*
X11847206Y-10437150D02*
X11866253Y-10446674D01*
X11866253Y-10446674D02*
X11875777Y-10456198D01*
X11875777Y-10456198D02*
X11885301Y-10475246D01*
X11885301Y-10475246D02*
X11885301Y-10532389D01*
X11885301Y-10532389D02*
X11875777Y-10551436D01*
X11875777Y-10551436D02*
X11866253Y-10560960D01*
X11866253Y-10560960D02*
X11847206Y-10570484D01*
X11847206Y-10570484D02*
X11818634Y-10570484D01*
X11999587Y-10570484D02*
X11980539Y-10560960D01*
X11980539Y-10560960D02*
X11971015Y-10541912D01*
X11971015Y-10541912D02*
X11971015Y-10370484D01*
X12151968Y-10560960D02*
X12132920Y-10570484D01*
X12132920Y-10570484D02*
X12094825Y-10570484D01*
X12094825Y-10570484D02*
X12075777Y-10560960D01*
X12075777Y-10560960D02*
X12066253Y-10541912D01*
X12066253Y-10541912D02*
X12066253Y-10465722D01*
X12066253Y-10465722D02*
X12075777Y-10446674D01*
X12075777Y-10446674D02*
X12094825Y-10437150D01*
X12094825Y-10437150D02*
X12132920Y-10437150D01*
X12132920Y-10437150D02*
X12151968Y-10446674D01*
X12151968Y-10446674D02*
X12161491Y-10465722D01*
X12161491Y-10465722D02*
X12161491Y-10484770D01*
X12161491Y-10484770D02*
X12066253Y-10503817D01*
X12237682Y-10560960D02*
X12256730Y-10570484D01*
X12256730Y-10570484D02*
X12294825Y-10570484D01*
X12294825Y-10570484D02*
X12313872Y-10560960D01*
X12313872Y-10560960D02*
X12323396Y-10541912D01*
X12323396Y-10541912D02*
X12323396Y-10532389D01*
X12323396Y-10532389D02*
X12313872Y-10513341D01*
X12313872Y-10513341D02*
X12294825Y-10503817D01*
X12294825Y-10503817D02*
X12266253Y-10503817D01*
X12266253Y-10503817D02*
X12247206Y-10494293D01*
X12247206Y-10494293D02*
X12237682Y-10475246D01*
X12237682Y-10475246D02*
X12237682Y-10465722D01*
X12237682Y-10465722D02*
X12247206Y-10446674D01*
X12247206Y-10446674D02*
X12266253Y-10437150D01*
X12266253Y-10437150D02*
X12294825Y-10437150D01*
X12294825Y-10437150D02*
X12313872Y-10446674D01*
X12390063Y-10646674D02*
X12399587Y-10637150D01*
X12399587Y-10637150D02*
X12418634Y-10608579D01*
X12418634Y-10608579D02*
X12428158Y-10589531D01*
X12428158Y-10589531D02*
X12437682Y-10560960D01*
X12437682Y-10560960D02*
X12447206Y-10513341D01*
X12447206Y-10513341D02*
X12447206Y-10475246D01*
X12447206Y-10475246D02*
X12437682Y-10427627D01*
X12437682Y-10427627D02*
X12428158Y-10399055D01*
X12428158Y-10399055D02*
X12418634Y-10380008D01*
X12418634Y-10380008D02*
X12399587Y-10351436D01*
X12399587Y-10351436D02*
X12390063Y-10341912D01*
M02*
