%TF.GenerationSoftware,KiCad,Pcbnew,7.0.10*%
%TF.CreationDate,2024-02-28T12:35:52-05:00*%
%TF.ProjectId,PCB_Main_Sandbox,5043425f-4d61-4696-9e5f-53616e64626f,rev?*%
%TF.SameCoordinates,Original*%
%TF.FileFunction,Legend,Bot*%
%TF.FilePolarity,Positive*%
%FSLAX46Y46*%
G04 Gerber Fmt 4.6, Leading zero omitted, Abs format (unit mm)*
G04 Created by KiCad (PCBNEW 7.0.10) date 2024-02-28 12:35:52*
%MOMM*%
%LPD*%
G01*
G04 APERTURE LIST*
%ADD10C,0.150000*%
%ADD11C,0.120000*%
G04 APERTURE END LIST*
D10*
X99226666Y-11379580D02*
X99274285Y-11427200D01*
X99274285Y-11427200D02*
X99417142Y-11474819D01*
X99417142Y-11474819D02*
X99512380Y-11474819D01*
X99512380Y-11474819D02*
X99655237Y-11427200D01*
X99655237Y-11427200D02*
X99750475Y-11331961D01*
X99750475Y-11331961D02*
X99798094Y-11236723D01*
X99798094Y-11236723D02*
X99845713Y-11046247D01*
X99845713Y-11046247D02*
X99845713Y-10903390D01*
X99845713Y-10903390D02*
X99798094Y-10712914D01*
X99798094Y-10712914D02*
X99750475Y-10617676D01*
X99750475Y-10617676D02*
X99655237Y-10522438D01*
X99655237Y-10522438D02*
X99512380Y-10474819D01*
X99512380Y-10474819D02*
X99417142Y-10474819D01*
X99417142Y-10474819D02*
X99274285Y-10522438D01*
X99274285Y-10522438D02*
X99226666Y-10570057D01*
X98321904Y-10474819D02*
X98798094Y-10474819D01*
X98798094Y-10474819D02*
X98845713Y-10951009D01*
X98845713Y-10951009D02*
X98798094Y-10903390D01*
X98798094Y-10903390D02*
X98702856Y-10855771D01*
X98702856Y-10855771D02*
X98464761Y-10855771D01*
X98464761Y-10855771D02*
X98369523Y-10903390D01*
X98369523Y-10903390D02*
X98321904Y-10951009D01*
X98321904Y-10951009D02*
X98274285Y-11046247D01*
X98274285Y-11046247D02*
X98274285Y-11284342D01*
X98274285Y-11284342D02*
X98321904Y-11379580D01*
X98321904Y-11379580D02*
X98369523Y-11427200D01*
X98369523Y-11427200D02*
X98464761Y-11474819D01*
X98464761Y-11474819D02*
X98702856Y-11474819D01*
X98702856Y-11474819D02*
X98798094Y-11427200D01*
X98798094Y-11427200D02*
X98845713Y-11379580D01*
X88399580Y-19677142D02*
X88447200Y-19629523D01*
X88447200Y-19629523D02*
X88494819Y-19486666D01*
X88494819Y-19486666D02*
X88494819Y-19391428D01*
X88494819Y-19391428D02*
X88447200Y-19248571D01*
X88447200Y-19248571D02*
X88351961Y-19153333D01*
X88351961Y-19153333D02*
X88256723Y-19105714D01*
X88256723Y-19105714D02*
X88066247Y-19058095D01*
X88066247Y-19058095D02*
X87923390Y-19058095D01*
X87923390Y-19058095D02*
X87732914Y-19105714D01*
X87732914Y-19105714D02*
X87637676Y-19153333D01*
X87637676Y-19153333D02*
X87542438Y-19248571D01*
X87542438Y-19248571D02*
X87494819Y-19391428D01*
X87494819Y-19391428D02*
X87494819Y-19486666D01*
X87494819Y-19486666D02*
X87542438Y-19629523D01*
X87542438Y-19629523D02*
X87590057Y-19677142D01*
X88494819Y-20629523D02*
X88494819Y-20058095D01*
X88494819Y-20343809D02*
X87494819Y-20343809D01*
X87494819Y-20343809D02*
X87637676Y-20248571D01*
X87637676Y-20248571D02*
X87732914Y-20153333D01*
X87732914Y-20153333D02*
X87780533Y-20058095D01*
X87494819Y-20962857D02*
X87494819Y-21581904D01*
X87494819Y-21581904D02*
X87875771Y-21248571D01*
X87875771Y-21248571D02*
X87875771Y-21391428D01*
X87875771Y-21391428D02*
X87923390Y-21486666D01*
X87923390Y-21486666D02*
X87971009Y-21534285D01*
X87971009Y-21534285D02*
X88066247Y-21581904D01*
X88066247Y-21581904D02*
X88304342Y-21581904D01*
X88304342Y-21581904D02*
X88399580Y-21534285D01*
X88399580Y-21534285D02*
X88447200Y-21486666D01*
X88447200Y-21486666D02*
X88494819Y-21391428D01*
X88494819Y-21391428D02*
X88494819Y-21105714D01*
X88494819Y-21105714D02*
X88447200Y-21010476D01*
X88447200Y-21010476D02*
X88399580Y-20962857D01*
X119652857Y-62909580D02*
X119700476Y-62957200D01*
X119700476Y-62957200D02*
X119843333Y-63004819D01*
X119843333Y-63004819D02*
X119938571Y-63004819D01*
X119938571Y-63004819D02*
X120081428Y-62957200D01*
X120081428Y-62957200D02*
X120176666Y-62861961D01*
X120176666Y-62861961D02*
X120224285Y-62766723D01*
X120224285Y-62766723D02*
X120271904Y-62576247D01*
X120271904Y-62576247D02*
X120271904Y-62433390D01*
X120271904Y-62433390D02*
X120224285Y-62242914D01*
X120224285Y-62242914D02*
X120176666Y-62147676D01*
X120176666Y-62147676D02*
X120081428Y-62052438D01*
X120081428Y-62052438D02*
X119938571Y-62004819D01*
X119938571Y-62004819D02*
X119843333Y-62004819D01*
X119843333Y-62004819D02*
X119700476Y-62052438D01*
X119700476Y-62052438D02*
X119652857Y-62100057D01*
X118700476Y-63004819D02*
X119271904Y-63004819D01*
X118986190Y-63004819D02*
X118986190Y-62004819D01*
X118986190Y-62004819D02*
X119081428Y-62147676D01*
X119081428Y-62147676D02*
X119176666Y-62242914D01*
X119176666Y-62242914D02*
X119271904Y-62290533D01*
X117843333Y-62004819D02*
X118033809Y-62004819D01*
X118033809Y-62004819D02*
X118129047Y-62052438D01*
X118129047Y-62052438D02*
X118176666Y-62100057D01*
X118176666Y-62100057D02*
X118271904Y-62242914D01*
X118271904Y-62242914D02*
X118319523Y-62433390D01*
X118319523Y-62433390D02*
X118319523Y-62814342D01*
X118319523Y-62814342D02*
X118271904Y-62909580D01*
X118271904Y-62909580D02*
X118224285Y-62957200D01*
X118224285Y-62957200D02*
X118129047Y-63004819D01*
X118129047Y-63004819D02*
X117938571Y-63004819D01*
X117938571Y-63004819D02*
X117843333Y-62957200D01*
X117843333Y-62957200D02*
X117795714Y-62909580D01*
X117795714Y-62909580D02*
X117748095Y-62814342D01*
X117748095Y-62814342D02*
X117748095Y-62576247D01*
X117748095Y-62576247D02*
X117795714Y-62481009D01*
X117795714Y-62481009D02*
X117843333Y-62433390D01*
X117843333Y-62433390D02*
X117938571Y-62385771D01*
X117938571Y-62385771D02*
X118129047Y-62385771D01*
X118129047Y-62385771D02*
X118224285Y-62433390D01*
X118224285Y-62433390D02*
X118271904Y-62481009D01*
X118271904Y-62481009D02*
X118319523Y-62576247D01*
X110954819Y-67937142D02*
X110478628Y-67603809D01*
X110954819Y-67365714D02*
X109954819Y-67365714D01*
X109954819Y-67365714D02*
X109954819Y-67746666D01*
X109954819Y-67746666D02*
X110002438Y-67841904D01*
X110002438Y-67841904D02*
X110050057Y-67889523D01*
X110050057Y-67889523D02*
X110145295Y-67937142D01*
X110145295Y-67937142D02*
X110288152Y-67937142D01*
X110288152Y-67937142D02*
X110383390Y-67889523D01*
X110383390Y-67889523D02*
X110431009Y-67841904D01*
X110431009Y-67841904D02*
X110478628Y-67746666D01*
X110478628Y-67746666D02*
X110478628Y-67365714D01*
X110050057Y-68318095D02*
X110002438Y-68365714D01*
X110002438Y-68365714D02*
X109954819Y-68460952D01*
X109954819Y-68460952D02*
X109954819Y-68699047D01*
X109954819Y-68699047D02*
X110002438Y-68794285D01*
X110002438Y-68794285D02*
X110050057Y-68841904D01*
X110050057Y-68841904D02*
X110145295Y-68889523D01*
X110145295Y-68889523D02*
X110240533Y-68889523D01*
X110240533Y-68889523D02*
X110383390Y-68841904D01*
X110383390Y-68841904D02*
X110954819Y-68270476D01*
X110954819Y-68270476D02*
X110954819Y-68889523D01*
X109954819Y-69508571D02*
X109954819Y-69603809D01*
X109954819Y-69603809D02*
X110002438Y-69699047D01*
X110002438Y-69699047D02*
X110050057Y-69746666D01*
X110050057Y-69746666D02*
X110145295Y-69794285D01*
X110145295Y-69794285D02*
X110335771Y-69841904D01*
X110335771Y-69841904D02*
X110573866Y-69841904D01*
X110573866Y-69841904D02*
X110764342Y-69794285D01*
X110764342Y-69794285D02*
X110859580Y-69746666D01*
X110859580Y-69746666D02*
X110907200Y-69699047D01*
X110907200Y-69699047D02*
X110954819Y-69603809D01*
X110954819Y-69603809D02*
X110954819Y-69508571D01*
X110954819Y-69508571D02*
X110907200Y-69413333D01*
X110907200Y-69413333D02*
X110859580Y-69365714D01*
X110859580Y-69365714D02*
X110764342Y-69318095D01*
X110764342Y-69318095D02*
X110573866Y-69270476D01*
X110573866Y-69270476D02*
X110335771Y-69270476D01*
X110335771Y-69270476D02*
X110145295Y-69318095D01*
X110145295Y-69318095D02*
X110050057Y-69365714D01*
X110050057Y-69365714D02*
X110002438Y-69413333D01*
X110002438Y-69413333D02*
X109954819Y-69508571D01*
X152802857Y-32149580D02*
X152850476Y-32197200D01*
X152850476Y-32197200D02*
X152993333Y-32244819D01*
X152993333Y-32244819D02*
X153088571Y-32244819D01*
X153088571Y-32244819D02*
X153231428Y-32197200D01*
X153231428Y-32197200D02*
X153326666Y-32101961D01*
X153326666Y-32101961D02*
X153374285Y-32006723D01*
X153374285Y-32006723D02*
X153421904Y-31816247D01*
X153421904Y-31816247D02*
X153421904Y-31673390D01*
X153421904Y-31673390D02*
X153374285Y-31482914D01*
X153374285Y-31482914D02*
X153326666Y-31387676D01*
X153326666Y-31387676D02*
X153231428Y-31292438D01*
X153231428Y-31292438D02*
X153088571Y-31244819D01*
X153088571Y-31244819D02*
X152993333Y-31244819D01*
X152993333Y-31244819D02*
X152850476Y-31292438D01*
X152850476Y-31292438D02*
X152802857Y-31340057D01*
X151850476Y-32244819D02*
X152421904Y-32244819D01*
X152136190Y-32244819D02*
X152136190Y-31244819D01*
X152136190Y-31244819D02*
X152231428Y-31387676D01*
X152231428Y-31387676D02*
X152326666Y-31482914D01*
X152326666Y-31482914D02*
X152421904Y-31530533D01*
X150993333Y-31578152D02*
X150993333Y-32244819D01*
X151231428Y-31197200D02*
X151469523Y-31911485D01*
X151469523Y-31911485D02*
X150850476Y-31911485D01*
X250139580Y-20083334D02*
X250187200Y-20035715D01*
X250187200Y-20035715D02*
X250234819Y-19892858D01*
X250234819Y-19892858D02*
X250234819Y-19797620D01*
X250234819Y-19797620D02*
X250187200Y-19654763D01*
X250187200Y-19654763D02*
X250091961Y-19559525D01*
X250091961Y-19559525D02*
X249996723Y-19511906D01*
X249996723Y-19511906D02*
X249806247Y-19464287D01*
X249806247Y-19464287D02*
X249663390Y-19464287D01*
X249663390Y-19464287D02*
X249472914Y-19511906D01*
X249472914Y-19511906D02*
X249377676Y-19559525D01*
X249377676Y-19559525D02*
X249282438Y-19654763D01*
X249282438Y-19654763D02*
X249234819Y-19797620D01*
X249234819Y-19797620D02*
X249234819Y-19892858D01*
X249234819Y-19892858D02*
X249282438Y-20035715D01*
X249282438Y-20035715D02*
X249330057Y-20083334D01*
X250187200Y-20940477D02*
X250234819Y-20845239D01*
X250234819Y-20845239D02*
X250234819Y-20654763D01*
X250234819Y-20654763D02*
X250187200Y-20559525D01*
X250187200Y-20559525D02*
X250139580Y-20511906D01*
X250139580Y-20511906D02*
X250044342Y-20464287D01*
X250044342Y-20464287D02*
X249758628Y-20464287D01*
X249758628Y-20464287D02*
X249663390Y-20511906D01*
X249663390Y-20511906D02*
X249615771Y-20559525D01*
X249615771Y-20559525D02*
X249568152Y-20654763D01*
X249568152Y-20654763D02*
X249568152Y-20845239D01*
X249568152Y-20845239D02*
X249615771Y-20940477D01*
X250234819Y-21511906D02*
X250187200Y-21416668D01*
X250187200Y-21416668D02*
X250139580Y-21369049D01*
X250139580Y-21369049D02*
X250044342Y-21321430D01*
X250044342Y-21321430D02*
X249758628Y-21321430D01*
X249758628Y-21321430D02*
X249663390Y-21369049D01*
X249663390Y-21369049D02*
X249615771Y-21416668D01*
X249615771Y-21416668D02*
X249568152Y-21511906D01*
X249568152Y-21511906D02*
X249568152Y-21654763D01*
X249568152Y-21654763D02*
X249615771Y-21750001D01*
X249615771Y-21750001D02*
X249663390Y-21797620D01*
X249663390Y-21797620D02*
X249758628Y-21845239D01*
X249758628Y-21845239D02*
X250044342Y-21845239D01*
X250044342Y-21845239D02*
X250139580Y-21797620D01*
X250139580Y-21797620D02*
X250187200Y-21750001D01*
X250187200Y-21750001D02*
X250234819Y-21654763D01*
X250234819Y-21654763D02*
X250234819Y-21511906D01*
X250234819Y-22273811D02*
X249568152Y-22273811D01*
X249663390Y-22273811D02*
X249615771Y-22321430D01*
X249615771Y-22321430D02*
X249568152Y-22416668D01*
X249568152Y-22416668D02*
X249568152Y-22559525D01*
X249568152Y-22559525D02*
X249615771Y-22654763D01*
X249615771Y-22654763D02*
X249711009Y-22702382D01*
X249711009Y-22702382D02*
X250234819Y-22702382D01*
X249711009Y-22702382D02*
X249615771Y-22750001D01*
X249615771Y-22750001D02*
X249568152Y-22845239D01*
X249568152Y-22845239D02*
X249568152Y-22988096D01*
X249568152Y-22988096D02*
X249615771Y-23083335D01*
X249615771Y-23083335D02*
X249711009Y-23130954D01*
X249711009Y-23130954D02*
X250234819Y-23130954D01*
X249568152Y-23607144D02*
X250568152Y-23607144D01*
X249615771Y-23607144D02*
X249568152Y-23702382D01*
X249568152Y-23702382D02*
X249568152Y-23892858D01*
X249568152Y-23892858D02*
X249615771Y-23988096D01*
X249615771Y-23988096D02*
X249663390Y-24035715D01*
X249663390Y-24035715D02*
X249758628Y-24083334D01*
X249758628Y-24083334D02*
X250044342Y-24083334D01*
X250044342Y-24083334D02*
X250139580Y-24035715D01*
X250139580Y-24035715D02*
X250187200Y-23988096D01*
X250187200Y-23988096D02*
X250234819Y-23892858D01*
X250234819Y-23892858D02*
X250234819Y-23702382D01*
X250234819Y-23702382D02*
X250187200Y-23607144D01*
X249330057Y-24464287D02*
X249282438Y-24511906D01*
X249282438Y-24511906D02*
X249234819Y-24607144D01*
X249234819Y-24607144D02*
X249234819Y-24845239D01*
X249234819Y-24845239D02*
X249282438Y-24940477D01*
X249282438Y-24940477D02*
X249330057Y-24988096D01*
X249330057Y-24988096D02*
X249425295Y-25035715D01*
X249425295Y-25035715D02*
X249520533Y-25035715D01*
X249520533Y-25035715D02*
X249663390Y-24988096D01*
X249663390Y-24988096D02*
X250234819Y-24416668D01*
X250234819Y-24416668D02*
X250234819Y-25035715D01*
X247599580Y-30453809D02*
X247647200Y-30406190D01*
X247647200Y-30406190D02*
X247694819Y-30263333D01*
X247694819Y-30263333D02*
X247694819Y-30168095D01*
X247694819Y-30168095D02*
X247647200Y-30025238D01*
X247647200Y-30025238D02*
X247551961Y-29930000D01*
X247551961Y-29930000D02*
X247456723Y-29882381D01*
X247456723Y-29882381D02*
X247266247Y-29834762D01*
X247266247Y-29834762D02*
X247123390Y-29834762D01*
X247123390Y-29834762D02*
X246932914Y-29882381D01*
X246932914Y-29882381D02*
X246837676Y-29930000D01*
X246837676Y-29930000D02*
X246742438Y-30025238D01*
X246742438Y-30025238D02*
X246694819Y-30168095D01*
X246694819Y-30168095D02*
X246694819Y-30263333D01*
X246694819Y-30263333D02*
X246742438Y-30406190D01*
X246742438Y-30406190D02*
X246790057Y-30453809D01*
X247647200Y-30834762D02*
X247694819Y-30930000D01*
X247694819Y-30930000D02*
X247694819Y-31120476D01*
X247694819Y-31120476D02*
X247647200Y-31215714D01*
X247647200Y-31215714D02*
X247551961Y-31263333D01*
X247551961Y-31263333D02*
X247504342Y-31263333D01*
X247504342Y-31263333D02*
X247409104Y-31215714D01*
X247409104Y-31215714D02*
X247361485Y-31120476D01*
X247361485Y-31120476D02*
X247361485Y-30977619D01*
X247361485Y-30977619D02*
X247313866Y-30882381D01*
X247313866Y-30882381D02*
X247218628Y-30834762D01*
X247218628Y-30834762D02*
X247171009Y-30834762D01*
X247171009Y-30834762D02*
X247075771Y-30882381D01*
X247075771Y-30882381D02*
X247028152Y-30977619D01*
X247028152Y-30977619D02*
X247028152Y-31120476D01*
X247028152Y-31120476D02*
X247075771Y-31215714D01*
X247647200Y-31644286D02*
X247694819Y-31739524D01*
X247694819Y-31739524D02*
X247694819Y-31930000D01*
X247694819Y-31930000D02*
X247647200Y-32025238D01*
X247647200Y-32025238D02*
X247551961Y-32072857D01*
X247551961Y-32072857D02*
X247504342Y-32072857D01*
X247504342Y-32072857D02*
X247409104Y-32025238D01*
X247409104Y-32025238D02*
X247361485Y-31930000D01*
X247361485Y-31930000D02*
X247361485Y-31787143D01*
X247361485Y-31787143D02*
X247313866Y-31691905D01*
X247313866Y-31691905D02*
X247218628Y-31644286D01*
X247218628Y-31644286D02*
X247171009Y-31644286D01*
X247171009Y-31644286D02*
X247075771Y-31691905D01*
X247075771Y-31691905D02*
X247028152Y-31787143D01*
X247028152Y-31787143D02*
X247028152Y-31930000D01*
X247028152Y-31930000D02*
X247075771Y-32025238D01*
X247694819Y-33025238D02*
X247694819Y-32453810D01*
X247694819Y-32739524D02*
X246694819Y-32739524D01*
X246694819Y-32739524D02*
X246837676Y-32644286D01*
X246837676Y-32644286D02*
X246932914Y-32549048D01*
X246932914Y-32549048D02*
X246980533Y-32453810D01*
X79959580Y-69596190D02*
X80007200Y-69548571D01*
X80007200Y-69548571D02*
X80054819Y-69405714D01*
X80054819Y-69405714D02*
X80054819Y-69310476D01*
X80054819Y-69310476D02*
X80007200Y-69167619D01*
X80007200Y-69167619D02*
X79911961Y-69072381D01*
X79911961Y-69072381D02*
X79816723Y-69024762D01*
X79816723Y-69024762D02*
X79626247Y-68977143D01*
X79626247Y-68977143D02*
X79483390Y-68977143D01*
X79483390Y-68977143D02*
X79292914Y-69024762D01*
X79292914Y-69024762D02*
X79197676Y-69072381D01*
X79197676Y-69072381D02*
X79102438Y-69167619D01*
X79102438Y-69167619D02*
X79054819Y-69310476D01*
X79054819Y-69310476D02*
X79054819Y-69405714D01*
X79054819Y-69405714D02*
X79102438Y-69548571D01*
X79102438Y-69548571D02*
X79150057Y-69596190D01*
X80007200Y-69977143D02*
X80054819Y-70072381D01*
X80054819Y-70072381D02*
X80054819Y-70262857D01*
X80054819Y-70262857D02*
X80007200Y-70358095D01*
X80007200Y-70358095D02*
X79911961Y-70405714D01*
X79911961Y-70405714D02*
X79864342Y-70405714D01*
X79864342Y-70405714D02*
X79769104Y-70358095D01*
X79769104Y-70358095D02*
X79721485Y-70262857D01*
X79721485Y-70262857D02*
X79721485Y-70120000D01*
X79721485Y-70120000D02*
X79673866Y-70024762D01*
X79673866Y-70024762D02*
X79578628Y-69977143D01*
X79578628Y-69977143D02*
X79531009Y-69977143D01*
X79531009Y-69977143D02*
X79435771Y-70024762D01*
X79435771Y-70024762D02*
X79388152Y-70120000D01*
X79388152Y-70120000D02*
X79388152Y-70262857D01*
X79388152Y-70262857D02*
X79435771Y-70358095D01*
X79388152Y-70834286D02*
X80054819Y-70834286D01*
X79483390Y-70834286D02*
X79435771Y-70881905D01*
X79435771Y-70881905D02*
X79388152Y-70977143D01*
X79388152Y-70977143D02*
X79388152Y-71120000D01*
X79388152Y-71120000D02*
X79435771Y-71215238D01*
X79435771Y-71215238D02*
X79531009Y-71262857D01*
X79531009Y-71262857D02*
X80054819Y-71262857D01*
X80054819Y-72310476D02*
X79578628Y-71977143D01*
X80054819Y-71739048D02*
X79054819Y-71739048D01*
X79054819Y-71739048D02*
X79054819Y-72120000D01*
X79054819Y-72120000D02*
X79102438Y-72215238D01*
X79102438Y-72215238D02*
X79150057Y-72262857D01*
X79150057Y-72262857D02*
X79245295Y-72310476D01*
X79245295Y-72310476D02*
X79388152Y-72310476D01*
X79388152Y-72310476D02*
X79483390Y-72262857D01*
X79483390Y-72262857D02*
X79531009Y-72215238D01*
X79531009Y-72215238D02*
X79578628Y-72120000D01*
X79578628Y-72120000D02*
X79578628Y-71739048D01*
X79054819Y-72643810D02*
X79054819Y-73262857D01*
X79054819Y-73262857D02*
X79435771Y-72929524D01*
X79435771Y-72929524D02*
X79435771Y-73072381D01*
X79435771Y-73072381D02*
X79483390Y-73167619D01*
X79483390Y-73167619D02*
X79531009Y-73215238D01*
X79531009Y-73215238D02*
X79626247Y-73262857D01*
X79626247Y-73262857D02*
X79864342Y-73262857D01*
X79864342Y-73262857D02*
X79959580Y-73215238D01*
X79959580Y-73215238D02*
X80007200Y-73167619D01*
X80007200Y-73167619D02*
X80054819Y-73072381D01*
X80054819Y-73072381D02*
X80054819Y-72786667D01*
X80054819Y-72786667D02*
X80007200Y-72691429D01*
X80007200Y-72691429D02*
X79959580Y-72643810D01*
X130656666Y-21539580D02*
X130704285Y-21587200D01*
X130704285Y-21587200D02*
X130847142Y-21634819D01*
X130847142Y-21634819D02*
X130942380Y-21634819D01*
X130942380Y-21634819D02*
X131085237Y-21587200D01*
X131085237Y-21587200D02*
X131180475Y-21491961D01*
X131180475Y-21491961D02*
X131228094Y-21396723D01*
X131228094Y-21396723D02*
X131275713Y-21206247D01*
X131275713Y-21206247D02*
X131275713Y-21063390D01*
X131275713Y-21063390D02*
X131228094Y-20872914D01*
X131228094Y-20872914D02*
X131180475Y-20777676D01*
X131180475Y-20777676D02*
X131085237Y-20682438D01*
X131085237Y-20682438D02*
X130942380Y-20634819D01*
X130942380Y-20634819D02*
X130847142Y-20634819D01*
X130847142Y-20634819D02*
X130704285Y-20682438D01*
X130704285Y-20682438D02*
X130656666Y-20730057D01*
X129704285Y-21634819D02*
X130275713Y-21634819D01*
X129989999Y-21634819D02*
X129989999Y-20634819D01*
X129989999Y-20634819D02*
X130085237Y-20777676D01*
X130085237Y-20777676D02*
X130180475Y-20872914D01*
X130180475Y-20872914D02*
X130275713Y-20920533D01*
X117552857Y-67989580D02*
X117600476Y-68037200D01*
X117600476Y-68037200D02*
X117743333Y-68084819D01*
X117743333Y-68084819D02*
X117838571Y-68084819D01*
X117838571Y-68084819D02*
X117981428Y-68037200D01*
X117981428Y-68037200D02*
X118076666Y-67941961D01*
X118076666Y-67941961D02*
X118124285Y-67846723D01*
X118124285Y-67846723D02*
X118171904Y-67656247D01*
X118171904Y-67656247D02*
X118171904Y-67513390D01*
X118171904Y-67513390D02*
X118124285Y-67322914D01*
X118124285Y-67322914D02*
X118076666Y-67227676D01*
X118076666Y-67227676D02*
X117981428Y-67132438D01*
X117981428Y-67132438D02*
X117838571Y-67084819D01*
X117838571Y-67084819D02*
X117743333Y-67084819D01*
X117743333Y-67084819D02*
X117600476Y-67132438D01*
X117600476Y-67132438D02*
X117552857Y-67180057D01*
X116600476Y-68084819D02*
X117171904Y-68084819D01*
X116886190Y-68084819D02*
X116886190Y-67084819D01*
X116886190Y-67084819D02*
X116981428Y-67227676D01*
X116981428Y-67227676D02*
X117076666Y-67322914D01*
X117076666Y-67322914D02*
X117171904Y-67370533D01*
X116029047Y-67513390D02*
X116124285Y-67465771D01*
X116124285Y-67465771D02*
X116171904Y-67418152D01*
X116171904Y-67418152D02*
X116219523Y-67322914D01*
X116219523Y-67322914D02*
X116219523Y-67275295D01*
X116219523Y-67275295D02*
X116171904Y-67180057D01*
X116171904Y-67180057D02*
X116124285Y-67132438D01*
X116124285Y-67132438D02*
X116029047Y-67084819D01*
X116029047Y-67084819D02*
X115838571Y-67084819D01*
X115838571Y-67084819D02*
X115743333Y-67132438D01*
X115743333Y-67132438D02*
X115695714Y-67180057D01*
X115695714Y-67180057D02*
X115648095Y-67275295D01*
X115648095Y-67275295D02*
X115648095Y-67322914D01*
X115648095Y-67322914D02*
X115695714Y-67418152D01*
X115695714Y-67418152D02*
X115743333Y-67465771D01*
X115743333Y-67465771D02*
X115838571Y-67513390D01*
X115838571Y-67513390D02*
X116029047Y-67513390D01*
X116029047Y-67513390D02*
X116124285Y-67561009D01*
X116124285Y-67561009D02*
X116171904Y-67608628D01*
X116171904Y-67608628D02*
X116219523Y-67703866D01*
X116219523Y-67703866D02*
X116219523Y-67894342D01*
X116219523Y-67894342D02*
X116171904Y-67989580D01*
X116171904Y-67989580D02*
X116124285Y-68037200D01*
X116124285Y-68037200D02*
X116029047Y-68084819D01*
X116029047Y-68084819D02*
X115838571Y-68084819D01*
X115838571Y-68084819D02*
X115743333Y-68037200D01*
X115743333Y-68037200D02*
X115695714Y-67989580D01*
X115695714Y-67989580D02*
X115648095Y-67894342D01*
X115648095Y-67894342D02*
X115648095Y-67703866D01*
X115648095Y-67703866D02*
X115695714Y-67608628D01*
X115695714Y-67608628D02*
X115743333Y-67561009D01*
X115743333Y-67561009D02*
X115838571Y-67513390D01*
X85412857Y-23219580D02*
X85460476Y-23267200D01*
X85460476Y-23267200D02*
X85603333Y-23314819D01*
X85603333Y-23314819D02*
X85698571Y-23314819D01*
X85698571Y-23314819D02*
X85841428Y-23267200D01*
X85841428Y-23267200D02*
X85936666Y-23171961D01*
X85936666Y-23171961D02*
X85984285Y-23076723D01*
X85984285Y-23076723D02*
X86031904Y-22886247D01*
X86031904Y-22886247D02*
X86031904Y-22743390D01*
X86031904Y-22743390D02*
X85984285Y-22552914D01*
X85984285Y-22552914D02*
X85936666Y-22457676D01*
X85936666Y-22457676D02*
X85841428Y-22362438D01*
X85841428Y-22362438D02*
X85698571Y-22314819D01*
X85698571Y-22314819D02*
X85603333Y-22314819D01*
X85603333Y-22314819D02*
X85460476Y-22362438D01*
X85460476Y-22362438D02*
X85412857Y-22410057D01*
X84460476Y-23314819D02*
X85031904Y-23314819D01*
X84746190Y-23314819D02*
X84746190Y-22314819D01*
X84746190Y-22314819D02*
X84841428Y-22457676D01*
X84841428Y-22457676D02*
X84936666Y-22552914D01*
X84936666Y-22552914D02*
X85031904Y-22600533D01*
X83508095Y-23314819D02*
X84079523Y-23314819D01*
X83793809Y-23314819D02*
X83793809Y-22314819D01*
X83793809Y-22314819D02*
X83889047Y-22457676D01*
X83889047Y-22457676D02*
X83984285Y-22552914D01*
X83984285Y-22552914D02*
X84079523Y-22600533D01*
X146188544Y-22217142D02*
X146236164Y-22169523D01*
X146236164Y-22169523D02*
X146283783Y-22026666D01*
X146283783Y-22026666D02*
X146283783Y-21931428D01*
X146283783Y-21931428D02*
X146236164Y-21788571D01*
X146236164Y-21788571D02*
X146140925Y-21693333D01*
X146140925Y-21693333D02*
X146045687Y-21645714D01*
X146045687Y-21645714D02*
X145855211Y-21598095D01*
X145855211Y-21598095D02*
X145712354Y-21598095D01*
X145712354Y-21598095D02*
X145521878Y-21645714D01*
X145521878Y-21645714D02*
X145426640Y-21693333D01*
X145426640Y-21693333D02*
X145331402Y-21788571D01*
X145331402Y-21788571D02*
X145283783Y-21931428D01*
X145283783Y-21931428D02*
X145283783Y-22026666D01*
X145283783Y-22026666D02*
X145331402Y-22169523D01*
X145331402Y-22169523D02*
X145379021Y-22217142D01*
X146283783Y-23169523D02*
X146283783Y-22598095D01*
X146283783Y-22883809D02*
X145283783Y-22883809D01*
X145283783Y-22883809D02*
X145426640Y-22788571D01*
X145426640Y-22788571D02*
X145521878Y-22693333D01*
X145521878Y-22693333D02*
X145569497Y-22598095D01*
X145283783Y-23788571D02*
X145283783Y-23883809D01*
X145283783Y-23883809D02*
X145331402Y-23979047D01*
X145331402Y-23979047D02*
X145379021Y-24026666D01*
X145379021Y-24026666D02*
X145474259Y-24074285D01*
X145474259Y-24074285D02*
X145664735Y-24121904D01*
X145664735Y-24121904D02*
X145902830Y-24121904D01*
X145902830Y-24121904D02*
X146093306Y-24074285D01*
X146093306Y-24074285D02*
X146188544Y-24026666D01*
X146188544Y-24026666D02*
X146236164Y-23979047D01*
X146236164Y-23979047D02*
X146283783Y-23883809D01*
X146283783Y-23883809D02*
X146283783Y-23788571D01*
X146283783Y-23788571D02*
X146236164Y-23693333D01*
X146236164Y-23693333D02*
X146188544Y-23645714D01*
X146188544Y-23645714D02*
X146093306Y-23598095D01*
X146093306Y-23598095D02*
X145902830Y-23550476D01*
X145902830Y-23550476D02*
X145664735Y-23550476D01*
X145664735Y-23550476D02*
X145474259Y-23598095D01*
X145474259Y-23598095D02*
X145379021Y-23645714D01*
X145379021Y-23645714D02*
X145331402Y-23693333D01*
X145331402Y-23693333D02*
X145283783Y-23788571D01*
X104989580Y-67937142D02*
X105037200Y-67889523D01*
X105037200Y-67889523D02*
X105084819Y-67746666D01*
X105084819Y-67746666D02*
X105084819Y-67651428D01*
X105084819Y-67651428D02*
X105037200Y-67508571D01*
X105037200Y-67508571D02*
X104941961Y-67413333D01*
X104941961Y-67413333D02*
X104846723Y-67365714D01*
X104846723Y-67365714D02*
X104656247Y-67318095D01*
X104656247Y-67318095D02*
X104513390Y-67318095D01*
X104513390Y-67318095D02*
X104322914Y-67365714D01*
X104322914Y-67365714D02*
X104227676Y-67413333D01*
X104227676Y-67413333D02*
X104132438Y-67508571D01*
X104132438Y-67508571D02*
X104084819Y-67651428D01*
X104084819Y-67651428D02*
X104084819Y-67746666D01*
X104084819Y-67746666D02*
X104132438Y-67889523D01*
X104132438Y-67889523D02*
X104180057Y-67937142D01*
X105084819Y-68889523D02*
X105084819Y-68318095D01*
X105084819Y-68603809D02*
X104084819Y-68603809D01*
X104084819Y-68603809D02*
X104227676Y-68508571D01*
X104227676Y-68508571D02*
X104322914Y-68413333D01*
X104322914Y-68413333D02*
X104370533Y-68318095D01*
X105084819Y-69365714D02*
X105084819Y-69556190D01*
X105084819Y-69556190D02*
X105037200Y-69651428D01*
X105037200Y-69651428D02*
X104989580Y-69699047D01*
X104989580Y-69699047D02*
X104846723Y-69794285D01*
X104846723Y-69794285D02*
X104656247Y-69841904D01*
X104656247Y-69841904D02*
X104275295Y-69841904D01*
X104275295Y-69841904D02*
X104180057Y-69794285D01*
X104180057Y-69794285D02*
X104132438Y-69746666D01*
X104132438Y-69746666D02*
X104084819Y-69651428D01*
X104084819Y-69651428D02*
X104084819Y-69460952D01*
X104084819Y-69460952D02*
X104132438Y-69365714D01*
X104132438Y-69365714D02*
X104180057Y-69318095D01*
X104180057Y-69318095D02*
X104275295Y-69270476D01*
X104275295Y-69270476D02*
X104513390Y-69270476D01*
X104513390Y-69270476D02*
X104608628Y-69318095D01*
X104608628Y-69318095D02*
X104656247Y-69365714D01*
X104656247Y-69365714D02*
X104703866Y-69460952D01*
X104703866Y-69460952D02*
X104703866Y-69651428D01*
X104703866Y-69651428D02*
X104656247Y-69746666D01*
X104656247Y-69746666D02*
X104608628Y-69794285D01*
X104608628Y-69794285D02*
X104513390Y-69841904D01*
X130656666Y-29159580D02*
X130704285Y-29207200D01*
X130704285Y-29207200D02*
X130847142Y-29254819D01*
X130847142Y-29254819D02*
X130942380Y-29254819D01*
X130942380Y-29254819D02*
X131085237Y-29207200D01*
X131085237Y-29207200D02*
X131180475Y-29111961D01*
X131180475Y-29111961D02*
X131228094Y-29016723D01*
X131228094Y-29016723D02*
X131275713Y-28826247D01*
X131275713Y-28826247D02*
X131275713Y-28683390D01*
X131275713Y-28683390D02*
X131228094Y-28492914D01*
X131228094Y-28492914D02*
X131180475Y-28397676D01*
X131180475Y-28397676D02*
X131085237Y-28302438D01*
X131085237Y-28302438D02*
X130942380Y-28254819D01*
X130942380Y-28254819D02*
X130847142Y-28254819D01*
X130847142Y-28254819D02*
X130704285Y-28302438D01*
X130704285Y-28302438D02*
X130656666Y-28350057D01*
X130275713Y-28350057D02*
X130228094Y-28302438D01*
X130228094Y-28302438D02*
X130132856Y-28254819D01*
X130132856Y-28254819D02*
X129894761Y-28254819D01*
X129894761Y-28254819D02*
X129799523Y-28302438D01*
X129799523Y-28302438D02*
X129751904Y-28350057D01*
X129751904Y-28350057D02*
X129704285Y-28445295D01*
X129704285Y-28445295D02*
X129704285Y-28540533D01*
X129704285Y-28540533D02*
X129751904Y-28683390D01*
X129751904Y-28683390D02*
X130323332Y-29254819D01*
X130323332Y-29254819D02*
X129704285Y-29254819D01*
X146188544Y-25233333D02*
X146236164Y-25185714D01*
X146236164Y-25185714D02*
X146283783Y-25042857D01*
X146283783Y-25042857D02*
X146283783Y-24947619D01*
X146283783Y-24947619D02*
X146236164Y-24804762D01*
X146236164Y-24804762D02*
X146140925Y-24709524D01*
X146140925Y-24709524D02*
X146045687Y-24661905D01*
X146045687Y-24661905D02*
X145855211Y-24614286D01*
X145855211Y-24614286D02*
X145712354Y-24614286D01*
X145712354Y-24614286D02*
X145521878Y-24661905D01*
X145521878Y-24661905D02*
X145426640Y-24709524D01*
X145426640Y-24709524D02*
X145331402Y-24804762D01*
X145331402Y-24804762D02*
X145283783Y-24947619D01*
X145283783Y-24947619D02*
X145283783Y-25042857D01*
X145283783Y-25042857D02*
X145331402Y-25185714D01*
X145331402Y-25185714D02*
X145379021Y-25233333D01*
X145712354Y-25804762D02*
X145664735Y-25709524D01*
X145664735Y-25709524D02*
X145617116Y-25661905D01*
X145617116Y-25661905D02*
X145521878Y-25614286D01*
X145521878Y-25614286D02*
X145474259Y-25614286D01*
X145474259Y-25614286D02*
X145379021Y-25661905D01*
X145379021Y-25661905D02*
X145331402Y-25709524D01*
X145331402Y-25709524D02*
X145283783Y-25804762D01*
X145283783Y-25804762D02*
X145283783Y-25995238D01*
X145283783Y-25995238D02*
X145331402Y-26090476D01*
X145331402Y-26090476D02*
X145379021Y-26138095D01*
X145379021Y-26138095D02*
X145474259Y-26185714D01*
X145474259Y-26185714D02*
X145521878Y-26185714D01*
X145521878Y-26185714D02*
X145617116Y-26138095D01*
X145617116Y-26138095D02*
X145664735Y-26090476D01*
X145664735Y-26090476D02*
X145712354Y-25995238D01*
X145712354Y-25995238D02*
X145712354Y-25804762D01*
X145712354Y-25804762D02*
X145759973Y-25709524D01*
X145759973Y-25709524D02*
X145807592Y-25661905D01*
X145807592Y-25661905D02*
X145902830Y-25614286D01*
X145902830Y-25614286D02*
X146093306Y-25614286D01*
X146093306Y-25614286D02*
X146188544Y-25661905D01*
X146188544Y-25661905D02*
X146236164Y-25709524D01*
X146236164Y-25709524D02*
X146283783Y-25804762D01*
X146283783Y-25804762D02*
X146283783Y-25995238D01*
X146283783Y-25995238D02*
X146236164Y-26090476D01*
X146236164Y-26090476D02*
X146188544Y-26138095D01*
X146188544Y-26138095D02*
X146093306Y-26185714D01*
X146093306Y-26185714D02*
X145902830Y-26185714D01*
X145902830Y-26185714D02*
X145807592Y-26138095D01*
X145807592Y-26138095D02*
X145759973Y-26090476D01*
X145759973Y-26090476D02*
X145712354Y-25995238D01*
X146188544Y-28903333D02*
X146236164Y-28855714D01*
X146236164Y-28855714D02*
X146283783Y-28712857D01*
X146283783Y-28712857D02*
X146283783Y-28617619D01*
X146283783Y-28617619D02*
X146236164Y-28474762D01*
X146236164Y-28474762D02*
X146140925Y-28379524D01*
X146140925Y-28379524D02*
X146045687Y-28331905D01*
X146045687Y-28331905D02*
X145855211Y-28284286D01*
X145855211Y-28284286D02*
X145712354Y-28284286D01*
X145712354Y-28284286D02*
X145521878Y-28331905D01*
X145521878Y-28331905D02*
X145426640Y-28379524D01*
X145426640Y-28379524D02*
X145331402Y-28474762D01*
X145331402Y-28474762D02*
X145283783Y-28617619D01*
X145283783Y-28617619D02*
X145283783Y-28712857D01*
X145283783Y-28712857D02*
X145331402Y-28855714D01*
X145331402Y-28855714D02*
X145379021Y-28903333D01*
X145283783Y-29236667D02*
X145283783Y-29855714D01*
X145283783Y-29855714D02*
X145664735Y-29522381D01*
X145664735Y-29522381D02*
X145664735Y-29665238D01*
X145664735Y-29665238D02*
X145712354Y-29760476D01*
X145712354Y-29760476D02*
X145759973Y-29808095D01*
X145759973Y-29808095D02*
X145855211Y-29855714D01*
X145855211Y-29855714D02*
X146093306Y-29855714D01*
X146093306Y-29855714D02*
X146188544Y-29808095D01*
X146188544Y-29808095D02*
X146236164Y-29760476D01*
X146236164Y-29760476D02*
X146283783Y-29665238D01*
X146283783Y-29665238D02*
X146283783Y-29379524D01*
X146283783Y-29379524D02*
X146236164Y-29284286D01*
X146236164Y-29284286D02*
X146188544Y-29236667D01*
X245244762Y-14739580D02*
X245292381Y-14787200D01*
X245292381Y-14787200D02*
X245435238Y-14834819D01*
X245435238Y-14834819D02*
X245530476Y-14834819D01*
X245530476Y-14834819D02*
X245673333Y-14787200D01*
X245673333Y-14787200D02*
X245768571Y-14691961D01*
X245768571Y-14691961D02*
X245816190Y-14596723D01*
X245816190Y-14596723D02*
X245863809Y-14406247D01*
X245863809Y-14406247D02*
X245863809Y-14263390D01*
X245863809Y-14263390D02*
X245816190Y-14072914D01*
X245816190Y-14072914D02*
X245768571Y-13977676D01*
X245768571Y-13977676D02*
X245673333Y-13882438D01*
X245673333Y-13882438D02*
X245530476Y-13834819D01*
X245530476Y-13834819D02*
X245435238Y-13834819D01*
X245435238Y-13834819D02*
X245292381Y-13882438D01*
X245292381Y-13882438D02*
X245244762Y-13930057D01*
X244911428Y-14168152D02*
X244673333Y-14834819D01*
X244673333Y-14834819D02*
X244435238Y-14168152D01*
X243625714Y-14787200D02*
X243720952Y-14834819D01*
X243720952Y-14834819D02*
X243911428Y-14834819D01*
X243911428Y-14834819D02*
X244006666Y-14787200D01*
X244006666Y-14787200D02*
X244054285Y-14739580D01*
X244054285Y-14739580D02*
X244101904Y-14644342D01*
X244101904Y-14644342D02*
X244101904Y-14358628D01*
X244101904Y-14358628D02*
X244054285Y-14263390D01*
X244054285Y-14263390D02*
X244006666Y-14215771D01*
X244006666Y-14215771D02*
X243911428Y-14168152D01*
X243911428Y-14168152D02*
X243720952Y-14168152D01*
X243720952Y-14168152D02*
X243625714Y-14215771D01*
X242768571Y-14787200D02*
X242863809Y-14834819D01*
X242863809Y-14834819D02*
X243054285Y-14834819D01*
X243054285Y-14834819D02*
X243149523Y-14787200D01*
X243149523Y-14787200D02*
X243197142Y-14739580D01*
X243197142Y-14739580D02*
X243244761Y-14644342D01*
X243244761Y-14644342D02*
X243244761Y-14358628D01*
X243244761Y-14358628D02*
X243197142Y-14263390D01*
X243197142Y-14263390D02*
X243149523Y-14215771D01*
X243149523Y-14215771D02*
X243054285Y-14168152D01*
X243054285Y-14168152D02*
X242863809Y-14168152D01*
X242863809Y-14168152D02*
X242768571Y-14215771D01*
X241816190Y-14834819D02*
X242387618Y-14834819D01*
X242101904Y-14834819D02*
X242101904Y-13834819D01*
X242101904Y-13834819D02*
X242197142Y-13977676D01*
X242197142Y-13977676D02*
X242292380Y-14072914D01*
X242292380Y-14072914D02*
X242387618Y-14120533D01*
X89169580Y-52697142D02*
X89217200Y-52649523D01*
X89217200Y-52649523D02*
X89264819Y-52506666D01*
X89264819Y-52506666D02*
X89264819Y-52411428D01*
X89264819Y-52411428D02*
X89217200Y-52268571D01*
X89217200Y-52268571D02*
X89121961Y-52173333D01*
X89121961Y-52173333D02*
X89026723Y-52125714D01*
X89026723Y-52125714D02*
X88836247Y-52078095D01*
X88836247Y-52078095D02*
X88693390Y-52078095D01*
X88693390Y-52078095D02*
X88502914Y-52125714D01*
X88502914Y-52125714D02*
X88407676Y-52173333D01*
X88407676Y-52173333D02*
X88312438Y-52268571D01*
X88312438Y-52268571D02*
X88264819Y-52411428D01*
X88264819Y-52411428D02*
X88264819Y-52506666D01*
X88264819Y-52506666D02*
X88312438Y-52649523D01*
X88312438Y-52649523D02*
X88360057Y-52697142D01*
X88264819Y-53030476D02*
X88264819Y-53649523D01*
X88264819Y-53649523D02*
X88645771Y-53316190D01*
X88645771Y-53316190D02*
X88645771Y-53459047D01*
X88645771Y-53459047D02*
X88693390Y-53554285D01*
X88693390Y-53554285D02*
X88741009Y-53601904D01*
X88741009Y-53601904D02*
X88836247Y-53649523D01*
X88836247Y-53649523D02*
X89074342Y-53649523D01*
X89074342Y-53649523D02*
X89169580Y-53601904D01*
X89169580Y-53601904D02*
X89217200Y-53554285D01*
X89217200Y-53554285D02*
X89264819Y-53459047D01*
X89264819Y-53459047D02*
X89264819Y-53173333D01*
X89264819Y-53173333D02*
X89217200Y-53078095D01*
X89217200Y-53078095D02*
X89169580Y-53030476D01*
X88360057Y-54030476D02*
X88312438Y-54078095D01*
X88312438Y-54078095D02*
X88264819Y-54173333D01*
X88264819Y-54173333D02*
X88264819Y-54411428D01*
X88264819Y-54411428D02*
X88312438Y-54506666D01*
X88312438Y-54506666D02*
X88360057Y-54554285D01*
X88360057Y-54554285D02*
X88455295Y-54601904D01*
X88455295Y-54601904D02*
X88550533Y-54601904D01*
X88550533Y-54601904D02*
X88693390Y-54554285D01*
X88693390Y-54554285D02*
X89264819Y-53982857D01*
X89264819Y-53982857D02*
X89264819Y-54601904D01*
X150962857Y-32149580D02*
X151010476Y-32197200D01*
X151010476Y-32197200D02*
X151153333Y-32244819D01*
X151153333Y-32244819D02*
X151248571Y-32244819D01*
X151248571Y-32244819D02*
X151391428Y-32197200D01*
X151391428Y-32197200D02*
X151486666Y-32101961D01*
X151486666Y-32101961D02*
X151534285Y-32006723D01*
X151534285Y-32006723D02*
X151581904Y-31816247D01*
X151581904Y-31816247D02*
X151581904Y-31673390D01*
X151581904Y-31673390D02*
X151534285Y-31482914D01*
X151534285Y-31482914D02*
X151486666Y-31387676D01*
X151486666Y-31387676D02*
X151391428Y-31292438D01*
X151391428Y-31292438D02*
X151248571Y-31244819D01*
X151248571Y-31244819D02*
X151153333Y-31244819D01*
X151153333Y-31244819D02*
X151010476Y-31292438D01*
X151010476Y-31292438D02*
X150962857Y-31340057D01*
X150010476Y-32244819D02*
X150581904Y-32244819D01*
X150296190Y-32244819D02*
X150296190Y-31244819D01*
X150296190Y-31244819D02*
X150391428Y-31387676D01*
X150391428Y-31387676D02*
X150486666Y-31482914D01*
X150486666Y-31482914D02*
X150581904Y-31530533D01*
X149629523Y-31340057D02*
X149581904Y-31292438D01*
X149581904Y-31292438D02*
X149486666Y-31244819D01*
X149486666Y-31244819D02*
X149248571Y-31244819D01*
X149248571Y-31244819D02*
X149153333Y-31292438D01*
X149153333Y-31292438D02*
X149105714Y-31340057D01*
X149105714Y-31340057D02*
X149058095Y-31435295D01*
X149058095Y-31435295D02*
X149058095Y-31530533D01*
X149058095Y-31530533D02*
X149105714Y-31673390D01*
X149105714Y-31673390D02*
X149677142Y-32244819D01*
X149677142Y-32244819D02*
X149058095Y-32244819D01*
X102242857Y-17344819D02*
X102576190Y-16868628D01*
X102814285Y-17344819D02*
X102814285Y-16344819D01*
X102814285Y-16344819D02*
X102433333Y-16344819D01*
X102433333Y-16344819D02*
X102338095Y-16392438D01*
X102338095Y-16392438D02*
X102290476Y-16440057D01*
X102290476Y-16440057D02*
X102242857Y-16535295D01*
X102242857Y-16535295D02*
X102242857Y-16678152D01*
X102242857Y-16678152D02*
X102290476Y-16773390D01*
X102290476Y-16773390D02*
X102338095Y-16821009D01*
X102338095Y-16821009D02*
X102433333Y-16868628D01*
X102433333Y-16868628D02*
X102814285Y-16868628D01*
X101290476Y-17344819D02*
X101861904Y-17344819D01*
X101576190Y-17344819D02*
X101576190Y-16344819D01*
X101576190Y-16344819D02*
X101671428Y-16487676D01*
X101671428Y-16487676D02*
X101766666Y-16582914D01*
X101766666Y-16582914D02*
X101861904Y-16630533D01*
X100433333Y-16678152D02*
X100433333Y-17344819D01*
X100671428Y-16297200D02*
X100909523Y-17011485D01*
X100909523Y-17011485D02*
X100290476Y-17011485D01*
X85412857Y-71279578D02*
X85460476Y-71327198D01*
X85460476Y-71327198D02*
X85603333Y-71374817D01*
X85603333Y-71374817D02*
X85698571Y-71374817D01*
X85698571Y-71374817D02*
X85841428Y-71327198D01*
X85841428Y-71327198D02*
X85936666Y-71231959D01*
X85936666Y-71231959D02*
X85984285Y-71136721D01*
X85984285Y-71136721D02*
X86031904Y-70946245D01*
X86031904Y-70946245D02*
X86031904Y-70803388D01*
X86031904Y-70803388D02*
X85984285Y-70612912D01*
X85984285Y-70612912D02*
X85936666Y-70517674D01*
X85936666Y-70517674D02*
X85841428Y-70422436D01*
X85841428Y-70422436D02*
X85698571Y-70374817D01*
X85698571Y-70374817D02*
X85603333Y-70374817D01*
X85603333Y-70374817D02*
X85460476Y-70422436D01*
X85460476Y-70422436D02*
X85412857Y-70470055D01*
X85079523Y-70374817D02*
X84460476Y-70374817D01*
X84460476Y-70374817D02*
X84793809Y-70755769D01*
X84793809Y-70755769D02*
X84650952Y-70755769D01*
X84650952Y-70755769D02*
X84555714Y-70803388D01*
X84555714Y-70803388D02*
X84508095Y-70851007D01*
X84508095Y-70851007D02*
X84460476Y-70946245D01*
X84460476Y-70946245D02*
X84460476Y-71184340D01*
X84460476Y-71184340D02*
X84508095Y-71279578D01*
X84508095Y-71279578D02*
X84555714Y-71327198D01*
X84555714Y-71327198D02*
X84650952Y-71374817D01*
X84650952Y-71374817D02*
X84936666Y-71374817D01*
X84936666Y-71374817D02*
X85031904Y-71327198D01*
X85031904Y-71327198D02*
X85079523Y-71279578D01*
X84127142Y-70374817D02*
X83508095Y-70374817D01*
X83508095Y-70374817D02*
X83841428Y-70755769D01*
X83841428Y-70755769D02*
X83698571Y-70755769D01*
X83698571Y-70755769D02*
X83603333Y-70803388D01*
X83603333Y-70803388D02*
X83555714Y-70851007D01*
X83555714Y-70851007D02*
X83508095Y-70946245D01*
X83508095Y-70946245D02*
X83508095Y-71184340D01*
X83508095Y-71184340D02*
X83555714Y-71279578D01*
X83555714Y-71279578D02*
X83603333Y-71327198D01*
X83603333Y-71327198D02*
X83698571Y-71374817D01*
X83698571Y-71374817D02*
X83984285Y-71374817D01*
X83984285Y-71374817D02*
X84079523Y-71327198D01*
X84079523Y-71327198D02*
X84127142Y-71279578D01*
D11*
%TO.C,C5*%
X99321252Y-13435000D02*
X98798748Y-13435000D01*
X99321252Y-11965000D02*
X98798748Y-11965000D01*
%TO.C,C13*%
X85625000Y-20581252D02*
X85625000Y-20058748D01*
X87095000Y-20581252D02*
X87095000Y-20058748D01*
%TO.C,C16*%
X118275000Y-66301252D02*
X118275000Y-65778748D01*
X119745000Y-66301252D02*
X119745000Y-65778748D01*
%TO.C,R20*%
X108115000Y-68807064D02*
X108115000Y-68352936D01*
X109585000Y-68807064D02*
X109585000Y-68352936D01*
%TO.C,C14*%
X153135000Y-33708748D02*
X153135000Y-34231252D01*
X151665000Y-33708748D02*
X151665000Y-34231252D01*
%TO.C,Ccomp2*%
X252195000Y-21988749D02*
X252195000Y-22511253D01*
X250725000Y-21988749D02*
X250725000Y-22511253D01*
%TO.C,Css1*%
X249655000Y-31168748D02*
X249655000Y-31691252D01*
X248185000Y-31168748D02*
X248185000Y-31691252D01*
%TO.C,CsnR3*%
X82015000Y-70858748D02*
X82015000Y-71381252D01*
X80545000Y-70858748D02*
X80545000Y-71381252D01*
%TO.C,C1*%
X130751252Y-23595000D02*
X130228748Y-23595000D01*
X130751252Y-22125000D02*
X130228748Y-22125000D01*
%TO.C,C18*%
X117205000Y-64828748D02*
X117205000Y-65351252D01*
X115735000Y-64828748D02*
X115735000Y-65351252D01*
%TO.C,C11*%
X84555000Y-20058748D02*
X84555000Y-20581252D01*
X83085000Y-20058748D02*
X83085000Y-20581252D01*
%TO.C,C10*%
X148107712Y-22125000D02*
X148630216Y-22125000D01*
X148107712Y-23595000D02*
X148630216Y-23595000D01*
%TO.C,C19*%
X107045000Y-68318748D02*
X107045000Y-68841252D01*
X105575000Y-68318748D02*
X105575000Y-68841252D01*
%TO.C,C2*%
X130751252Y-31215000D02*
X130228748Y-31215000D01*
X130751252Y-29745000D02*
X130228748Y-29745000D01*
%TO.C,C8*%
X148107712Y-24665000D02*
X148630216Y-24665000D01*
X148107712Y-26135000D02*
X148630216Y-26135000D01*
%TO.C,C3*%
X148107712Y-27205000D02*
X148630216Y-27205000D01*
X148107712Y-28675000D02*
X148630216Y-28675000D01*
%TO.C,Cvcc1*%
X243578748Y-11965000D02*
X244101252Y-11965000D01*
X243578748Y-13435000D02*
X244101252Y-13435000D01*
%TO.C,C32*%
X91225000Y-53078748D02*
X91225000Y-53601252D01*
X89755000Y-53078748D02*
X89755000Y-53601252D01*
%TO.C,C12*%
X150355000Y-33708748D02*
X150355000Y-34231252D01*
X148885000Y-33708748D02*
X148885000Y-34231252D01*
%TO.C,Cbst1*%
X242035000Y-18468748D02*
X242035000Y-18991252D01*
X240565000Y-18468748D02*
X240565000Y-18991252D01*
%TO.C,R14*%
X101372936Y-14505000D02*
X101827064Y-14505000D01*
X101372936Y-15975000D02*
X101827064Y-15975000D01*
%TO.C,C33*%
X84508748Y-68504998D02*
X85031252Y-68504998D01*
X84508748Y-69974998D02*
X85031252Y-69974998D01*
%TD*%
M02*
