%TF.GenerationSoftware,KiCad,Pcbnew,7.0.10*%
%TF.CreationDate,2024-02-28T12:35:52-05:00*%
%TF.ProjectId,PCB_Main_Sandbox,5043425f-4d61-4696-9e5f-53616e64626f,rev?*%
%TF.SameCoordinates,Original*%
%TF.FileFunction,Paste,Bot*%
%TF.FilePolarity,Positive*%
%FSLAX46Y46*%
G04 Gerber Fmt 4.6, Leading zero omitted, Abs format (unit mm)*
G04 Created by KiCad (PCBNEW 7.0.10) date 2024-02-28 12:35:52*
%MOMM*%
%LPD*%
G01*
G04 APERTURE LIST*
G04 Aperture macros list*
%AMRoundRect*
0 Rectangle with rounded corners*
0 $1 Rounding radius*
0 $2 $3 $4 $5 $6 $7 $8 $9 X,Y pos of 4 corners*
0 Add a 4 corners polygon primitive as box body*
4,1,4,$2,$3,$4,$5,$6,$7,$8,$9,$2,$3,0*
0 Add four circle primitives for the rounded corners*
1,1,$1+$1,$2,$3*
1,1,$1+$1,$4,$5*
1,1,$1+$1,$6,$7*
1,1,$1+$1,$8,$9*
0 Add four rect primitives between the rounded corners*
20,1,$1+$1,$2,$3,$4,$5,0*
20,1,$1+$1,$4,$5,$6,$7,0*
20,1,$1+$1,$6,$7,$8,$9,0*
20,1,$1+$1,$8,$9,$2,$3,0*%
G04 Aperture macros list end*
%ADD10RoundRect,0.250000X0.250000X0.475000X-0.250000X0.475000X-0.250000X-0.475000X0.250000X-0.475000X0*%
%ADD11RoundRect,0.250000X0.475000X-0.250000X0.475000X0.250000X-0.475000X0.250000X-0.475000X-0.250000X0*%
%ADD12RoundRect,0.250000X0.450000X-0.262500X0.450000X0.262500X-0.450000X0.262500X-0.450000X-0.262500X0*%
%ADD13RoundRect,0.250000X-0.475000X0.250000X-0.475000X-0.250000X0.475000X-0.250000X0.475000X0.250000X0*%
%ADD14RoundRect,0.250000X-0.250000X-0.475000X0.250000X-0.475000X0.250000X0.475000X-0.250000X0.475000X0*%
%ADD15RoundRect,0.250000X-0.262500X-0.450000X0.262500X-0.450000X0.262500X0.450000X-0.262500X0.450000X0*%
G04 APERTURE END LIST*
D10*
%TO.C,C5*%
X100010000Y-12700000D03*
X98110000Y-12700000D03*
%TD*%
D11*
%TO.C,C13*%
X86360000Y-21270000D03*
X86360000Y-19370000D03*
%TD*%
%TO.C,C16*%
X119010000Y-66990000D03*
X119010000Y-65090000D03*
%TD*%
D12*
%TO.C,R20*%
X108850000Y-69492500D03*
X108850000Y-67667500D03*
%TD*%
D13*
%TO.C,C14*%
X152400000Y-33020000D03*
X152400000Y-34920000D03*
%TD*%
%TO.C,Ccomp2*%
X251460000Y-21300001D03*
X251460000Y-23200001D03*
%TD*%
%TO.C,Css1*%
X248920000Y-30480000D03*
X248920000Y-32380000D03*
%TD*%
%TO.C,CsnR3*%
X81280000Y-70170000D03*
X81280000Y-72070000D03*
%TD*%
D10*
%TO.C,C1*%
X131440000Y-22860000D03*
X129540000Y-22860000D03*
%TD*%
D13*
%TO.C,C18*%
X116470000Y-64140000D03*
X116470000Y-66040000D03*
%TD*%
%TO.C,C11*%
X83820000Y-19370000D03*
X83820000Y-21270000D03*
%TD*%
D14*
%TO.C,C10*%
X147418964Y-22860000D03*
X149318964Y-22860000D03*
%TD*%
D13*
%TO.C,C19*%
X106310000Y-67630000D03*
X106310000Y-69530000D03*
%TD*%
D10*
%TO.C,C2*%
X131440000Y-30480000D03*
X129540000Y-30480000D03*
%TD*%
D14*
%TO.C,C8*%
X147418964Y-25400000D03*
X149318964Y-25400000D03*
%TD*%
%TO.C,C3*%
X147418964Y-27940000D03*
X149318964Y-27940000D03*
%TD*%
%TO.C,Cvcc1*%
X242890000Y-12700000D03*
X244790000Y-12700000D03*
%TD*%
D13*
%TO.C,C32*%
X90490000Y-52390000D03*
X90490000Y-54290000D03*
%TD*%
%TO.C,C12*%
X149620000Y-33020000D03*
X149620000Y-34920000D03*
%TD*%
%TO.C,Cbst1*%
X241300000Y-17780000D03*
X241300000Y-19680000D03*
%TD*%
D15*
%TO.C,R14*%
X100687500Y-15240000D03*
X102512500Y-15240000D03*
%TD*%
D14*
%TO.C,C33*%
X83820000Y-69239998D03*
X85720000Y-69239998D03*
%TD*%
M02*
