%TF.GenerationSoftware,KiCad,Pcbnew,7.0.10*%
%TF.CreationDate,2024-02-28T12:35:52-05:00*%
%TF.ProjectId,PCB_Main_Sandbox,5043425f-4d61-4696-9e5f-53616e64626f,rev?*%
%TF.SameCoordinates,Original*%
%TF.FileFunction,Paste,Top*%
%TF.FilePolarity,Positive*%
%FSLAX46Y46*%
G04 Gerber Fmt 4.6, Leading zero omitted, Abs format (unit mm)*
G04 Created by KiCad (PCBNEW 7.0.10) date 2024-02-28 12:35:52*
%MOMM*%
%LPD*%
G01*
G04 APERTURE LIST*
G04 Aperture macros list*
%AMRoundRect*
0 Rectangle with rounded corners*
0 $1 Rounding radius*
0 $2 $3 $4 $5 $6 $7 $8 $9 X,Y pos of 4 corners*
0 Add a 4 corners polygon primitive as box body*
4,1,4,$2,$3,$4,$5,$6,$7,$8,$9,$2,$3,0*
0 Add four circle primitives for the rounded corners*
1,1,$1+$1,$2,$3*
1,1,$1+$1,$4,$5*
1,1,$1+$1,$6,$7*
1,1,$1+$1,$8,$9*
0 Add four rect primitives between the rounded corners*
20,1,$1+$1,$2,$3,$4,$5,0*
20,1,$1+$1,$4,$5,$6,$7,0*
20,1,$1+$1,$6,$7,$8,$9,0*
20,1,$1+$1,$8,$9,$2,$3,0*%
G04 Aperture macros list end*
%ADD10C,0.010000*%
%ADD11R,2.997200X1.193800*%
%ADD12RoundRect,0.250000X-0.362500X-1.425000X0.362500X-1.425000X0.362500X1.425000X-0.362500X1.425000X0*%
%ADD13R,0.304800X1.294801*%
%ADD14R,2.500000X2.000000*%
%ADD15RoundRect,0.250000X0.450000X-0.262500X0.450000X0.262500X-0.450000X0.262500X-0.450000X-0.262500X0*%
%ADD16RoundRect,0.250000X0.625000X-0.312500X0.625000X0.312500X-0.625000X0.312500X-0.625000X-0.312500X0*%
%ADD17R,3.911600X1.498600*%
%ADD18R,1.500000X0.900000*%
%ADD19R,0.900000X1.500000*%
%ADD20R,0.900000X0.900000*%
%ADD21RoundRect,0.250000X0.262500X0.450000X-0.262500X0.450000X-0.262500X-0.450000X0.262500X-0.450000X0*%
%ADD22RoundRect,0.250000X-0.450000X0.262500X-0.450000X-0.262500X0.450000X-0.262500X0.450000X0.262500X0*%
%ADD23R,1.549400X0.990600*%
%ADD24RoundRect,0.250000X0.475000X-0.250000X0.475000X0.250000X-0.475000X0.250000X-0.475000X-0.250000X0*%
%ADD25R,0.890000X2.790000*%
%ADD26RoundRect,0.250000X0.250000X0.475000X-0.250000X0.475000X-0.250000X-0.475000X0.250000X-0.475000X0*%
%ADD27RoundRect,0.243750X0.456250X-0.243750X0.456250X0.243750X-0.456250X0.243750X-0.456250X-0.243750X0*%
%ADD28RoundRect,0.250000X-0.475000X0.250000X-0.475000X-0.250000X0.475000X-0.250000X0.475000X0.250000X0*%
%ADD29R,0.439998X1.389999*%
%ADD30R,0.439998X1.389998*%
%ADD31RoundRect,0.250000X-0.262500X-0.450000X0.262500X-0.450000X0.262500X0.450000X-0.262500X0.450000X0*%
%ADD32RoundRect,0.243750X-0.456250X0.243750X-0.456250X-0.243750X0.456250X-0.243750X0.456250X0.243750X0*%
%ADD33R,2.000000X1.800000*%
%ADD34RoundRect,0.250000X-1.000000X-0.650000X1.000000X-0.650000X1.000000X0.650000X-1.000000X0.650000X0*%
%ADD35R,3.302000X1.219200*%
%ADD36R,1.498600X3.606800*%
%ADD37R,0.355600X0.876300*%
%ADD38RoundRect,0.250000X0.650000X-0.325000X0.650000X0.325000X-0.650000X0.325000X-0.650000X-0.325000X0*%
%ADD39R,0.990600X1.549400*%
%ADD40RoundRect,0.250000X-0.250000X-0.475000X0.250000X-0.475000X0.250000X0.475000X-0.250000X0.475000X0*%
%ADD41R,1.168400X2.413000*%
%ADD42RoundRect,0.100000X0.637500X0.100000X-0.637500X0.100000X-0.637500X-0.100000X0.637500X-0.100000X0*%
%ADD43R,3.606800X1.498600*%
%ADD44R,2.413000X1.168400*%
%ADD45R,2.000000X1.500000*%
%ADD46R,2.000000X3.800000*%
%ADD47O,0.349999X1.400000*%
%ADD48R,4.199999X2.999999*%
%ADD49R,3.352800X14.554200*%
%ADD50RoundRect,0.249999X0.450001X1.450001X-0.450001X1.450001X-0.450001X-1.450001X0.450001X-1.450001X0*%
G04 APERTURE END LIST*
%TO.C,U6*%
D10*
X175210000Y-75405000D02*
X173950000Y-75405000D01*
X173950000Y-73495000D01*
X175210000Y-73495000D01*
X175210000Y-75405000D01*
G36*
X175210000Y-75405000D02*
G01*
X173950000Y-75405000D01*
X173950000Y-73495000D01*
X175210000Y-73495000D01*
X175210000Y-75405000D01*
G37*
X175210000Y-71985000D02*
X173950000Y-71985000D01*
X173950000Y-70075000D01*
X175210000Y-70075000D01*
X175210000Y-71985000D01*
G36*
X175210000Y-71985000D02*
G01*
X173950000Y-71985000D01*
X173950000Y-70075000D01*
X175210000Y-70075000D01*
X175210000Y-71985000D01*
G37*
X173450000Y-75405000D02*
X172190000Y-75405000D01*
X172190000Y-73495000D01*
X173450000Y-73495000D01*
X173450000Y-75405000D01*
G36*
X173450000Y-75405000D02*
G01*
X172190000Y-75405000D01*
X172190000Y-73495000D01*
X173450000Y-73495000D01*
X173450000Y-75405000D01*
G37*
X173450000Y-71985000D02*
X172190000Y-71985000D01*
X172190000Y-70075000D01*
X173450000Y-70075000D01*
X173450000Y-71985000D01*
G36*
X173450000Y-71985000D02*
G01*
X172190000Y-71985000D01*
X172190000Y-70075000D01*
X173450000Y-70075000D01*
X173450000Y-71985000D01*
G37*
X171690000Y-75405000D02*
X170430000Y-75405000D01*
X170430000Y-73495000D01*
X171690000Y-73495000D01*
X171690000Y-75405000D01*
G36*
X171690000Y-75405000D02*
G01*
X170430000Y-75405000D01*
X170430000Y-73495000D01*
X171690000Y-73495000D01*
X171690000Y-75405000D01*
G37*
X171690000Y-71985000D02*
X170430000Y-71985000D01*
X170430000Y-70075000D01*
X171690000Y-70075000D01*
X171690000Y-71985000D01*
G36*
X171690000Y-71985000D02*
G01*
X170430000Y-71985000D01*
X170430000Y-70075000D01*
X171690000Y-70075000D01*
X171690000Y-71985000D01*
G37*
X169930000Y-75405000D02*
X168670000Y-75405000D01*
X168670000Y-73495000D01*
X169930000Y-73495000D01*
X169930000Y-75405000D01*
G36*
X169930000Y-75405000D02*
G01*
X168670000Y-75405000D01*
X168670000Y-73495000D01*
X169930000Y-73495000D01*
X169930000Y-75405000D01*
G37*
X169930000Y-71985000D02*
X168670000Y-71985000D01*
X168670000Y-70075000D01*
X169930000Y-70075000D01*
X169930000Y-71985000D01*
G36*
X169930000Y-71985000D02*
G01*
X168670000Y-71985000D01*
X168670000Y-70075000D01*
X169930000Y-70075000D01*
X169930000Y-71985000D01*
G37*
X168170000Y-75405000D02*
X166910000Y-75405000D01*
X166910000Y-73495000D01*
X168170000Y-73495000D01*
X168170000Y-75405000D01*
G36*
X168170000Y-75405000D02*
G01*
X166910000Y-75405000D01*
X166910000Y-73495000D01*
X168170000Y-73495000D01*
X168170000Y-75405000D01*
G37*
X168170000Y-71985000D02*
X166910000Y-71985000D01*
X166910000Y-70075000D01*
X168170000Y-70075000D01*
X168170000Y-71985000D01*
G36*
X168170000Y-71985000D02*
G01*
X166910000Y-71985000D01*
X166910000Y-70075000D01*
X168170000Y-70075000D01*
X168170000Y-71985000D01*
G37*
X166410000Y-75405000D02*
X165150000Y-75405000D01*
X165150000Y-73495000D01*
X166410000Y-73495000D01*
X166410000Y-75405000D01*
G36*
X166410000Y-75405000D02*
G01*
X165150000Y-75405000D01*
X165150000Y-73495000D01*
X166410000Y-73495000D01*
X166410000Y-75405000D01*
G37*
X166410000Y-71985000D02*
X165150000Y-71985000D01*
X165150000Y-70075000D01*
X166410000Y-70075000D01*
X166410000Y-71985000D01*
G36*
X166410000Y-71985000D02*
G01*
X165150000Y-71985000D01*
X165150000Y-70075000D01*
X166410000Y-70075000D01*
X166410000Y-71985000D01*
G37*
%TD*%
D11*
%TO.C,Cb1*%
X165265100Y-43180000D03*
X159854900Y-43180000D03*
%TD*%
D12*
%TO.C,Rsense1*%
X199259600Y-30480000D03*
X205184600Y-30480000D03*
%TD*%
D13*
%TO.C,M2*%
X248917099Y-36207401D03*
X248267101Y-36207401D03*
X247617099Y-36207401D03*
X246967101Y-36207401D03*
X246967101Y-40000000D03*
X247617099Y-40000000D03*
X248267101Y-40000000D03*
X248917099Y-40000000D03*
D14*
X247942100Y-38431000D03*
%TD*%
D15*
%TO.C,R11*%
X124460000Y-17780000D03*
X124460000Y-15955000D03*
%TD*%
D16*
%TO.C,Rvin1*%
X241300000Y-31460001D03*
X241300000Y-28535001D03*
%TD*%
D17*
%TO.C,C3b1*%
X182880000Y-71120000D03*
X191973200Y-71120000D03*
%TD*%
D18*
%TO.C,U2*%
X94260000Y-12700000D03*
X94260000Y-13970000D03*
X94260000Y-15240000D03*
X94260000Y-16510000D03*
X94260000Y-17780000D03*
X94260000Y-19050000D03*
X94260000Y-20320000D03*
X94260000Y-21590000D03*
X94260000Y-22860000D03*
X94260000Y-24130000D03*
X94260000Y-25400000D03*
X94260000Y-26670000D03*
X94260000Y-27940000D03*
X94260000Y-29210000D03*
D19*
X97290000Y-30460000D03*
X98560000Y-30460000D03*
X99830000Y-30460000D03*
X101100000Y-30460000D03*
X102370000Y-30460000D03*
X103640000Y-30460000D03*
X104910000Y-30460000D03*
X106180000Y-30460000D03*
X107450000Y-30460000D03*
X108720000Y-30460000D03*
D18*
X111760000Y-29210000D03*
X111760000Y-27940000D03*
X111760000Y-26670000D03*
X111760000Y-25400000D03*
X111760000Y-24130000D03*
X111760000Y-22860000D03*
X111760000Y-21590000D03*
X111760000Y-20320000D03*
X111760000Y-19050000D03*
X111760000Y-17780000D03*
X111760000Y-16510000D03*
X111760000Y-15240000D03*
X111760000Y-13970000D03*
X111760000Y-12700000D03*
D20*
X100110000Y-19020000D03*
X100110000Y-19020000D03*
X100110000Y-20420000D03*
X100110000Y-21820000D03*
X100110000Y-21820000D03*
X101510000Y-19020000D03*
X101510000Y-20420000D03*
X101510000Y-21820000D03*
X101510000Y-21820000D03*
X102910000Y-19020000D03*
X102910000Y-20420000D03*
X102910000Y-21820000D03*
%TD*%
D21*
%TO.C,R18*%
X116470000Y-53340000D03*
X114645000Y-53340000D03*
%TD*%
D22*
%TO.C,R21*%
X139700000Y-22860000D03*
X139700000Y-24685000D03*
%TD*%
D17*
%TO.C,C0R1*%
X156946600Y-60960000D03*
X147853400Y-60960000D03*
%TD*%
D23*
%TO.C,SW1*%
X132165001Y-24459999D03*
X126914999Y-24459999D03*
X132165001Y-21260001D03*
X126914999Y-21260001D03*
%TD*%
D24*
%TO.C,C7*%
X88900000Y-12700000D03*
X88900000Y-10800000D03*
%TD*%
D23*
%TO.C,SW4*%
X83649998Y-68580000D03*
X88900000Y-68580000D03*
X83649998Y-71779998D03*
X88900000Y-71779998D03*
%TD*%
D22*
%TO.C,Rfbb1*%
X253087500Y-35627501D03*
X253087500Y-37452501D03*
%TD*%
D15*
%TO.C,Ruvt1*%
X243840000Y-31460001D03*
X243840000Y-29635001D03*
%TD*%
D25*
%TO.C,U6*%
X173990000Y-62390000D03*
X172720000Y-62390000D03*
X171450000Y-62390000D03*
X170180000Y-62390000D03*
X168910000Y-62390000D03*
X167640000Y-62390000D03*
X166370000Y-62390000D03*
%TD*%
D22*
%TO.C,R1*%
X144780000Y-21947500D03*
X144780000Y-23772500D03*
%TD*%
D24*
%TO.C,C22*%
X124460000Y-49210000D03*
X124460000Y-47310000D03*
%TD*%
D21*
%TO.C,R19*%
X116470000Y-55880000D03*
X114645000Y-55880000D03*
%TD*%
D17*
%TO.C,C6*%
X149860000Y-25400000D03*
X158953200Y-25400000D03*
%TD*%
D26*
%TO.C,Csc1*%
X172080000Y-58420000D03*
X170180000Y-58420000D03*
%TD*%
D22*
%TO.C,Ruvb1*%
X246380000Y-30547501D03*
X246380000Y-32372501D03*
%TD*%
D24*
%TO.C,CsnL1*%
X175260000Y-54290000D03*
X175260000Y-52390000D03*
%TD*%
D27*
%TO.C,D7*%
X139700000Y-20320000D03*
X139700000Y-18445000D03*
%TD*%
D28*
%TO.C,C17*%
X113930000Y-70170000D03*
X113930000Y-72070000D03*
%TD*%
D29*
%TO.C,M1*%
X239349999Y-41046999D03*
X240000000Y-41046999D03*
X240649999Y-41046999D03*
X241300000Y-41046999D03*
X241300000Y-37356999D03*
X240650002Y-37356999D03*
X240000000Y-37356999D03*
D30*
X239350002Y-37356999D03*
%TD*%
D15*
%TO.C,RsnL1*%
X175260000Y-59332500D03*
X175260000Y-57507500D03*
%TD*%
D26*
%TO.C,C26*%
X138110000Y-55880000D03*
X136210000Y-55880000D03*
%TD*%
D21*
%TO.C,R2*%
X86360000Y-15240000D03*
X84535000Y-15240000D03*
%TD*%
D31*
%TO.C,Rslope1*%
X250547500Y-16220001D03*
X252372500Y-16220001D03*
%TD*%
D32*
%TO.C,D6*%
X134620000Y-32082500D03*
X134620000Y-33957500D03*
%TD*%
D33*
%TO.C,Y1*%
X84260000Y-17780000D03*
X84260000Y-22860000D03*
X88460000Y-22860000D03*
X88460000Y-17780000D03*
%TD*%
D34*
%TO.C,Dbst1*%
X241840000Y-12700000D03*
X245840000Y-12700000D03*
%TD*%
D31*
%TO.C,R23*%
X140415000Y-46960000D03*
X142240000Y-46960000D03*
%TD*%
D24*
%TO.C,C23*%
X119380000Y-41264800D03*
X119380000Y-39364800D03*
%TD*%
D35*
%TO.C,Cin1*%
X200393300Y-43180000D03*
X207302100Y-43180000D03*
%TD*%
D36*
%TO.C,Cout3*%
X243840000Y-60185300D03*
X243840000Y-51574700D03*
%TD*%
D28*
%TO.C,C15*%
X116470000Y-70170000D03*
X116470000Y-72070000D03*
%TD*%
D37*
%TO.C,Q3*%
X137160000Y-14922500D03*
X137809986Y-14922500D03*
X138459972Y-14922500D03*
X138459972Y-12700000D03*
X137809986Y-12700000D03*
X137160000Y-12700000D03*
%TD*%
D26*
%TO.C,C25*%
X133675000Y-43180000D03*
X131775000Y-43180000D03*
%TD*%
D31*
%TO.C,Rcomp1*%
X254000000Y-18760001D03*
X255825000Y-18760001D03*
%TD*%
%TO.C,R17*%
X142955000Y-35560000D03*
X144780000Y-35560000D03*
%TD*%
D38*
%TO.C,Coutx1*%
X256540000Y-37035000D03*
X256540000Y-34085000D03*
%TD*%
D15*
%TO.C,Rfbt1*%
X251460000Y-33020000D03*
X251460000Y-31195000D03*
%TD*%
D39*
%TO.C,SW3*%
X91440000Y-50714999D03*
X91440000Y-55965001D03*
X88240002Y-50714999D03*
X88240002Y-55965001D03*
%TD*%
D40*
%TO.C,C31*%
X144780000Y-46960000D03*
X146680000Y-46960000D03*
%TD*%
D24*
%TO.C,Cvin1*%
X241300000Y-24760000D03*
X241300000Y-22860000D03*
%TD*%
D31*
%TO.C,R24*%
X129540000Y-68580000D03*
X131365000Y-68580000D03*
%TD*%
D33*
%TO.C,Y2*%
X119010000Y-67630000D03*
X119010000Y-62550000D03*
X114810000Y-62550000D03*
X114810000Y-67630000D03*
%TD*%
D41*
%TO.C,C21*%
X124460000Y-39207400D03*
X124460000Y-43322200D03*
%TD*%
D15*
%TO.C,R12*%
X127410000Y-17780000D03*
X127410000Y-15955000D03*
%TD*%
D21*
%TO.C,R37*%
X83105000Y-66040000D03*
X81280000Y-66040000D03*
%TD*%
D15*
%TO.C,RsnR1*%
X165100000Y-57705000D03*
X165100000Y-55880000D03*
%TD*%
D17*
%TO.C,C0L1*%
X180873400Y-58420000D03*
X189966600Y-58420000D03*
%TD*%
D42*
%TO.C,U7*%
X137805000Y-52160000D03*
X137805000Y-51510000D03*
X137805000Y-50860000D03*
X137805000Y-50210000D03*
X137805000Y-49560000D03*
X137805000Y-48910000D03*
X137805000Y-48260000D03*
X137805000Y-47610000D03*
X137805000Y-46960000D03*
X137805000Y-46310000D03*
X132080000Y-46310000D03*
X132080000Y-46960000D03*
X132080000Y-47610000D03*
X132080000Y-48260000D03*
X132080000Y-48910000D03*
X132080000Y-49560000D03*
X132080000Y-50210000D03*
X132080000Y-50860000D03*
X132080000Y-51510000D03*
X132080000Y-52160000D03*
%TD*%
D43*
%TO.C,Cout2*%
X260845300Y-50800000D03*
X252234700Y-50800000D03*
%TD*%
D44*
%TO.C,C28*%
X132080000Y-60960000D03*
X136194800Y-60960000D03*
%TD*%
D45*
%TO.C,U3*%
X145390000Y-32780000D03*
X145390000Y-30480000D03*
D46*
X139090000Y-30480000D03*
D45*
X145390000Y-28180000D03*
%TD*%
D40*
%TO.C,CiR1*%
X160660000Y-63500000D03*
X162560000Y-63500000D03*
%TD*%
D47*
%TO.C,U4*%
X243955002Y-24100000D03*
X244605003Y-24100000D03*
X245255001Y-24100000D03*
X245905003Y-24100000D03*
X246555001Y-24100000D03*
X247205003Y-24100000D03*
X247855001Y-24100000D03*
X248505003Y-24100000D03*
X249155001Y-24100000D03*
X249805002Y-24100000D03*
X249805002Y-18500002D03*
X249155001Y-18500002D03*
X248505003Y-18500002D03*
X247855001Y-18500002D03*
X247205003Y-18500002D03*
X246555001Y-18500002D03*
X245905003Y-18500002D03*
X245255001Y-18500002D03*
X244605003Y-18500002D03*
X243955002Y-18500002D03*
D48*
X246880002Y-21300001D03*
%TD*%
D24*
%TO.C,CsnR2*%
X165100000Y-52700000D03*
X165100000Y-50800000D03*
%TD*%
D26*
%TO.C,C27*%
X135570000Y-64450000D03*
X133670000Y-64450000D03*
%TD*%
D24*
%TO.C,C24*%
X142240000Y-53940000D03*
X142240000Y-52040000D03*
%TD*%
D28*
%TO.C,CiL1*%
X172720000Y-47310000D03*
X172720000Y-49210000D03*
%TD*%
D24*
%TO.C,C9*%
X91440000Y-15240000D03*
X91440000Y-13340000D03*
%TD*%
D40*
%TO.C,Cres1*%
X250510000Y-13680001D03*
X252410000Y-13680001D03*
%TD*%
D49*
%TO.C,L1*%
X209842100Y-22860000D03*
X237197900Y-22860000D03*
%TD*%
D22*
%TO.C,Rt1*%
X248920000Y-30547501D03*
X248920000Y-32372501D03*
%TD*%
D40*
%TO.C,C30*%
X150500000Y-49500000D03*
X152400000Y-49500000D03*
%TD*%
D27*
%TO.C,D1*%
X142240000Y-21257500D03*
X142240000Y-19382500D03*
%TD*%
D31*
%TO.C,R22*%
X145495000Y-49500000D03*
X147320000Y-49500000D03*
%TD*%
%TO.C,TH1*%
X138787500Y-35560000D03*
X140612500Y-35560000D03*
%TD*%
D50*
%TO.C,Ccomp1*%
X256050000Y-23840001D03*
X251950000Y-23840001D03*
%TD*%
D23*
%TO.C,SW2*%
X132165001Y-32079999D03*
X126914999Y-32079999D03*
X132165001Y-28880001D03*
X126914999Y-28880001D03*
%TD*%
D41*
%TO.C,C20*%
X119380000Y-48884800D03*
X119380000Y-44770000D03*
%TD*%
D21*
%TO.C,R36*%
X83105000Y-63090000D03*
X81280000Y-63090000D03*
%TD*%
D31*
%TO.C,R3*%
X118537500Y-70170000D03*
X120362500Y-70170000D03*
%TD*%
D18*
%TO.C,U5*%
X111390000Y-71120000D03*
X111390000Y-69850000D03*
X111390000Y-68580000D03*
X111390000Y-67310000D03*
X111390000Y-66040000D03*
X111390000Y-64770000D03*
X111390000Y-63500000D03*
X111390000Y-62230000D03*
X111390000Y-60960000D03*
X111390000Y-59690000D03*
X111390000Y-58420000D03*
X111390000Y-57150000D03*
X111390000Y-55880000D03*
X111390000Y-54610000D03*
X111390000Y-53340000D03*
X111390000Y-52070000D03*
X111390000Y-50800000D03*
X111390000Y-49530000D03*
X111390000Y-48260000D03*
X93890000Y-48260000D03*
X93890000Y-49530000D03*
X93890000Y-50800000D03*
X93890000Y-52070000D03*
X93890000Y-53340000D03*
X93890000Y-54610000D03*
X93890000Y-55880000D03*
X93890000Y-57150000D03*
X93890000Y-58420000D03*
X93890000Y-59690000D03*
X93890000Y-60960000D03*
X93890000Y-62230000D03*
X93890000Y-63500000D03*
X93890000Y-64770000D03*
X93890000Y-66040000D03*
X93890000Y-67310000D03*
X93890000Y-68580000D03*
X93890000Y-69850000D03*
X93890000Y-71120000D03*
D20*
X105545000Y-64725000D03*
X105540000Y-63325000D03*
X105540000Y-61925000D03*
X104140000Y-64725000D03*
X104140000Y-63325000D03*
X104140000Y-61925000D03*
X102740000Y-64725000D03*
X102740000Y-63325000D03*
X102740000Y-61925000D03*
%TD*%
D15*
%TO.C,R16*%
X134620000Y-27940000D03*
X134620000Y-26115000D03*
%TD*%
D44*
%TO.C,C29*%
X141757400Y-41880000D03*
X137642600Y-41880000D03*
%TD*%
D36*
%TO.C,Cout1*%
X231140000Y-59410600D03*
X231140000Y-50800000D03*
%TD*%
D31*
%TO.C,R25*%
X129540000Y-71530000D03*
X131365000Y-71530000D03*
%TD*%
D40*
%TO.C,CsnR1*%
X130180000Y-15240000D03*
X132080000Y-15240000D03*
%TD*%
M02*
