M48
; DRILL file {KiCad 7.0.10} date Wed Feb 28 12:36:17 2024
; FORMAT={-:-/ absolute / inch / decimal}
; #@! TF.CreationDate,2024-02-28T12:36:17-05:00
; #@! TF.GenerationSoftware,Kicad,Pcbnew,7.0.10
; #@! TF.FileFunction,Plated,1,2,PTH
FMAT,2
INCH
; #@! TA.AperFunction,Plated,PTH,ViaDrill
T1C0.0157
; #@! TA.AperFunction,Plated,PTH,ViaDrill
T2C0.0236
; #@! TA.AperFunction,Plated,PTH,ViaDrill
T3C0.0315
; #@! TA.AperFunction,Plated,PTH,ViaDrill
T4C0.0394
; #@! TA.AperFunction,Plated,PTH,ComponentDrill
T5C0.0394
; #@! TA.AperFunction,Plated,PTH,ViaDrill
T6C0.0984
; #@! TA.AperFunction,Plated,PTH,ViaDrill
T7C0.1575
; #@! TA.AperFunction,Plated,PTH,ComponentDrill
T8C0.1791
%
G90
G05
T1
X3.2Y-0.6
X3.2Y-2.7
X3.3Y-0.9
X3.3Y-1.6
X3.3Y-2.7
X3.4Y-1.7
X3.5Y-0.7
X3.5Y-0.9
X3.5Y-1.4
X3.5Y-1.6
X3.5Y-2.7
X3.6Y-0.7
X3.6Y-0.8
X3.6Y-1.5
X3.6Y-2.0
X3.6Y-2.2
X3.7Y-0.7
X3.7Y-1.6
X3.7Y-2.8
X3.8Y-0.5
X3.8Y-0.6
X3.8Y-0.8
X3.8Y-0.9
X3.8Y-1.9
X3.8Y-2.2
X3.8Y-2.6
X3.9Y-0.6
X3.9Y-1.1
X3.9Y-2.1
X4.0Y-2.2
X4.0Y-2.3
X4.1Y-2.2
X4.2Y-0.8
X4.2Y-2.2
X4.3Y-0.7
X4.3Y-0.8
X4.3Y-0.9
X4.3Y-1.0
X4.3Y-1.1
X4.3Y-2.0
X4.3Y-2.1
X4.3Y-2.2
X4.3Y-2.8
X4.4Y-0.5
X4.4Y-2.1
X4.4Y-2.7
X4.5Y-0.6
X4.5Y-1.0
X4.5Y-1.1
X4.5Y-2.3
X4.5Y-2.4
X4.5Y-2.9
X4.6Y-2.1
X4.6Y-2.2
X4.6Y-2.6
X4.6Y-2.9
X4.7Y-1.7948
X4.7Y-2.5
X4.8Y-2.6
X4.9Y-1.6948
X5.0Y-0.9
X5.0Y-1.2
X5.0Y-1.8
X5.0Y-1.9
X5.0Y-2.0
X5.0Y-2.1
X5.1Y-1.7
X5.1Y-1.8
X5.1Y-2.0
X5.1Y-2.1
X5.2Y-1.3
X5.3Y-0.6
X5.3Y-1.0
X5.3Y-1.7
X5.3Y-1.9
X5.3Y-2.1
X5.3Y-2.2
X5.4Y-0.7
X5.4Y-2.4
X5.5Y-0.5
X5.5Y-1.8
X5.5Y-2.1
X5.6Y-1.0
X5.6Y-2.0
X5.7Y-1.0
X5.7Y-1.3
X5.8Y-0.9
X5.8Y-1.0
X5.8Y-1.1
X5.8Y-1.2
X5.9Y-1.8
X6.0Y-1.8
X6.0Y-1.9
X6.3Y-1.0
X8.2Y-1.3
X8.2Y-1.5
X8.3Y-1.3
X8.3Y-1.5
X8.3Y-1.6
X8.3Y-1.7
X8.3Y-1.8
X8.3Y-1.9
X8.4Y-1.5
X8.4Y-1.6
X8.4Y-1.7
X8.4Y-1.8
X8.4Y-1.9
X8.5Y-1.5
X8.5Y-1.6
X8.5Y-1.7
X8.5Y-1.8
X8.5Y-1.9
X8.6Y-1.5
X8.6Y-1.6
X8.6Y-1.7
X8.6Y-1.8
X8.6Y-1.9
X8.7Y-1.5
X8.7Y-1.6
X8.7Y-1.7
X8.7Y-1.8
X8.7Y-1.9
X8.8Y-1.5
X8.8Y-1.6
X8.8Y-1.7
X8.8Y-1.8
X8.8Y-1.9
X8.9Y-1.5
X8.9Y-1.6
X8.9Y-1.7
X8.9Y-1.8
X8.9Y-1.9
X9.0Y-1.5
X9.0Y-1.6
X9.0Y-1.7
X9.0Y-1.8
X9.0Y-1.9
X9.1Y-1.5
X9.1Y-1.6
X9.1Y-1.7
X9.1Y-1.8
X9.1Y-1.9
X9.1Y-2.0
X9.2Y-1.5
X9.2Y-1.6
X9.2Y-1.7
X9.2Y-1.8
X9.2Y-1.9
X9.3Y-0.5
X9.3Y-1.3
X9.3Y-1.5
X9.3Y-1.6
X9.3Y-1.7
X9.3Y-1.8
X9.3Y-1.9
X9.4Y-0.5
X9.4Y-1.7
X9.4Y-1.8
X9.4Y-1.9
X9.5Y-1.7
X9.5Y-1.8
X9.5Y-1.9
X9.6Y-1.8
X9.6Y-1.9
X9.6Y-2.0
X9.7Y-1.9
X9.8Y-1.9
X9.9Y-2.0
X10.0Y-0.5
X10.0Y-0.6
T2
X9.5Y-0.7
X9.5Y-0.7748
X9.5Y-1.3
X9.5573Y-1.0033
X9.5997Y-0.898
X9.6Y-0.6
X9.6Y-0.8
X9.6Y-1.0
X9.6Y-1.5
X9.6Y-1.6
X9.7Y-0.5
X9.7Y-1.2771
X9.7Y-0.5939
X9.8Y-0.6
X9.8Y-1.1
X9.8Y-1.2771
X9.8936Y-1.0282
X9.9Y-0.7
X9.9Y-0.9
X10.0Y-0.8
X10.0Y-0.9
X10.0Y-1.0
X10.1Y-1.3771
T3
X3.4Y-2.3
X3.4Y-2.4
X3.4Y-2.5
X3.5Y-1.8
X3.5Y-2.3
X3.5Y-2.4
X3.5Y-2.5
X3.9Y-1.6
X3.9Y-1.7
X4.0Y-1.6
X4.0039Y-1.7
X4.1Y-1.6
X4.2Y-1.6
X4.2Y-1.7
T4
X3.1Y-0.8
X3.1Y-0.9
X5.1Y-2.7
X5.1Y-2.8161
X5.4Y-2.7
X5.4Y-2.8
X6.3Y-1.7
X6.3Y-2.3
X6.3Y-2.6
X6.5Y-2.0
X6.7Y-1.9
X6.7Y-2.3
X6.9Y-2.0
X7.6Y-2.8
X7.9Y-1.4
X8.1Y-0.9
T5
X3.0719Y-2.4
X3.0719Y-2.5
X3.0719Y-2.6
X3.0719Y-2.7
X3.0719Y-2.8
X3.0719Y-2.9
X3.1Y-0.5
X3.1Y-0.6
X3.1Y-0.7
X3.1Y-1.1
X3.1Y-1.2
X3.1Y-1.3
X3.1Y-1.4
X3.1Y-1.5
X3.1Y-1.6
X3.1Y-1.7
X3.1Y-1.8
X3.2Y-1.1
X3.2Y-1.2
X3.2Y-1.3
X3.2Y-1.4
X3.2Y-1.5
X3.2Y-1.6
X3.2Y-1.7
X3.2Y-1.8
X4.8Y-0.5
X4.9Y-0.5
X5.0Y-0.5
X5.1Y-0.5
X5.2Y-0.5
X5.3Y-0.5
X5.6Y-0.5
X5.6Y-0.6
X5.9Y-2.8
X6.0Y-2.8
X7.8Y-2.7
X7.8Y-2.8
T6
X9.7197Y-0.8386
T7
X4.0Y-0.8
X4.1Y-2.5
X6.7Y-2.9
T8
X5.8583Y-0.6
X6.1417Y-0.6
M30
