%TF.GenerationSoftware,KiCad,Pcbnew,7.0.10*%
%TF.CreationDate,2024-02-28T14:07:26-05:00*%
%TF.ProjectId,Light_Sensor,4c696768-745f-4536-956e-736f722e6b69,rev?*%
%TF.SameCoordinates,Original*%
%TF.FileFunction,Profile,NP*%
%FSLAX46Y46*%
G04 Gerber Fmt 4.6, Leading zero omitted, Abs format (unit mm)*
G04 Created by KiCad (PCBNEW 7.0.10) date 2024-02-28 14:07:26*
%MOMM*%
%LPD*%
G01*
G04 APERTURE LIST*
%TA.AperFunction,Profile*%
%ADD10C,0.100000*%
%TD*%
%ADD11C,0.150000*%
G04 APERTURE END LIST*
D10*
X142240000Y-68580000D02*
X152400000Y-68580000D01*
X152400000Y-99060000D01*
X142240000Y-99060000D01*
X142240000Y-68580000D01*
D11*
X142433922Y-70919819D02*
X143005350Y-70919819D01*
X142719636Y-71919819D02*
X142719636Y-70919819D01*
X143719636Y-71872200D02*
X143624398Y-71919819D01*
X143624398Y-71919819D02*
X143433922Y-71919819D01*
X143433922Y-71919819D02*
X143338684Y-71872200D01*
X143338684Y-71872200D02*
X143291065Y-71776961D01*
X143291065Y-71776961D02*
X143291065Y-71396009D01*
X143291065Y-71396009D02*
X143338684Y-71300771D01*
X143338684Y-71300771D02*
X143433922Y-71253152D01*
X143433922Y-71253152D02*
X143624398Y-71253152D01*
X143624398Y-71253152D02*
X143719636Y-71300771D01*
X143719636Y-71300771D02*
X143767255Y-71396009D01*
X143767255Y-71396009D02*
X143767255Y-71491247D01*
X143767255Y-71491247D02*
X143291065Y-71586485D01*
X144624398Y-71919819D02*
X144624398Y-71396009D01*
X144624398Y-71396009D02*
X144576779Y-71300771D01*
X144576779Y-71300771D02*
X144481541Y-71253152D01*
X144481541Y-71253152D02*
X144291065Y-71253152D01*
X144291065Y-71253152D02*
X144195827Y-71300771D01*
X144624398Y-71872200D02*
X144529160Y-71919819D01*
X144529160Y-71919819D02*
X144291065Y-71919819D01*
X144291065Y-71919819D02*
X144195827Y-71872200D01*
X144195827Y-71872200D02*
X144148208Y-71776961D01*
X144148208Y-71776961D02*
X144148208Y-71681723D01*
X144148208Y-71681723D02*
X144195827Y-71586485D01*
X144195827Y-71586485D02*
X144291065Y-71538866D01*
X144291065Y-71538866D02*
X144529160Y-71538866D01*
X144529160Y-71538866D02*
X144624398Y-71491247D01*
X145100589Y-71919819D02*
X145100589Y-71253152D01*
X145100589Y-71348390D02*
X145148208Y-71300771D01*
X145148208Y-71300771D02*
X145243446Y-71253152D01*
X145243446Y-71253152D02*
X145386303Y-71253152D01*
X145386303Y-71253152D02*
X145481541Y-71300771D01*
X145481541Y-71300771D02*
X145529160Y-71396009D01*
X145529160Y-71396009D02*
X145529160Y-71919819D01*
X145529160Y-71396009D02*
X145576779Y-71300771D01*
X145576779Y-71300771D02*
X145672017Y-71253152D01*
X145672017Y-71253152D02*
X145814874Y-71253152D01*
X145814874Y-71253152D02*
X145910113Y-71300771D01*
X145910113Y-71300771D02*
X145957732Y-71396009D01*
X145957732Y-71396009D02*
X145957732Y-71919819D01*
X147338684Y-71348390D02*
X147243446Y-71300771D01*
X147243446Y-71300771D02*
X147195827Y-71253152D01*
X147195827Y-71253152D02*
X147148208Y-71157914D01*
X147148208Y-71157914D02*
X147148208Y-71110295D01*
X147148208Y-71110295D02*
X147195827Y-71015057D01*
X147195827Y-71015057D02*
X147243446Y-70967438D01*
X147243446Y-70967438D02*
X147338684Y-70919819D01*
X147338684Y-70919819D02*
X147529160Y-70919819D01*
X147529160Y-70919819D02*
X147624398Y-70967438D01*
X147624398Y-70967438D02*
X147672017Y-71015057D01*
X147672017Y-71015057D02*
X147719636Y-71110295D01*
X147719636Y-71110295D02*
X147719636Y-71157914D01*
X147719636Y-71157914D02*
X147672017Y-71253152D01*
X147672017Y-71253152D02*
X147624398Y-71300771D01*
X147624398Y-71300771D02*
X147529160Y-71348390D01*
X147529160Y-71348390D02*
X147338684Y-71348390D01*
X147338684Y-71348390D02*
X147243446Y-71396009D01*
X147243446Y-71396009D02*
X147195827Y-71443628D01*
X147195827Y-71443628D02*
X147148208Y-71538866D01*
X147148208Y-71538866D02*
X147148208Y-71729342D01*
X147148208Y-71729342D02*
X147195827Y-71824580D01*
X147195827Y-71824580D02*
X147243446Y-71872200D01*
X147243446Y-71872200D02*
X147338684Y-71919819D01*
X147338684Y-71919819D02*
X147529160Y-71919819D01*
X147529160Y-71919819D02*
X147624398Y-71872200D01*
X147624398Y-71872200D02*
X147672017Y-71824580D01*
X147672017Y-71824580D02*
X147719636Y-71729342D01*
X147719636Y-71729342D02*
X147719636Y-71538866D01*
X147719636Y-71538866D02*
X147672017Y-71443628D01*
X147672017Y-71443628D02*
X147624398Y-71396009D01*
X147624398Y-71396009D02*
X147529160Y-71348390D01*
X143052969Y-73529819D02*
X142576779Y-73529819D01*
X142576779Y-73529819D02*
X142576779Y-72529819D01*
X143386303Y-73529819D02*
X143386303Y-72863152D01*
X143386303Y-72529819D02*
X143338684Y-72577438D01*
X143338684Y-72577438D02*
X143386303Y-72625057D01*
X143386303Y-72625057D02*
X143433922Y-72577438D01*
X143433922Y-72577438D02*
X143386303Y-72529819D01*
X143386303Y-72529819D02*
X143386303Y-72625057D01*
X144291064Y-72863152D02*
X144291064Y-73672676D01*
X144291064Y-73672676D02*
X144243445Y-73767914D01*
X144243445Y-73767914D02*
X144195826Y-73815533D01*
X144195826Y-73815533D02*
X144100588Y-73863152D01*
X144100588Y-73863152D02*
X143957731Y-73863152D01*
X143957731Y-73863152D02*
X143862493Y-73815533D01*
X144291064Y-73482200D02*
X144195826Y-73529819D01*
X144195826Y-73529819D02*
X144005350Y-73529819D01*
X144005350Y-73529819D02*
X143910112Y-73482200D01*
X143910112Y-73482200D02*
X143862493Y-73434580D01*
X143862493Y-73434580D02*
X143814874Y-73339342D01*
X143814874Y-73339342D02*
X143814874Y-73053628D01*
X143814874Y-73053628D02*
X143862493Y-72958390D01*
X143862493Y-72958390D02*
X143910112Y-72910771D01*
X143910112Y-72910771D02*
X144005350Y-72863152D01*
X144005350Y-72863152D02*
X144195826Y-72863152D01*
X144195826Y-72863152D02*
X144291064Y-72910771D01*
X144767255Y-73529819D02*
X144767255Y-72529819D01*
X145195826Y-73529819D02*
X145195826Y-73006009D01*
X145195826Y-73006009D02*
X145148207Y-72910771D01*
X145148207Y-72910771D02*
X145052969Y-72863152D01*
X145052969Y-72863152D02*
X144910112Y-72863152D01*
X144910112Y-72863152D02*
X144814874Y-72910771D01*
X144814874Y-72910771D02*
X144767255Y-72958390D01*
X145529160Y-72863152D02*
X145910112Y-72863152D01*
X145672017Y-72529819D02*
X145672017Y-73386961D01*
X145672017Y-73386961D02*
X145719636Y-73482200D01*
X145719636Y-73482200D02*
X145814874Y-73529819D01*
X145814874Y-73529819D02*
X145910112Y-73529819D01*
X146957732Y-73482200D02*
X147100589Y-73529819D01*
X147100589Y-73529819D02*
X147338684Y-73529819D01*
X147338684Y-73529819D02*
X147433922Y-73482200D01*
X147433922Y-73482200D02*
X147481541Y-73434580D01*
X147481541Y-73434580D02*
X147529160Y-73339342D01*
X147529160Y-73339342D02*
X147529160Y-73244104D01*
X147529160Y-73244104D02*
X147481541Y-73148866D01*
X147481541Y-73148866D02*
X147433922Y-73101247D01*
X147433922Y-73101247D02*
X147338684Y-73053628D01*
X147338684Y-73053628D02*
X147148208Y-73006009D01*
X147148208Y-73006009D02*
X147052970Y-72958390D01*
X147052970Y-72958390D02*
X147005351Y-72910771D01*
X147005351Y-72910771D02*
X146957732Y-72815533D01*
X146957732Y-72815533D02*
X146957732Y-72720295D01*
X146957732Y-72720295D02*
X147005351Y-72625057D01*
X147005351Y-72625057D02*
X147052970Y-72577438D01*
X147052970Y-72577438D02*
X147148208Y-72529819D01*
X147148208Y-72529819D02*
X147386303Y-72529819D01*
X147386303Y-72529819D02*
X147529160Y-72577438D01*
X148338684Y-73482200D02*
X148243446Y-73529819D01*
X148243446Y-73529819D02*
X148052970Y-73529819D01*
X148052970Y-73529819D02*
X147957732Y-73482200D01*
X147957732Y-73482200D02*
X147910113Y-73386961D01*
X147910113Y-73386961D02*
X147910113Y-73006009D01*
X147910113Y-73006009D02*
X147957732Y-72910771D01*
X147957732Y-72910771D02*
X148052970Y-72863152D01*
X148052970Y-72863152D02*
X148243446Y-72863152D01*
X148243446Y-72863152D02*
X148338684Y-72910771D01*
X148338684Y-72910771D02*
X148386303Y-73006009D01*
X148386303Y-73006009D02*
X148386303Y-73101247D01*
X148386303Y-73101247D02*
X147910113Y-73196485D01*
X148814875Y-72863152D02*
X148814875Y-73529819D01*
X148814875Y-72958390D02*
X148862494Y-72910771D01*
X148862494Y-72910771D02*
X148957732Y-72863152D01*
X148957732Y-72863152D02*
X149100589Y-72863152D01*
X149100589Y-72863152D02*
X149195827Y-72910771D01*
X149195827Y-72910771D02*
X149243446Y-73006009D01*
X149243446Y-73006009D02*
X149243446Y-73529819D01*
X149672018Y-73482200D02*
X149767256Y-73529819D01*
X149767256Y-73529819D02*
X149957732Y-73529819D01*
X149957732Y-73529819D02*
X150052970Y-73482200D01*
X150052970Y-73482200D02*
X150100589Y-73386961D01*
X150100589Y-73386961D02*
X150100589Y-73339342D01*
X150100589Y-73339342D02*
X150052970Y-73244104D01*
X150052970Y-73244104D02*
X149957732Y-73196485D01*
X149957732Y-73196485D02*
X149814875Y-73196485D01*
X149814875Y-73196485D02*
X149719637Y-73148866D01*
X149719637Y-73148866D02*
X149672018Y-73053628D01*
X149672018Y-73053628D02*
X149672018Y-73006009D01*
X149672018Y-73006009D02*
X149719637Y-72910771D01*
X149719637Y-72910771D02*
X149814875Y-72863152D01*
X149814875Y-72863152D02*
X149957732Y-72863152D01*
X149957732Y-72863152D02*
X150052970Y-72910771D01*
X150672018Y-73529819D02*
X150576780Y-73482200D01*
X150576780Y-73482200D02*
X150529161Y-73434580D01*
X150529161Y-73434580D02*
X150481542Y-73339342D01*
X150481542Y-73339342D02*
X150481542Y-73053628D01*
X150481542Y-73053628D02*
X150529161Y-72958390D01*
X150529161Y-72958390D02*
X150576780Y-72910771D01*
X150576780Y-72910771D02*
X150672018Y-72863152D01*
X150672018Y-72863152D02*
X150814875Y-72863152D01*
X150814875Y-72863152D02*
X150910113Y-72910771D01*
X150910113Y-72910771D02*
X150957732Y-72958390D01*
X150957732Y-72958390D02*
X151005351Y-73053628D01*
X151005351Y-73053628D02*
X151005351Y-73339342D01*
X151005351Y-73339342D02*
X150957732Y-73434580D01*
X150957732Y-73434580D02*
X150910113Y-73482200D01*
X150910113Y-73482200D02*
X150814875Y-73529819D01*
X150814875Y-73529819D02*
X150672018Y-73529819D01*
X151433923Y-73529819D02*
X151433923Y-72863152D01*
X151433923Y-73053628D02*
X151481542Y-72958390D01*
X151481542Y-72958390D02*
X151529161Y-72910771D01*
X151529161Y-72910771D02*
X151624399Y-72863152D01*
X151624399Y-72863152D02*
X151719637Y-72863152D01*
X144973922Y-77609819D02*
X145307255Y-78609819D01*
X145307255Y-78609819D02*
X145640588Y-77609819D01*
X146545350Y-78514580D02*
X146497731Y-78562200D01*
X146497731Y-78562200D02*
X146354874Y-78609819D01*
X146354874Y-78609819D02*
X146259636Y-78609819D01*
X146259636Y-78609819D02*
X146116779Y-78562200D01*
X146116779Y-78562200D02*
X146021541Y-78466961D01*
X146021541Y-78466961D02*
X145973922Y-78371723D01*
X145973922Y-78371723D02*
X145926303Y-78181247D01*
X145926303Y-78181247D02*
X145926303Y-78038390D01*
X145926303Y-78038390D02*
X145973922Y-77847914D01*
X145973922Y-77847914D02*
X146021541Y-77752676D01*
X146021541Y-77752676D02*
X146116779Y-77657438D01*
X146116779Y-77657438D02*
X146259636Y-77609819D01*
X146259636Y-77609819D02*
X146354874Y-77609819D01*
X146354874Y-77609819D02*
X146497731Y-77657438D01*
X146497731Y-77657438D02*
X146545350Y-77705057D01*
X147545350Y-78514580D02*
X147497731Y-78562200D01*
X147497731Y-78562200D02*
X147354874Y-78609819D01*
X147354874Y-78609819D02*
X147259636Y-78609819D01*
X147259636Y-78609819D02*
X147116779Y-78562200D01*
X147116779Y-78562200D02*
X147021541Y-78466961D01*
X147021541Y-78466961D02*
X146973922Y-78371723D01*
X146973922Y-78371723D02*
X146926303Y-78181247D01*
X146926303Y-78181247D02*
X146926303Y-78038390D01*
X146926303Y-78038390D02*
X146973922Y-77847914D01*
X146973922Y-77847914D02*
X147021541Y-77752676D01*
X147021541Y-77752676D02*
X147116779Y-77657438D01*
X147116779Y-77657438D02*
X147259636Y-77609819D01*
X147259636Y-77609819D02*
X147354874Y-77609819D01*
X147354874Y-77609819D02*
X147497731Y-77657438D01*
X147497731Y-77657438D02*
X147545350Y-77705057D01*
M02*
