%TF.GenerationSoftware,KiCad,Pcbnew,7.0.10*%
%TF.CreationDate,2024-03-05T22:09:10-05:00*%
%TF.ProjectId,PCB_Main_Final,5043425f-4d61-4696-9e5f-46696e616c2e,rev?*%
%TF.SameCoordinates,Original*%
%TF.FileFunction,Soldermask,Bot*%
%TF.FilePolarity,Negative*%
%FSLAX46Y46*%
G04 Gerber Fmt 4.6, Leading zero omitted, Abs format (unit mm)*
G04 Created by KiCad (PCBNEW 7.0.10) date 2024-03-05 22:09:10*
%MOMM*%
%LPD*%
G01*
G04 APERTURE LIST*
G04 Aperture macros list*
%AMRoundRect*
0 Rectangle with rounded corners*
0 $1 Rounding radius*
0 $2 $3 $4 $5 $6 $7 $8 $9 X,Y pos of 4 corners*
0 Add a 4 corners polygon primitive as box body*
4,1,4,$2,$3,$4,$5,$6,$7,$8,$9,$2,$3,0*
0 Add four circle primitives for the rounded corners*
1,1,$1+$1,$2,$3*
1,1,$1+$1,$4,$5*
1,1,$1+$1,$6,$7*
1,1,$1+$1,$8,$9*
0 Add four rect primitives between the rounded corners*
20,1,$1+$1,$2,$3,$4,$5,0*
20,1,$1+$1,$4,$5,$6,$7,0*
20,1,$1+$1,$6,$7,$8,$9,0*
20,1,$1+$1,$8,$9,$2,$3,0*%
G04 Aperture macros list end*
%ADD10O,1.700000X1.700000*%
%ADD11R,1.700000X1.700000*%
%ADD12C,2.700000*%
%ADD13C,6.204000*%
%ADD14RoundRect,0.102000X-3.000000X-3.000000X3.000000X-3.000000X3.000000X3.000000X-3.000000X3.000000X0*%
%ADD15RoundRect,0.250000X0.475000X-0.250000X0.475000X0.250000X-0.475000X0.250000X-0.475000X-0.250000X0*%
%ADD16RoundRect,0.250000X-0.475000X0.250000X-0.475000X-0.250000X0.475000X-0.250000X0.475000X0.250000X0*%
%ADD17RoundRect,0.250000X0.262500X0.450000X-0.262500X0.450000X-0.262500X-0.450000X0.262500X-0.450000X0*%
%ADD18RoundRect,0.250000X-0.450000X0.262500X-0.450000X-0.262500X0.450000X-0.262500X0.450000X0.262500X0*%
%ADD19RoundRect,0.250000X-0.250000X-0.475000X0.250000X-0.475000X0.250000X0.475000X-0.250000X0.475000X0*%
%ADD20RoundRect,0.250000X0.450000X-0.262500X0.450000X0.262500X-0.450000X0.262500X-0.450000X-0.262500X0*%
%ADD21RoundRect,0.250000X0.250000X0.475000X-0.250000X0.475000X-0.250000X-0.475000X0.250000X-0.475000X0*%
%ADD22RoundRect,0.250000X0.650000X-1.000000X0.650000X1.000000X-0.650000X1.000000X-0.650000X-1.000000X0*%
%ADD23RoundRect,0.250000X-0.262500X-0.450000X0.262500X-0.450000X0.262500X0.450000X-0.262500X0.450000X0*%
%ADD24RoundRect,0.250000X-0.625000X0.312500X-0.625000X-0.312500X0.625000X-0.312500X0.625000X0.312500X0*%
G04 APERTURE END LIST*
D10*
%TO.C,J6*%
X155194000Y-109723000D03*
D11*
X155194000Y-107183000D03*
%TD*%
D10*
%TO.C,J5*%
X96647000Y-123947000D03*
D11*
X96647000Y-121407000D03*
%TD*%
D12*
%TO.C,H9*%
X88900000Y-73660000D03*
%TD*%
%TO.C,H8*%
X228600000Y-53340000D03*
%TD*%
%TO.C,H7*%
X162560000Y-53340000D03*
%TD*%
D11*
%TO.C,LightSensorConnector2*%
X46490000Y-56185000D03*
D10*
X46490000Y-58725000D03*
X46490000Y-61265000D03*
%TD*%
D11*
%TO.C,J8*%
X46490000Y-68885000D03*
D10*
X49030000Y-68885000D03*
X46490000Y-71425000D03*
X49030000Y-71425000D03*
X46490000Y-73965000D03*
X49030000Y-73965000D03*
X46490000Y-76505000D03*
X49030000Y-76505000D03*
X46490000Y-79045000D03*
X49030000Y-79045000D03*
X46490000Y-81585000D03*
X49030000Y-81585000D03*
X46490000Y-84125000D03*
X49030000Y-84125000D03*
X46490000Y-86665000D03*
X49030000Y-86665000D03*
%TD*%
D12*
%TO.C,H6*%
X210820000Y-93980000D03*
%TD*%
%TO.C,H10*%
X148844000Y-84836000D03*
%TD*%
D11*
%TO.C,J10*%
X107880000Y-53645000D03*
D10*
X107880000Y-51105000D03*
%TD*%
D13*
%TO.C,J7*%
X127350000Y-53645000D03*
D14*
X120150000Y-53645000D03*
%TD*%
D11*
%TO.C,J9*%
X112530000Y-53645000D03*
D10*
X112530000Y-51105000D03*
%TD*%
D11*
%TO.C,Boot2ROVER2*%
X46515000Y-95580000D03*
D10*
X46515000Y-98120000D03*
X46515000Y-100660000D03*
X46515000Y-103200000D03*
X46515000Y-105740000D03*
X46515000Y-108280000D03*
%TD*%
D11*
%TO.C,Boot2WROOM2*%
X82575000Y-51105000D03*
D10*
X85115000Y-51105000D03*
X87655000Y-51105000D03*
X90195000Y-51105000D03*
X92735000Y-51105000D03*
X95275000Y-51105000D03*
%TD*%
D15*
%TO.C,C56*%
X79510000Y-110894104D03*
X79510000Y-108994104D03*
%TD*%
D16*
%TO.C,C33*%
X72360000Y-109220000D03*
X72360000Y-111120000D03*
%TD*%
D17*
%TO.C,R24*%
X74430000Y-106985000D03*
X72605000Y-106985000D03*
%TD*%
D15*
%TO.C,C11*%
X69350000Y-52055000D03*
X69350000Y-50155000D03*
%TD*%
D18*
%TO.C,Ruvt2*%
X182880000Y-58420000D03*
X182880000Y-60245000D03*
%TD*%
D19*
%TO.C,C49*%
X115070000Y-61265000D03*
X116970000Y-61265000D03*
%TD*%
D17*
%TO.C,R23*%
X74572500Y-104140000D03*
X72747500Y-104140000D03*
%TD*%
D20*
%TO.C,R22*%
X69350000Y-109525000D03*
X69350000Y-107700000D03*
%TD*%
D17*
%TO.C,Rt2*%
X172720000Y-60960000D03*
X170895000Y-60960000D03*
%TD*%
D21*
%TO.C,C16*%
X66810000Y-106985000D03*
X64910000Y-106985000D03*
%TD*%
D20*
%TO.C,R4*%
X84590000Y-108316604D03*
X84590000Y-106491604D03*
%TD*%
D15*
%TO.C,C15*%
X64270000Y-52055000D03*
X64270000Y-50155000D03*
%TD*%
D18*
%TO.C,R13*%
X64270000Y-53645000D03*
X64270000Y-55470000D03*
%TD*%
D19*
%TO.C,C48*%
X115710000Y-63805000D03*
X117610000Y-63805000D03*
%TD*%
D16*
%TO.C,C40*%
X97681050Y-85261950D03*
X97681050Y-87161950D03*
%TD*%
D21*
%TO.C,C42*%
X102082600Y-99060000D03*
X100182600Y-99060000D03*
%TD*%
D16*
%TO.C,C41*%
X99700000Y-93980000D03*
X99700000Y-95880000D03*
%TD*%
D15*
%TO.C,Cvin2*%
X187960000Y-60575000D03*
X187960000Y-58675000D03*
%TD*%
D22*
%TO.C,Dbst2*%
X187960000Y-73120000D03*
X187960000Y-69120000D03*
%TD*%
D23*
%TO.C,R14*%
X52427500Y-60960000D03*
X54252500Y-60960000D03*
%TD*%
D18*
%TO.C,R27*%
X120150000Y-60352500D03*
X120150000Y-62177500D03*
%TD*%
D16*
%TO.C,C51*%
X108110000Y-60240000D03*
X108110000Y-62140000D03*
%TD*%
D19*
%TO.C,C54*%
X51570000Y-53645000D03*
X53470000Y-53645000D03*
%TD*%
D21*
%TO.C,Cbst2*%
X188910000Y-76200000D03*
X187010000Y-76200000D03*
%TD*%
%TO.C,C45*%
X106040000Y-91440000D03*
X104140000Y-91440000D03*
%TD*%
D24*
%TO.C,Rvin2*%
X185420000Y-60960000D03*
X185420000Y-58035000D03*
%TD*%
D20*
%TO.C,Ruvb2*%
X180340000Y-60245000D03*
X180340000Y-58420000D03*
%TD*%
D23*
%TO.C,R30*%
X100424986Y-53645000D03*
X102249986Y-53645000D03*
%TD*%
D15*
%TO.C,C12*%
X66810000Y-52055000D03*
X66810000Y-50155000D03*
%TD*%
D19*
%TO.C,Cvcc2*%
X187010000Y-66040000D03*
X188910000Y-66040000D03*
%TD*%
D16*
%TO.C,C52*%
X110650000Y-61265000D03*
X110650000Y-59365000D03*
%TD*%
D17*
%TO.C,R2*%
X53395000Y-51105000D03*
X51570000Y-51105000D03*
%TD*%
D19*
%TO.C,C38*%
X87317500Y-86360000D03*
X89217500Y-86360000D03*
%TD*%
D16*
%TO.C,C46*%
X106680000Y-84460000D03*
X106680000Y-86360000D03*
%TD*%
%TO.C,C55*%
X54110000Y-95401252D03*
X54110000Y-97301252D03*
%TD*%
%TO.C,C34*%
X74430000Y-109220000D03*
X74430000Y-111120000D03*
%TD*%
%TO.C,CsnR5*%
X49030000Y-103495000D03*
X49030000Y-105395000D03*
%TD*%
D19*
%TO.C,C50*%
X115070000Y-58725000D03*
X116970000Y-58725000D03*
%TD*%
%TO.C,CsnR4*%
X93030000Y-53645000D03*
X94930000Y-53645000D03*
%TD*%
D17*
%TO.C,R1*%
X94960004Y-63090000D03*
X93135004Y-63090000D03*
%TD*%
D18*
%TO.C,R21*%
X82050000Y-76915000D03*
X82050000Y-78740000D03*
%TD*%
D16*
%TO.C,C37*%
X87000000Y-97642600D03*
X87000000Y-99542600D03*
%TD*%
D18*
%TO.C,R29*%
X104910000Y-66345000D03*
X104910000Y-68170000D03*
%TD*%
D20*
%TO.C,R3*%
X56412303Y-95896852D03*
X56412303Y-94071852D03*
%TD*%
D19*
%TO.C,C53*%
X92250002Y-60300002D03*
X94150002Y-60300002D03*
%TD*%
D23*
%TO.C,R17*%
X52427500Y-58420000D03*
X54252500Y-58420000D03*
%TD*%
D18*
%TO.C,R18*%
X79100000Y-76915000D03*
X79100000Y-78740000D03*
%TD*%
M02*
